{
.appVersion = "3260";
copyright = "Copyright 2020 The Poppins Project Authors (https://github.com/itfoundry/Poppins)";
customParameters = (
{
name = glyphOrder;
value = (
A,
Aacute,
Abreve,
Acircumflex,
Adieresis,
Agrave,
Amacron,
Aogonek,
Aring,
Atilde,
AE,
AEacute,
B,
C,
Cacute,
Ccaron,
Ccedilla,
Cdotaccent,
D,
Eth,
Dcaron,
Dcroat,
E,
Eacute,
Ebreve,
Ecaron,
Ecircumflex,
Edieresis,
Edotaccent,
Egrave,
Emacron,
Eogonek,
Etilde,
F,
G,
Gbreve,
Gcommaaccent,
Gdotaccent,
H,
I,
Iacute,
Ibreve,
Icircumflex,
Idieresis,
Idotaccent,
Igrave,
Imacron,
Iogonek,
Itilde,
J,
K,
Kcommaaccent,
L,
Lacute,
Lcaron,
Lcommaaccent,
Ldot,
Lslash,
M,
N,
Nacute,
Ncaron,
Ncommaaccent,
Ntilde,
O,
Oacute,
Obreve,
Ocircumflex,
Odieresis,
Ograve,
Ohungarumlaut,
Omacron,
Oslash,
Otilde,
OE,
P,
Thorn,
Q,
R,
Racute,
Rcaron,
Rcommaaccent,
S,
Sacute,
Scaron,
Scedilla,
Scommaaccent,
T,
Tcaron,
Tcedilla,
Tcommaaccent,
U,
Uacute,
Ubreve,
Ucircumflex,
Udieresis,
Ugrave,
Uhungarumlaut,
Umacron,
Uogonek,
Uring,
Utilde,
V,
W,
Wacute,
Wcircumflex,
Wdieresis,
Wgrave,
X,
Y,
Yacute,
Ycircumflex,
Ydieresis,
Ygrave,
Ytilde,
Z,
Zacute,
Zcaron,
Zdotaccent,
a,
aacute,
abreve,
acircumflex,
adieresis,
agrave,
amacron,
aogonek,
aring,
atilde,
ae,
aeacute,
b,
c,
cacute,
ccaron,
ccedilla,
cdotaccent,
d,
eth,
dcaron,
dcroat,
e,
eacute,
ebreve,
ecaron,
ecircumflex,
edieresis,
edotaccent,
egrave,
emacron,
eogonek,
etilde,
f,
g,
gbreve,
gcommaaccent,
gdotaccent,
h,
i,
dotlessi,
iacute,
ibreve,
icircumflex,
idieresis,
igrave,
imacron,
iogonek,
itilde,
j,
k,
kcommaaccent,
l,
lacute,
lcaron,
lcommaaccent,
ldot,
lslash,
m,
n,
nacute,
ncaron,
ncommaaccent,
ntilde,
o,
oacute,
obreve,
ocircumflex,
odieresis,
ograve,
ohungarumlaut,
omacron,
oslash,
otilde,
oe,
p,
thorn,
q,
r,
racute,
rcaron,
rcommaaccent,
s,
sacute,
scaron,
scedilla,
scommaaccent,
germandbls,
t,
tcaron,
tcedilla,
tcommaaccent,
u,
uacute,
ubreve,
ucircumflex,
udieresis,
ugrave,
uhungarumlaut,
umacron,
uogonek,
uring,
utilde,
v,
w,
wacute,
wcircumflex,
wdieresis,

glyphs = (
{
color = 4;
glyphname = A;
lastChange = "2024-08-04 16:35:10 +0000";
layers = (
{
anchors = (
{
name = ogonek;
position = "{664, 0}";
},
{
name = top;
position = "{349, 696}";
}
);
layerId = "4D0F633C-81E1-4D6C-A640-637CE706A5C5";
paths = (
{
closed = 1;
nodes = (
"283 695 LINE",
"34 0 LINE",
"153 0 LINE",
"375 634 LINE",
"322 634 LINE",
"544 0 LINE",
"664 0 LINE",
"415 695 LINE"
);
},
{
closed = 1;
nodes = (
"138 142 LINE",
"554 142 LINE",
"524 235 LINE",
"167 235 LINE"
);
}
);
width = 697;
},
{
anchors = (
{
name = ogonek;
position = "{747, 0}";
},
{
name = top;
position = "{378, 707}";
}
);
layerId = "86171893-955A-4CD1-BD1B-2F7A53CC85DC";
paths = (
{
closed = 1;
nodes = (
"265 705 LINE",
"8 0 LINE",
"214 0 LINE",
"414 603 LINE",
"341 603 LINE",
"540 0 LINE",
"747 0 LINE",
"491 705 LINE"
);
},
{
closed = 1;
nodes = (
"120 115 LINE",
"615 115 LINE",
"566 265 LINE",
"169 265 LINE"
);
}
);
width = 755;
},
{
anchors = (
{
name = ogonek;
position = "{620, 0}";
},
{
name = top;
position = "{327, 690}";
}
);
layerId = "6D7935D2-FE9A-430A-A298-15DA7AF44FAE";
paths = (
{
closed = 1;
nodes = (
"287 690 LINE",
"32 0 LINE",
"106 0 LINE",
"344 650 LINE",
"309 650 LINE",
"546 0 LINE",
"620 0 LINE",
"366 690 LINE"
);
},
{
closed = 1;
nodes = (
"128 166 LINE",
"521 166 LINE",
"502 224 LINE",
"146 224 LINE"
);
}
);
width = 652;
}
);
unicode = 0041;
userData = {
com.schriftgestaltung.Glyphs.ColorIndex = 4;
com.typesupply.AccentFactory.yCoordinates = {
bottom = {
name = origin;
type = glyphMetric;
};
top = {
name = capHeight;
type = fontInfo;
};
};
};
},
{
color = 4;
glyphname = Aogonek;
lastChange = "2024-06-14 14:32:59 +0000";
layers = (
{
anchors = (
{
name = _ogonek;
position = "{664, 0}";
}
);
background = {
paths = (
{
closed = 1;
nodes = (
"138 142 LINE",
"554 142 LINE",
"524 231 LINE",
"167 231 LINE"
);
},
{
closed = 1;
nodes = (
"34 0 LINE",
"153 0 LINE",
"359 586 LINE",
"339 586 LINE",
"553 -24 LINE",
"558 1 LINE",
"501 -7 OFFCURVE",
"464 -42 OFFCURVE",
"464 -96 CURVE SMOOTH",
"464 -165 OFFCURVE",
"521 -205 OFFCURVE",
"592 -205 CURVE SMOOTH",
"698 -205 LINE",
"698 -133 LINE",
"614 -133 LINE SMOOTH",
"579 -133 OFFCURVE",
"558 -126 OFFCURVE",
"558 -96 CURVE SMOOTH",
"558 -66 OFFCURVE",
"579 -60 OFFCURVE",
"614 -60 CURVE SMOOTH",
"664 -60 LINE",
"664 1 LINE",
"415 696 LINE",
"283 696 LINE"
);
}
);
};
components = (
{
name = A;
}
);
layerId = "4D0F633C-81E1-4D6C-A640-637CE706A5C5";
paths = (
{
closed = 1;
nodes = (
"592 39 LINE SMOOTH",
"498 -4 OFFCURVE",
"465 -52 OFFCURVE",
"465 -103 CURVE SMOOTH",
"465 -183 OFFCURVE",
"535 -211 OFFCURVE",
"598 -211 CURVE SMOOTH",
"627 -211 OFFCURVE",
"656 -205 OFFCURVE",
"679 -196 CURVE",
"679 -123 LINE",
"656 -132 OFFCURVE",
"632 -137 OFFCURVE",
"613 -137 CURVE SMOOTH",
"579 -137 OFFCURVE",
"558 -119 OFFCURVE",
"558 -91 CURVE SMOOTH",
"558 -67 OFFCURVE",
"572 -47 OFFCURVE",
"615 -25 CURVE SMOOTH",
"664 0 LINE",
"634 58 LINE"
);
}
);
width = 697;
},
{
anchors = (
{
name = _ogonek;
position = "{747, 0}";
}
);
components = (
{
alignment = -1;
name = A;
}
);
layerId = "86171893-955A-4CD1-BD1B-2F7A53CC85DC";
paths = (
{
closed = 1;
nodes = (
"670 78 LINE SMOOTH",
"529 20 OFFCURVE",
"491 -32 OFFCURVE",
"491 -98 CURVE SMOOTH",
"491 -178 OFFCURVE",
"553 -220 OFFCURVE",
"645 -220 CURVE SMOOTH",
"684 -220 OFFCURVE",
"720 -214 OFFCURVE",
"751 -204 CURVE",
"751 -99 LINE",
"720 -109 OFFCURVE",
"694 -114 OFFCURVE",
"673 -114 CURVE SMOOTH",
"646 -114 OFFCURVE",
"631 -103 OFFCURVE",
"631 -84 CURVE SMOOTH",
"631 -66 OFFCURVE",
"644 -46 OFFCURVE",
"702 -20 CURVE SMOOTH",
"747 0 LINE",
"708 94 LINE"
);
}
);
width = 755;
},
{
anchors = (
{
name = _ogonek;
position = "{620, 0}";
}
);
components = (
{
alignment = -1;
name = A;
}
);
layerId = "6D7935D2-FE9A-430A-A298-15DA7AF44FAE";
paths = (
{
closed = 1;
nodes = (
"547 13 LINE SMOOTH",
"468 -23 OFFCURVE",
"439 -64 OFFCURVE",
"439 -109 CURVE SMOOTH",
"439 -176 OFFCURVE",
"494 -201 OFFCURVE",
"552 -201 CURVE SMOOTH",
"576 -201 OFFCURVE",
"602 -196 OFFCURVE",
"624 -188 CURVE",
"624 -139 LINE",
"602 -148 OFFCURVE",
"579 -153 OFFCURVE",
"559 -153 CURVE SMOOTH",
"523 -153 OFFCURVE",
"498 -135 OFFCURVE",
"498 -102 CURVE SMOOTH",
"498 -76 OFFCURVE",
"513 -52 OFFCURVE",
"561 -29 CURVE SMOOTH",
"620 0 LINE",
"601 38 LINE"
);
}
);
width = 652;
}
);
unicode = 0104;
userData = {
com.schriftgestaltung.Glyphs.ColorIndex = 8;
com.typesupply.AccentFactory.compileType = manual;
};
},
{
color = 4;
glyphname = AE;
lastChange = "2024-08-04 17:20:29 +0000";
layers = (
{
layerId = "4D0F633C-81E1-4D6C-A640-637CE706A5C5";
paths = (
{
closed = 1;
nodes = (
"152 142 LINE",
"525 142 LINE",
"525 231 LINE",
"202 231 LINE"
);
},
{
closed = 1;
nodes = (
"855 606 LINE",
"855 695 LINE",
"395 695 LINE",
"12 0 LINE",
"136 0 LINE",
"472 616 LINE",
"472 0 LINE",
"855 0 LINE",
"855 89 LINE",
"586 89 LINE",
"586 308 LINE",
"825 308 LINE",
"825 396 LINE",
"586 396 LINE",
"586 606 LINE"
);
}
);
width = 921;
},
{
layerId = "86171893-955A-4CD1-BD1B-2F7A53CC85DC";
paths = (
{
closed = 1;
nodes = (
"154 108 LINE",
"581 108 LINE",
"581 256 LINE",
"237 256 LINE"
);
},
{
closed = 1;
nodes = (
"929 550 LINE",
"929 705 LINE",
"352 705 LINE",
"3 0 LINE",
"216 0 LINE",
"486 556 LINE",
"486 0 LINE",
"929 0 LINE",
"929 156 LINE",
"682 156 LINE",
"682 287 LINE",
"899 287 LINE",
"899 435 LINE",
"682 435 LINE",
"682 550 LINE"
);
}
);
width = 971;
},
{
layerId = "6D7935D2-FE9A-430A-A298-15DA7AF44FAE";
paths = (
{
closed = 1;
nodes = (
"145 166 LINE",
"490 166 LINE",
"490 222 LINE",
"174 222 LINE"
);
},
{
closed = 1;
nodes = (
"823 634 LINE",
"823 690 LINE",
"417 690 LINE",
"11 0 LINE",
"88 0 LINE",
"458 630 LINE",
"458 0 LINE",
"823 0 LINE",
"823 56 LINE",
"528 56 LINE",
"528 319 LINE",
"793 319 LINE",
"793 375 LINE",
"528 375 LINE",
"528 634 LINE"
);
}
);
width = 882;
}
);
unicode = 00C6;
userData = {
com.schriftgestaltung.Glyphs.ColorIndex = 4;
com.typemytype.robofont.layerData = {
b = {
anchors = (
);
components = (
);
contours = (
{
points = (
{
segmentType = line;
smooth = 0;
x = 138;
y = 183;
},
{
segmentType = line;
smooth = 0;
x = 449;
y = 183;
},
{
segmentType = line;
smooth = 0;
x = 449;
y = 202;
},
{
segmentType = line;
smooth = 0;
x = 149;
y = 202;
}
);
},
{
points = (
{
segmentType = line;
smooth = 0;
x = 757;
y = 663;
},
{
segmentType = line;
smooth = 0;
x = 757;
y = 683;
},
{
segmentType = line;
smooth = 0;
x = 442;
y = 683;
},
{
segmentType = line;
smooth = 0;
x = 11;
y = 0;
},
{
segmentType = line;
smooth = 0;
x = 32;
y = 0;
},
{
segmentType = line;
smooth = 0;
x = 443;
y = 658;
},
{
segmentType = line;
smooth = 0;
x = 443;
y = 0;
},
{
segmentType = line;
smooth = 0;
x = 757;
y = 0;
},
{
segmentType = line;
smooth = 0;
x = 757;
y = 19;
},
{
segmentType = line;
smooth = 0;
x = 463;
y = 19;
},
{
segmentType = line;
smooth = 0;
x = 463;
y = 332;
},
{
segmentType = line;
smooth = 0;
x = 727;
y = 332;
},
{
segmentType = line;
smooth = 0;
x = 727;
y = 351;
},
{
segmentType = line;
smooth = 0;
x = 463;
y = 351;
},
{
segmentType = line;
smooth = 0;
x = 463;
y = 663;
}
);
}
);
lib = {
};
name = AE;
unicodes = (
);
width = 837;
};
};
com.typesupply.AccentFactory.yCoordinates = {
bottom = {
name = origin;
type = glyphMetric;
};
top = {
name = capHeight;
type = fontInfo;
};
};
};
},
{
color = 4;
glyphname = B;
lastChange = "2024-08-04 17:21:32 +0000";
layers = (
{
background = {
paths = (
{
closed = 1;
nodes = (
"449 502 CURVE SMOOTH",
"449 438 OFFCURVE",
"404 400 OFFCURVE",
"330 400 CURVE SMOOTH",
"189 400 LINE",
"189 606 LINE",
"330 606 LINE SMOOTH",
"404 606 OFFCURVE",
"449 567 OFFCURVE"
);
},
{
closed = 1;
nodes = (
"581 183 CURVE SMOOTH",
"581 275 OFFCURVE",
"511 356 OFFCURVE",
"403 359 CURVE",
"386 347 LINE",
"495 364 OFFCURVE",
"565 417 OFFCURVE",
"565 511 CURVE SMOOTH",
"565 614 OFFCURVE",
"487 695 OFFCURVE",
"340 695 CURVE SMOOTH",
"75 695 LINE",
"75 0 LINE",
"353 0 LINE SMOOTH",
"495 0 OFFCURVE",
"581 79 OFFCURVE"
);
},
{
closed = 1;
nodes = (
"467 199 CURVE SMOOTH",
"467 130 OFFCURVE",
"420 89 OFFCURVE",
"343 89 CURVE SMOOTH",
"189 89 LINE",
"189 311 LINE",
"339 311 LINE SMOOTH",
"415 311 OFFCURVE",
"467 268 OFFCURVE"
);
}
);
};
layerId = "4D0F633C-81E1-4D6C-A640-637CE706A5C5";
paths = (
{
closed = 1;
nodes = (
"449 502 CURVE SMOOTH",
"449 438 OFFCURVE",
"404 403 OFFCURVE",
"330 403 CURVE SMOOTH",
"189 403 LINE",
"189 602 LINE",
"330 602 LINE SMOOTH",
"404 602 OFFCURVE",
"449 565 OFFCURVE"
);
},
{
closed = 1;
nodes = (
"581 187 CURVE SMOOTH",
"581 277 OFFCURVE",
"511 356 OFFCURVE",
"428 359 CURVE",
"411 347 LINE",
"495 364 OFFCURVE",
"565 417 OFFCURVE",
"565 516 CURVE SMOOTH",
"565 614 OFFCURVE",
"487 695 OFFCURVE",
"340 695 CURVE SMOOTH",
"75 695 LINE",
"75 0 LINE",
"353 0 LINE SMOOTH",
"495 0 OFFCURVE",
"581 81 OFFCURVE"
);
},
{
closed = 1;
nodes = (
"467 199 CURVE SMOOTH",
"467 132 OFFCURVE",
"420 93 OFFCURVE",
"343 93 CURVE SMOOTH",
"189 93 LINE",
"189 310 LINE",
"339 310 LINE SMOOTH",
"415 310 OFFCURVE",
"467 268 OFFCURVE"
);
}
);
width = 630;
},
{
associatedMasterId = "4D0F633C-81E1-4D6C-A640-637CE706A5C5";
layerId = "C4420EFC-D5EF-4B28-ADC0-87A5182B2F17";
name = "Sep 19 17, 17:06";
paths = (
{
closed = 1;
nodes = (
"449 502 CURVE SMOOTH",
"449 438 OFFCURVE",
"404 400 OFFCURVE",
"330 400 CURVE SMOOTH",
"189 400 LINE",
"189 606 LINE",
"330 606 LINE SMOOTH",
"404 606 OFFCURVE",
"449 567 OFFCURVE"
);
},
{
closed = 1;
nodes = (
"581 183 CURVE SMOOTH",
"581 275 OFFCURVE",
"511 356 OFFCURVE",
"403 359 CURVE",
"386 347 LINE",
"495 364 OFFCURVE",
"565 417 OFFCURVE",
"565 511 CURVE SMOOTH",
"565 614 OFFCURVE",
"487 695 OFFCURVE",
"340 695 CURVE SMOOTH",
"75 695 LINE",
"75 0 LINE",
"353 0 LINE SMOOTH",
"495 0 OFFCURVE",
"581 79 OFFCURVE"
);
},
{
closed = 1;
nodes = (
"467 199 CURVE SMOOTH",
"467 130 OFFCURVE",
"420 89 OFFCURVE",
"343 89 CURVE SMOOTH",
"189 89 LINE",
"189 311 LINE",
"339 311 LINE SMOOTH",
"415 311 OFFCURVE",
"467 268 OFFCURVE"
);
}
);
width = 630;
},
{
layerId = "86171893-955A-4CD1-BD1B-2F7A53CC85DC";
paths = (
{
closed = 1;
nodes = (
"425 486 CURVE SMOOTH",
"425 445 OFFCURVE",
"399 425 OFFCURVE",
"351 425 CURVE SMOOTH",
"252 425 LINE",
"252 549 LINE",
"351 549 LINE SMOOTH",
"399 549 OFFCURVE",
"425 527 OFFCURVE"
);
},
{
closed = 1;
nodes = (
"641 192 CURVE SMOOTH",
"641 283 OFFCURVE",
"575 362 OFFCURVE",
"469 367 CURVE",
"452 355 LINE",
"547 355 OFFCURVE",
"625 416 OFFCURVE",
"625 522 CURVE SMOOTH",
"625 639 OFFCURVE",
"537 705 OFFCURVE",
"394 705 CURVE SMOOTH",
"56 705 LINE",
"56 0 LINE",
"405 0 LINE SMOOTH",
"556 0 OFFCURVE",
"641 73 OFFCURVE"
);
},
{
closed = 1;
nodes = (
"440 220 CURVE SMOOTH",
"440 178 OFFCURVE",
"415 158 OFFCURVE",
"366 158 CURVE SMOOTH",
"252 158 LINE",
"252 286 LINE",
"365 286 LINE SMOOTH",
"413 286 OFFCURVE",
"440 263 OFFCURVE"
);
}
);
width = 671;
},
{
layerId = "6D7935D2-FE9A-430A-A298-15DA7AF44FAE";
paths = (
{
closed = 1;
nodes = (
"461 510 CURVE",
"461 432 OFFCURVE",
"408 386 OFFCURVE",
"313 386 CURVE SMOOTH",
"150 386 LINE",
"150 631 LINE",
"310 631 LINE SMOOTH",
"411 631 OFFCURVE",
"461 585 OFFCURVE"
);
},
{
closed = 1;
nodes = (
"548 185 CURVE SMOOTH",
"548 282 OFFCURVE",
"471 358 OFFCURVE",
"382 360 CURVE",
"369 350 LINE",
"451 359 OFFCURVE",
"532 408 OFFCURVE",
"532 517 CURVE",
"532 615 OFFCURVE",
"462 690 OFFCURVE",
"315 690 CURVE SMOOTH",
"80 690 LINE",
"80 0 LINE",
"322 0 LINE SMOOTH",
"469 0 OFFCURVE",
"548 80 OFFCURVE"
);
},
{
closed = 1;
nodes = (
"478 192 CURVE SMOOTH",
"478 108 OFFCURVE",
"418 59 OFFCURVE",
"317 59 CURVE SMOOTH",
"150 59 LINE",
"150 328 LINE",
"314 328 LINE SMOOTH",
"414 328 OFFCURVE",
"478 276 OFFCURVE"
);
}
);
width = 597;
}
);
unicode = 0042;
userData = {
com.schriftgestaltung.Glyphs.ColorIndex = 4;
com.typesupply.AccentFactory.yCoordinates = {
bottom = {
name = origin;
type = glyphMetric;
};
top = {
name = capHeight;
type = fontInfo;
};
};
};
},
{
color = 4;
glyphname = C;
lastChange = "2024-08-04 20:52:10 +0000";
layers = (
{
layerId = "4D0F633C-81E1-4D6C-A640-637CE706A5C5";
paths = (
{
closed = 1;
nodes = (
"532 -7 OFFCURVE",
"668 70 OFFCURVE",
"716 215 CURVE",
"608 240 LINE",
"571 151 OFFCURVE",
"484 92 OFFCURVE",
"392 92 CURVE SMOOTH",
"254 92 OFFCURVE",
"154 191 OFFCURVE",
"154 348 CURVE SMOOTH",
"154 504 OFFCURVE",
"257 602 OFFCURVE",
"395 602 CURVE SMOOTH",
"495 602 OFFCURVE",
"567 543 OFFCURVE",
"602 449 CURVE",
"708 482 LINE",
"664 624 OFFCURVE",
"541 702 OFFCURVE",
"392 702 CURVE SMOOTH",
"196 702 OFFCURVE",
"37 555 OFFCURVE",
"37 348 CURVE SMOOTH",
"37 139 OFFCURVE",
"196 -7 OFFCURVE",
"392 -7 CURVE SMOOTH"
);
}
);
width = 761;
},
{
layerId = "86171893-955A-4CD1-BD1B-2F7A53CC85DC";
paths = (
{
closed = 1;
nodes = (
"554 -7 OFFCURVE",
"679 90 OFFCURVE",
"716 245 CURVE",
"521 291 LINE",
"496 208 OFFCURVE",
"453 173 OFFCURVE",
"379 173 CURVE SMOOTH",
"288 173 OFFCURVE",
"232 244 OFFCURVE",
"232 353 CURVE SMOOTH",
"232 460 OFFCURVE",
"288 532 OFFCURVE",
"379 532 CURVE SMOOTH",
"441 532 OFFCURVE",
"491 506 OFFCURVE",
"517 418 CURVE",
"710 478 LINE",
"666 620 OFFCURVE",
"545 712 OFFCURVE",
"382 712 CURVE SMOOTH",
"176 712 OFFCURVE",
"32 567 OFFCURVE",
"32 353 CURVE SMOOTH",
"32 145 OFFCURVE",
"168 -7 OFFCURVE",
"382 -7 CURVE SMOOTH"
);
}
);
width = 748;
},
{
layerId = "6D7935D2-FE9A-430A-A298-15DA7AF44FAE";
paths = (
{
closed = 1;
nodes = (
"546 -7 OFFCURVE",
"662 74 OFFCURVE",
"712 208 CURVE",
"644 223 LINE",
"599 115 OFFCURVE",
"509 55 OFFCURVE",
"390 55 CURVE SMOOTH",
"237 55 OFFCURVE",
"120 168 OFFCURVE",
"120 345 CURVE SMOOTH",
"120 523 OFFCURVE",
"237 635 OFFCURVE",
"390 635 CURVE SMOOTH",
"517 635 OFFCURVE",
"600 568 OFFCURVE",
"642 453 CURVE",
"710 474 LINE",
"663 618 OFFCURVE",
"542 697 OFFCURVE",
"390 697 CURVE SMOOTH",
"196 697 OFFCURVE",
"48 550 OFFCURVE",
"48 345 CURVE SMOOTH",
"48 140 OFFCURVE",
"196 -7 OFFCURVE",
"390 -7 CURVE SMOOTH"
);
}
);
width = 771;
}
);
unicode = 0043;
userData = {
com.schriftgestaltung.Glyphs.ColorIndex = 4;
com.typesupply.AccentFactory.yCoordinates = {
bottom = {
name = origin;
type = glyphMetric;
};
top = {
name = capHeight;
type = fontInfo;
};
};
};
},
{
color = 4;
glyphname = Cacute;
lastChange = "2024-08-04 20:52:25 +0000";
layers = (
{
layerId = "4D0F633C-81E1-4D6C-A640-637CE706A5C5";
paths = (
{
closed = 1;
nodes = (
"274 827 LINE",
"274 743 LINE",
"495 852 LINE",
"495 949 LINE"
);
},
{
closed = 1;
nodes = (
"532 -7 OFFCURVE",
"668 70 OFFCURVE",
"716 215 CURVE",
"608 240 LINE",
"571 151 OFFCURVE",
"484 92 OFFCURVE",
"392 92 CURVE SMOOTH",
"254 92 OFFCURVE",
"154 191 OFFCURVE",
"154 348 CURVE SMOOTH",
"154 504 OFFCURVE",
"257 602 OFFCURVE",
"395 602 CURVE SMOOTH",
"495 602 OFFCURVE",
"567 543 OFFCURVE",
"602 449 CURVE",
"708 482 LINE",
"664 624 OFFCURVE",
"541 702 OFFCURVE",
"392 702 CURVE SMOOTH",
"196 702 OFFCURVE",
"37 555 OFFCURVE",
"37 348 CURVE SMOOTH",
"37 139 OFFCURVE",
"196 -7 OFFCURVE",
"392 -7 CURVE SMOOTH"
);
}
);
width = 761;
},
{
layerId = "86171893-955A-4CD1-BD1B-2F7A53CC85DC";
paths = (
{
closed = 1;
nodes = (
"245 880 LINE",
"245 747 LINE",
"495 845 LINE",
"495 993 LINE"
);
},
{
closed = 1;
nodes = (
"554 -7 OFFCURVE",
"679 90 OFFCURVE",
"716 245 CURVE",
"521 291 LINE",
"496 208 OFFCURVE",
"453 173 OFFCURVE",
"379 173 CURVE SMOOTH",
"288 173 OFFCURVE",
"232 244 OFFCURVE",
"232 353 CURVE SMOOTH",
"232 460 OFFCURVE",
"288 532 OFFCURVE",
"379 532 CURVE SMOOTH",
"441 532 OFFCURVE",
"491 506 OFFCURVE",
"517 418 CURVE",
"710 478 LINE",
"666 620 OFFCURVE",
"545 712 OFFCURVE",
"382 712 CURVE SMOOTH",
"176 712 OFFCURVE",
"32 567 OFFCURVE",
"32 353 CURVE SMOOTH",
"32 145 OFFCURVE",
"168 -7 OFFCURVE",
"382 -7 CURVE SMOOTH"
);
}
);
width = 748;
},
{
layerId = "6D7935D2-FE9A-430A-A298-15DA7AF44FAE";
paths = (
{
closed = 1;
nodes = (
"288 790 LINE",
"288 736 LINE",
"493 855 LINE",
"493 918 LINE"
);
},
{
closed = 1;
nodes = (
"546 -7 OFFCURVE",
"662 74 OFFCURVE",
"712 208 CURVE",
"644 223 LINE",
"599 115 OFFCURVE",
"509 55 OFFCURVE",
"390 55 CURVE SMOOTH",
"237 55 OFFCURVE",
"120 168 OFFCURVE",
"120 345 CURVE SMOOTH",
"120 523 OFFCURVE",
"237 636 OFFCURVE",
"390 636 CURVE SMOOTH",
"517 636 OFFCURVE",
"600 568 OFFCURVE",
"642 453 CURVE",
"710 474 LINE",
"663 618 OFFCURVE",
"542 697 OFFCURVE",
"390 697 CURVE SMOOTH",
"196 697 OFFCURVE",
"48 550 OFFCURVE",
"48 345 CURVE SMOOTH",
"48 140 OFFCURVE",
"196 -7 OFFCURVE",
"390 -7 CURVE SMOOTH"
);
}
);
width = 771;
}
);
unicode = 0106;
userData = {
com.schriftgestaltung.Glyphs.ColorIndex = 8;
};
},
{
color = 4;
glyphname = Ccaron;
lastChange = "2024-08-04 20:52:30 +0000";
layers = (
{
layerId = "4D0F633C-81E1-4D6C-A640-637CE706A5C5";
paths = (
{
closed = 1;
nodes = (
"392 829 LINE",
"249 915 LINE",
"249 826 LINE",
"392 743 LINE",
"535 826 LINE",
"535 915 LINE"
);
},
{
closed = 1;
nodes = (
"532 -7 OFFCURVE",
"668 70 OFFCURVE",
"716 215 CURVE",
"608 240 LINE",
"571 151 OFFCURVE",
"484 92 OFFCURVE",
"392 92 CURVE SMOOTH",
"254 92 OFFCURVE",
"154 191 OFFCURVE",
"154 348 CURVE SMOOTH",
"154 504 OFFCURVE",
"257 602 OFFCURVE",
"395 602 CURVE SMOOTH",
"495 602 OFFCURVE",
"567 543 OFFCURVE",
"602 449 CURVE",
"708 482 LINE",
"664 624 OFFCURVE",
"541 702 OFFCURVE",
"392 702 CURVE SMOOTH",
"196 702 OFFCURVE",
"37 555 OFFCURVE",
"37 348 CURVE SMOOTH",
"37 139 OFFCURVE",
"196 -7 OFFCURVE",
"392 -7 CURVE SMOOTH"
);
}
);
width = 761;
},
{
layerId = "86171893-955A-4CD1-BD1B-2F7A53CC85DC";
paths = (
{
closed = 1;
nodes = (
"373 868 LINE",
"212 955 LINE",
"212 824 LINE",
"373 747 LINE",
"532 824 LINE",
"532 955 LINE"
);
},
{
closed = 1;
nodes = (
"554 -7 OFFCURVE",
"679 90 OFFCURVE",
"716 245 CURVE",
"521 291 LINE",
"496 208 OFFCURVE",
"453 173 OFFCURVE",
"379 173 CURVE SMOOTH",
"288 173 OFFCURVE",
"232 244 OFFCURVE",
"232 353 CURVE SMOOTH",
"232 460 OFFCURVE",
"288 532 OFFCURVE",
"379 532 CURVE SMOOTH",
"441 532 OFFCURVE",
"491 506 OFFCURVE",
"517 418 CURVE",
"710 478 LINE",
"666 620 OFFCURVE",
"545 712 OFFCURVE",
"382 712 CURVE SMOOTH",
"176 712 OFFCURVE",
"32 567 OFFCURVE",
"32 353 CURVE SMOOTH",
"32 145 OFFCURVE",
"168 -7 OFFCURVE",
"382 -7 CURVE SMOOTH"
);
}
);
width = 748;
},
{
layerId = "6D7935D2-FE9A-430A-A298-15DA7AF44FAE";
paths = (
{
closed = 1;
nodes = (
"401 806 LINE",
"267 889 LINE",
"267 833 LINE",
"401 751 LINE",
"535 833 LINE",
"535 889 LINE"
);
},
{
closed = 1;
nodes = (
"546 -7 OFFCURVE",
"662 74 OFFCURVE",
"712 208 CURVE",
"644 223 LINE",
"599 115 OFFCURVE",
"509 55 OFFCURVE",
"390 55 CURVE SMOOTH",
"237 55 OFFCURVE",
"120 168 OFFCURVE",
"120 345 CURVE SMOOTH",
"120 523 OFFCURVE",
"237 636 OFFCURVE",
"390 636 CURVE SMOOTH",
"517 636 OFFCURVE",
"600 568 OFFCURVE",
"642 453 CURVE",
"710 474 LINE",
"663 618 OFFCURVE",
"542 697 OFFCURVE",
"390 697 CURVE SMOOTH",
"196 697 OFFCURVE",
"48 550 OFFCURVE",
"48 345 CURVE SMOOTH",
"48 140 OFFCURVE",
"196 -7 OFFCURVE",
"390 -7 CURVE SMOOTH"
);
}
);
width = 771;
}
);
unicode = 010C;
userData = {
com.schriftgestaltung.Glyphs.ColorIndex = 8;
};
},
{
color = 4;
glyphname = Ccedilla;
lastChange = "2024-08-04 20:52:35 +0000";
layers = (
{
layerId = "4D0F633C-81E1-4D6C-A640-637CE706A5C5";
paths = (
{
closed = 1;
nodes = (
"427 7 LINE",
"352 7 LINE",
"352 -116 LINE",
"407 -116 LINE SMOOTH",
"442 -116 OFFCURVE",
"463 -123 OFFCURVE",
"463 -153 CURVE SMOOTH",
"463 -183 OFFCURVE",
"442 -190 OFFCURVE",
"407 -190 CURVE SMOOTH",
"298 -190 LINE",
"298 -262 LINE",
"430 -262 LINE SMOOTH",
"501 -262 OFFCURVE",
"557 -221 OFFCURVE",
"557 -153 CURVE SMOOTH",
"557 -84 OFFCURVE",
"501 -48 OFFCURVE",
"427 -48 CURVE"
);
},
{
closed = 1;
nodes = (
"532 -7 OFFCURVE",
"668 70 OFFCURVE",
"716 215 CURVE",
"608 240 LINE",
"571 151 OFFCURVE",
"484 92 OFFCURVE",
"392 92 CURVE SMOOTH",
"254 92 OFFCURVE",
"154 191 OFFCURVE",
"154 348 CURVE SMOOTH",
"154 504 OFFCURVE",
"257 602 OFFCURVE",
"395 602 CURVE SMOOTH",
"495 602 OFFCURVE",
"567 543 OFFCURVE",
"602 449 CURVE",
"708 482 LINE",
"664 624 OFFCURVE",
"541 702 OFFCURVE",
"392 702 CURVE SMOOTH",
"196 702 OFFCURVE",
"37 555 OFFCURVE",
"37 348 CURVE SMOOTH",
"37 139 OFFCURVE",
"196 -7 OFFCURVE",
"392 -7 CURVE SMOOTH"
);
}
);
width = 761;
},
{
layerId = "86171893-955A-4CD1-BD1B-2F7A53CC85DC";
paths = (
{
closed = 1;
nodes = (
"437 7 LINE",
"321 7 LINE",
"321 -124 LINE",
"399 -124 LINE SMOOTH",
"420 -124 OFFCURVE",
"432 -130 OFFCURVE",
"432 -145 CURVE SMOOTH",
"432 -159 OFFCURVE",
"420 -166 OFFCURVE",
"399 -166 CURVE SMOOTH",
"259 -166 LINE",
"259 -269 LINE",
"422 -269 LINE SMOOTH",
"490 -269 OFFCURVE",
"567 -239 OFFCURVE",
"567 -150 CURVE SMOOTH",
"567 -61 OFFCURVE",
"491 -32 OFFCURVE",
"437 -32 CURVE"
);
},
{
closed = 1;
nodes = (
"554 -7 OFFCURVE",
"679 90 OFFCURVE",
"716 245 CURVE",
"521 291 LINE",
"496 208 OFFCURVE",
"453 173 OFFCURVE",
"379 173 CURVE SMOOTH",
"288 173 OFFCURVE",
"232 244 OFFCURVE",
"232 353 CURVE SMOOTH",
"232 460 OFFCURVE",
"288 532 OFFCURVE",
"379 532 CURVE SMOOTH",
"441 532 OFFCURVE",
"491 506 OFFCURVE",
"517 418 CURVE",
"710 478 LINE",
"666 620 OFFCURVE",
"545 712 OFFCURVE",
"382 712 CURVE SMOOTH",
"176 712 OFFCURVE",
"32 567 OFFCURVE",
"32 353 CURVE SMOOTH",
"32 145 OFFCURVE",
"168 -7 OFFCURVE",
"382 -7 CURVE SMOOTH"
);
}
);
width = 748;
},
{
layerId = "6D7935D2-FE9A-430A-A298-15DA7AF44FAE";
paths = (
{
closed = 1;
nodes = (
"420 7 LINE",
"371 7 LINE",
"371 -112 LINE",
"417 -112 LINE SMOOTH",
"467 -112 OFFCURVE",
"489 -129 OFFCURVE",
"489 -160 CURVE SMOOTH",
"489 -194 OFFCURVE",
"467 -211 OFFCURVE",
"417 -211 CURVE SMOOTH",
"331 -211 LINE",
"331 -258 LINE",
"431 -258 LINE SMOOTH",
"501 -258 OFFCURVE",
"548 -220 OFFCURVE",
"548 -160 CURVE SMOOTH",
"548 -98 OFFCURVE",
"498 -65 OFFCURVE",
"420 -67 CURVE"
);
},
{
closed = 1;
nodes = (
"546 -7 OFFCURVE",
"662 74 OFFCURVE",
"712 208 CURVE",
"644 223 LINE",
"599 115 OFFCURVE",
"509 55 OFFCURVE",
"390 55 CURVE SMOOTH",
"237 55 OFFCURVE",
"120 168 OFFCURVE",
"120 345 CURVE SMOOTH",
"120 523 OFFCURVE",
"237 636 OFFCURVE",
"390 636 CURVE SMOOTH",
"517 636 OFFCURVE",
"600 568 OFFCURVE",
"642 453 CURVE",
"710 474 LINE",
"663 618 OFFCURVE",
"542 697 OFFCURVE",
"390 697 CURVE SMOOTH",
"196 697 OFFCURVE",
"48 550 OFFCURVE",
"48 345 CURVE SMOOTH",
"48 140 OFFCURVE",
"196 -7 OFFCURVE",
"390 -7 CURVE SMOOTH"
);
}
);
width = 771;
}
);
unicode = 00C7;
userData = {
com.schriftgestaltung.Glyphs.ColorIndex = 4;
};
},
{
color = 4;
glyphname = Cdotaccent;
lastChange = "2024-08-04 20:52:39 +0000";
layers = (
{
layerId = "4D0F633C-81E1-4D6C-A640-637CE706A5C5";
paths = (
{
closed = 1;
nodes = (
"332 799 OFFCURVE",
"358 773 OFFCURVE",
"392 773 CURVE SMOOTH",
"425 773 OFFCURVE",
"452 799 OFFCURVE",
"452 833 CURVE SMOOTH",
"452 866 OFFCURVE",
"425 893 OFFCURVE",
"392 893 CURVE SMOOTH",
"358 893 OFFCURVE",
"332 866 OFFCURVE",
"332 833 CURVE SMOOTH"
);
},
{
closed = 1;
nodes = (
"532 -7 OFFCURVE",
"668 70 OFFCURVE",
"716 215 CURVE",
"608 240 LINE",
"571 151 OFFCURVE",
"484 92 OFFCURVE",
"392 92 CURVE SMOOTH",
"254 92 OFFCURVE",
"154 191 OFFCURVE",
"154 348 CURVE SMOOTH",
"154 504 OFFCURVE",
"257 602 OFFCURVE",
"395 602 CURVE SMOOTH",
"495 602 OFFCURVE",
"567 543 OFFCURVE",
"602 449 CURVE",
"708 482 LINE",
"664 624 OFFCURVE",
"541 702 OFFCURVE",
"392 702 CURVE SMOOTH",
"196 702 OFFCURVE",
"37 555 OFFCURVE",
"37 348 CURVE SMOOTH",
"37 139 OFFCURVE",
"196 -7 OFFCURVE",
"392 -7 CURVE SMOOTH"
);
}
);
width = 761;
},
{
layerId = "86171893-955A-4CD1-BD1B-2F7A53CC85DC";
paths = (
{
closed = 1;
nodes = (
"292 802 OFFCURVE",
"326 768 OFFCURVE",
"371 768 CURVE SMOOTH",
"417 768 OFFCURVE",
"452 802 OFFCURVE",
"452 847 CURVE SMOOTH",
"452 893 OFFCURVE",
"417 928 OFFCURVE",
"371 928 CURVE SMOOTH",
"326 928 OFFCURVE",
"292 893 OFFCURVE",
"292 847 CURVE SMOOTH"
);
},
{
closed = 1;
nodes = (
"554 -7 OFFCURVE",
"679 90 OFFCURVE",
"716 245 CURVE",
"521 291 LINE",
"496 208 OFFCURVE",
"453 173 OFFCURVE",
"379 173 CURVE SMOOTH",
"288 173 OFFCURVE",
"232 244 OFFCURVE",
"232 353 CURVE SMOOTH",
"232 460 OFFCURVE",
"288 532 OFFCURVE",
"379 532 CURVE SMOOTH",
"441 532 OFFCURVE",
"491 506 OFFCURVE",
"517 418 CURVE",
"710 478 LINE",
"666 620 OFFCURVE",
"545 712 OFFCURVE",
"382 712 CURVE SMOOTH",
"176 712 OFFCURVE",
"32 567 OFFCURVE",
"32 353 CURVE SMOOTH",
"32 145 OFFCURVE",
"168 -7 OFFCURVE",
"382 -7 CURVE SMOOTH"
);
}
);
width = 748;
},
{
layerId = "6D7935D2-FE9A-430A-A298-15DA7AF44FAE";
paths = (
{
closed = 1;
nodes = (
"355 828 OFFCURVE",
"376 807 OFFCURVE",
"401 807 CURVE SMOOTH",
"426 807 OFFCURVE",
"447 828 OFFCURVE",
"447 853 CURVE SMOOTH",
"447 878 OFFCURVE",
"426 899 OFFCURVE",
"401 899 CURVE SMOOTH",
"376 899 OFFCURVE",
"355 878 OFFCURVE",
"355 853 CURVE SMOOTH"
);
},
{
closed = 1;
nodes = (
"546 -7 OFFCURVE",
"662 74 OFFCURVE",
"712 208 CURVE",
"644 223 LINE",
"599 115 OFFCURVE",
"509 55 OFFCURVE",
"390 55 CURVE SMOOTH",
"237 55 OFFCURVE",
"120 168 OFFCURVE",
"120 345 CURVE SMOOTH",
"120 523 OFFCURVE",
"237 636 OFFCURVE",
"390 636 CURVE SMOOTH",
"517 636 OFFCURVE",
"600 568 OFFCURVE",
"642 453 CURVE",
"710 474 LINE",
"663 618 OFFCURVE",
"542 697 OFFCURVE",
"390 697 CURVE SMOOTH",
"196 697 OFFCURVE",
"48 550 OFFCURVE",
"48 345 CURVE SMOOTH",
"48 140 OFFCURVE",
"196 -7 OFFCURVE",
"390 -7 CURVE SMOOTH"
);
}
);
width = 771;
}
);
unicode = 010A;
},
{
color = 4;
glyphname = D;
lastChange = "2024-08-04 17:24:52 +0000";
layers = (
{
anchors = (
{
name = top;
position = "{355, 696}";
}
);
layerId = "4D0F633C-81E1-4D6C-A640-637CE706A5C5";
paths = (
{
closed = 1;
nodes = (
"302 695 CURVE SMOOTH",
"75 695 LINE",
"75 0 LINE",
"302 0 LINE SMOOTH",
"525 0 OFFCURVE",
"671 131 OFFCURVE",
"671 345 CURVE SMOOTH",
"671 560 OFFCURVE",
"525 695 OFFCURVE"
);
},
{
closed = 1;
nodes = (
"189 93 LINE",
"189 602 LINE",
"302 602 LINE SMOOTH",
"466 602 OFFCURVE",
"554 504 OFFCURVE",
"554 345 CURVE SMOOTH",
"554 187 OFFCURVE",
"466 93 OFFCURVE",
"302 93 CURVE SMOOTH"
);
}
);
width = 709;
},
{
anchors = (
{
name = top;
position = "{358, 707}";
}
);
layerId = "86171893-955A-4CD1-BD1B-2F7A53CC85DC";
paths = (
{
closed = 1;
nodes = (
"335 705 CURVE SMOOTH",
"56 705 LINE",
"56 0 LINE",
"335 0 LINE SMOOTH",
"560 0 OFFCURVE",
"703 149 OFFCURVE",
"703 353 CURVE SMOOTH",
"703 560 OFFCURVE",
"560 705 OFFCURVE"
);
},
{
closed = 1;
nodes = (
"252 173 LINE",
"252 535 LINE",
"320 535 LINE SMOOTH",
"433 535 OFFCURVE",
"504 470 OFFCURVE",
"504 353 CURVE SMOOTH",
"504 237 OFFCURVE",
"433 173 OFFCURVE",
"320 173 CURVE SMOOTH"
);
}
);
width = 735;
},
{
anchors = (
{
name = top;
position = "{348, 690}";
}
);
layerId = "6D7935D2-FE9A-430A-A298-15DA7AF44FAE";
paths = (
{
closed = 1;
nodes = (
"287 690 CURVE",
"80 690 LINE",
"80 0 LINE",
"287 0 LINE",
"520 0 OFFCURVE",
"657 127 OFFCURVE",
"657 344 CURVE",
"657 558 OFFCURVE",
"520 690 OFFCURVE"
);
},
{
closed = 1;
nodes = (
"150 58 LINE",
"150 632 LINE",
"287 632 LINE",
"485 632 OFFCURVE",
"586 520 OFFCURVE",
"586 344 CURVE",
"586 164 OFFCURVE",
"485 58 OFFCURVE",
"287 58 CURVE"
);
}
);
width = 706;
}
);
unicode = 0044;
userData = {
com.schriftgestaltung.Glyphs.ColorIndex = 4;
com.typemytype.robofont.guides = (
{
angle = 0;
isGlobal = 0;
magnetic = 5;
x = 122;
y = 684;
}
);
com.typesupply.AccentFactory.yCoordinates = {
bottom = {
name = origin;
type = glyphMetric;
};
top = {
name = capHeight;
type = fontInfo;
};
};
};
},
{
color = 4;
glyphname = Eth;
lastChange = "2024-08-04 18:49:54 +0000";
layers = (
{
layerId = "4D0F633C-81E1-4D6C-A640-637CE706A5C5";
paths = (
{
closed = 1;
nodes = (
"9 293 LINE",
"379 293 LINE",
"379 398 LINE",
"9 398 LINE"
);
},
{
closed = 1;
nodes = (
"314 695 CURVE SMOOTH",
"86 695 LINE",
"86 0 LINE",
"314 0 LINE SMOOTH",
"537 0 OFFCURVE",
"682 131 OFFCURVE",
"682 345 CURVE SMOOTH",
"682 560 OFFCURVE",
"537 695 OFFCURVE"
);
},
{
closed = 1;
nodes = (
"201 87 LINE",
"201 603 LINE",
"314 603 LINE SMOOTH",
"477 603 OFFCURVE",
"565 504 OFFCURVE",
"565 345 CURVE SMOOTH",
"565 187 OFFCURVE",
"477 87 OFFCURVE",
"314 87 CURVE SMOOTH"
);
}
);
width = 720;
},
{
layerId = "86171893-955A-4CD1-BD1B-2F7A53CC85DC";
paths = (
{
closed = 1;
nodes = (
"2 274 LINE",
"397 274 LINE",
"397 433 LINE",
"2 433 LINE"
);
},
{
closed = 1;
nodes = (
"338 705 CURVE SMOOTH",
"58 705 LINE",
"58 0 LINE",
"338 0 LINE SMOOTH",
"563 0 OFFCURVE",
"706 149 OFFCURVE",
"706 353 CURVE SMOOTH",
"706 560 OFFCURVE",
"563 705 OFFCURVE"
);
},
{
closed = 1;
nodes = (
"255 172 LINE",
"255 535 LINE",
"322 535 LINE SMOOTH",
"436 535 OFFCURVE",
"506 470 OFFCURVE",
"506 353 CURVE SMOOTH",
"506 237 OFFCURVE",
"436 172 OFFCURVE",
"322 172 CURVE SMOOTH"
);
}
);
width = 738;
},
{
layerId = "6D7935D2-FE9A-430A-A298-15DA7AF44FAE";
paths = (
{
closed = 1;
nodes = (
"9 316 LINE",
"379 316 LINE",
"379 381 LINE",
"9 381 LINE"
);
},
{
closed = 1;
nodes = (
"287 690 CURVE",
"80 690 LINE",
"80 0 LINE",
"287 0 LINE",
"520 0 OFFCURVE",
"657 127 OFFCURVE",
"657 344 CURVE",
"657 558 OFFCURVE",
"520 690 OFFCURVE"
);
},
{
closed = 1;
nodes = (
"150 58 LINE",
"150 632 LINE",
"287 632 LINE",
"485 632 OFFCURVE",
"586 520 OFFCURVE",
"586 344 CURVE",
"586 164 OFFCURVE",
"485 58 OFFCURVE",
"287 58 CURVE"
);
}
);
width = 705;
}
);
unicode = 00D0;
userData = {
com.schriftgestaltung.Glyphs.ColorIndex = 4;
};
},
{
color = 4;
glyphname = E;
lastChange = "2024-08-04 17:25:57 +0000";
layers = (
{
anchors = (
{
name = bottom;
position = "{262, 0}";
},
{
name = ogonek;
position = "{459, 0}";
},
{
name = top;
position = "{262, 696}";
}
);
layerId = "4D0F633C-81E1-4D6C-A640-637CE706A5C5";
paths = (
{
closed = 1;
nodes = (
"459 695 LINE",
"75 695 LINE",
"75 0 LINE",
"459 0 LINE",
"459 93 LINE",
"189 93 LINE",
"189 306 LINE",
"429 306 LINE",
"429 399 LINE",
"189 399 LINE",
"189 602 LINE",
"459 602 LINE"
);
}
);
width = 524;
},
{
anchors = (
{
name = bottom;
position = "{277, 0}";
},
{
name = ogonek;
position = "{277, 0}";
},
{
name = top;
position = "{277, 707}";
}
);
layerId = "86171893-955A-4CD1-BD1B-2F7A53CC85DC";
paths = (
{
closed = 1;
nodes = (
"507 705 LINE",
"56 705 LINE",
"56 0 LINE",
"507 0 LINE",
"507 157 LINE",
"252 157 LINE",
"252 284 LINE",
"477 284 LINE",
"477 433 LINE",
"252 433 LINE",
"252 548 LINE",
"507 548 LINE"
);
}
);
width = 548;
},
{
anchors = (
{
name = bottom;
position = "{248, 0}";
},
{
name = ogonek;
position = "{445, 0}";
},
{
name = top;
position = "{248, 690}";
}
);
layerId = "6D7935D2-FE9A-430A-A298-15DA7AF44FAE";
paths = (
{
closed = 1;
nodes = (
"445 690 LINE",
"80 690 LINE",
"80 0 LINE",
"445 0 LINE",
"445 58 LINE",
"150 58 LINE",
"150 318 LINE",
"415 318 LINE",
"415 376 LINE",
"150 376 LINE",
"150 632 LINE",
"445 632 LINE"
);
}
);
width = 503;
}
);
unicode = 0045;
userData = {
com.schriftgestaltung.Glyphs.ColorIndex = 4;
com.typesupply.AccentFactory.yCoordinates = {
bottom = {
name = origin;
type = glyphMetric;
};
top = {
name = capHeight;
type = fontInfo;
};
};
};
},
{
color = 4;
glyphname = F;
lastChange = "2024-08-04 17:26:47 +0000";
layers = (
{
layerId = "4D0F633C-81E1-4D6C-A640-637CE706A5C5";
paths = (
{
closed = 1;
nodes = (
"75 0 LINE",
"189 0 LINE",
"189 304 LINE",
"419 304 LINE",
"419 397 LINE",
"189 397 LINE",
"189 602 LINE",
"484 602 LINE",
"484 695 LINE",
"75 695 LINE"
);
}
);
width = 515;
},
{
layerId = "86171893-955A-4CD1-BD1B-2F7A53CC85DC";
paths = (
{
closed = 1;
nodes = (
"56 0 LINE",
"252 0 LINE",
"252 276 LINE",
"460 276 LINE",
"460 425 LINE",
"252 425 LINE",
"252 549 LINE",
"534 549 LINE",
"534 705 LINE",
"56 705 LINE"
);
}
);
width = 561;
},
{
layerId = "6D7935D2-FE9A-430A-A298-15DA7AF44FAE";
paths = (
{
closed = 1;
nodes = (
"80 0 LINE",
"150 0 LINE",
"150 318 LINE",
"410 318 LINE",
"410 376 LINE",
"150 376 LINE",
"150 632 LINE",
"458 632 LINE",
"458 690 LINE",
"80 690 LINE"
);
}
);
width = 493;
}
);
unicode = 0046;
userData = {
com.schriftgestaltung.Glyphs.ColorIndex = 4;
com.typesupply.AccentFactory.yCoordinates = {
bottom = {
name = origin;
type = glyphMetric;
};
top = {
name = capHeight;
type = fontInfo;
};
};
};
},
{
color = 4;
glyphname = G;
lastChange = "2024-08-04 17:32:36 +0000";
layers = (
{
anchors = (
{
name = bottom;
position = "{386, 0}";
},
{
name = top;
position = "{386, 696}";
}
);
layerId = "4D0F633C-81E1-4D6C-A640-637CE706A5C5";
paths = (
{
closed = 1;
nodes = (
"702 503 LINE",
"657 628 OFFCURVE",
"542 702 OFFCURVE",
"392 702 CURVE SMOOTH",
"196 702 OFFCURVE",
"37 557 OFFCURVE",
"37 348 CURVE SMOOTH",
"37 139 OFFCURVE",
"198 -7 OFFCURVE",
"388 -7 CURVE",
"545 -7 OFFCURVE",
"627 124 OFFCURVE",
"635 164 CURVE",
"635 0 LINE",
"739 0 LINE",
"739 392 LINE",
"366 392 LINE",
"366 299 LINE",
"615 299 LINE",
"608 208 OFFCURVE",
"522 92 OFFCURVE",
"394 92 CURVE SMOOTH",
"239 92 OFFCURVE",
"154 196 OFFCURVE",
"154 348 CURVE SMOOTH",
"154 500 OFFCURVE",
"253 602 OFFCURVE",
"389 602 CURVE SMOOTH",
"484 602 OFFCURVE",
"558 550 OFFCURVE",
"588 462 CURVE"
);
}
);
width = 776;
},
{
anchors = (
{
name = bottom;
position = "{379, 0}";
},
{
name = top;
position = "{379, 707}";
}
);
layerId = "86171893-955A-4CD1-BD1B-2F7A53CC85DC";
paths = (
{
closed = 1;
nodes = (
"707 513 LINE",
"658 650 OFFCURVE",
"535 712 OFFCURVE",
"389 712 CURVE SMOOTH",
"182 712 OFFCURVE",
"32 568 OFFCURVE",
"32 354 CURVE SMOOTH",
"32 140 OFFCURVE",
"184 -7 OFFCURVE",
"360 -7 CURVE SMOOTH",
"466 -7 OFFCURVE",
"537 55 OFFCURVE",
"561 115 CURVE",
"561 0 LINE",
"725 0 LINE",
"725 402 LINE",
"359 402 LINE",
"359 253 LINE",
"546 253 LINE",
"517 201 OFFCURVE",
"468 168 OFFCURVE",
"409 168 CURVE SMOOTH",
"313 168 OFFCURVE",
"232 233 OFFCURVE",
"232 354 CURVE SMOOTH",
"232 462 OFFCURVE",
"291 532 OFFCURVE",
"390 532 CURVE SMOOTH",
"458 532 OFFCURVE",
"499 497 OFFCURVE",
"518 444 CURVE"
);
}
);
width = 757;
},
{
anchors = (
{
name = bottom;
position = "{398, 0}";
},
{
name = top;
position = "{398, 690}";
}
);
layerId = "6D7935D2-FE9A-430A-A298-15DA7AF44FAE";
paths = (
{
closed = 1;
nodes = (
"704 493 LINE",
"650 622 OFFCURVE",
"534 697 OFFCURVE",
"394 697 CURVE SMOOTH",
"187 697 OFFCURVE",
"48 550 OFFCURVE",
"48 345 CURVE SMOOTH",
"48 140 OFFCURVE",
"196 -7 OFFCURVE",
"390 -7 CURVE",
"547 -7 OFFCURVE",
"640 131 OFFCURVE",
"659 207 CURVE",
"659 0 LINE",
"725 0 LINE",
"725 368 LINE",
"366 368 LINE",
"366 309 LINE",
"641 309 LINE",
"631 200 OFFCURVE",
"540 55 OFFCURVE",
"394 55 CURVE SMOOTH",
"241 55 OFFCURVE",
"120 169 OFFCURVE",
"120 345 CURVE SMOOTH",
"120 523 OFFCURVE",
"239 635 OFFCURVE",
"394 635 CURVE SMOOTH",
"528 635 OFFCURVE",
"611 531 OFFCURVE",
"635 468 CURVE"
);
}
);
width = 773;
}
);
unicode = 0047;
userData = {
com.schriftgestaltung.Glyphs.ColorIndex = 4;
com.typemytype.robofont.layerData = {
b = {
anchors = (
{
name = top;
x = 411;
y = 683;
},
{
name = bottom;
x = 411;
y = 0;
}
);
components = (
);
contours = (
{
points = (
{
segmentType = curve;
smooth = 1;
x = 60;
y = 341;
},
{
smooth = 0;
x = 60;
y = 138;
},
{
smooth = 0;
x = 214;
y = -6;
},
{
segmentType = curve;
smooth = 1;
x = 407;
y = -6;
},
{
smooth = 0;
x = 590;
y = -6;
},
{
smooth = 0;
x = 747;
y = 110;
},
{
segmentType = curve;
smooth = 0;
x = 764;
y = 341;
},
{
segmentType = line;
smooth = 0;
x = 764;
y = 360;
},
{
segmentType = line;
smooth = 0;
x = 381;
y = 360;
},
{
segmentType = line;
smooth = 0;
x = 381;
y = 341;
},
{
segmentType = line;
smooth = 0;
x = 747;
y = 341;
},
{
smooth = 0;
x = 733;
y = 132;
},
{
smooth = 0;
x = 600;
y = 6;
},
{
segmentType = curve;
smooth = 1;
x = 407;
y = 6;
},
{
smooth = 0;
x = 226;
y = 6;
},
{
smooth = 0;
x = 80;
y = 137;
},
{
segmentType = curve;
smooth = 1;
x = 80;
y = 341;
},
{
smooth = 0;
x = 80;
y = 547;
},
{
smooth = 0;
x = 226;
y = 677;
},
{
segmentType = curve;
smooth = 1;
x = 407;
y = 677;
},
{
smooth = 0;
x = 528;
y = 677;
},
{
smooth = 0;
x = 633;
y = 618;
},
{
segmentType = curve;
smooth = 0;
x = 683;
y = 525;
},
{
segmentType = line;
smooth = 0;
x = 709;
y = 525;
},
{
smooth = 0;
x = 648;
y = 637;
},
{
smooth = 0;
x = 537;
y = 690;
},
{
segmentType = curve;
smooth = 1;
x = 407;
y = 690;
},
{
smooth = 0;
x = 214;
y = 690;
},
{
smooth = 0;
x = 60;
y = 546;
}
);
}
);
lib = {
};
name = G;
unicodes = (
);
width = 792;
};
};
com.typesupply.AccentFactory.yCoordinates = {
bottom = {
name = origin;
type = glyphMetric;
};
top = {
name = capHeight;
type = fontInfo;
};
};
};
},
{
color = 4;
glyphname = Gcommaaccent;
lastChange = "2024-08-04 20:54:05 +0000";
layers = (
{
anchors = (
{
name = _bottom;
position = "{386, 0}";
}
);
components = (
{
name = G;
}
);
layerId = "4D0F633C-81E1-4D6C-A640-637CE706A5C5";
paths = (
{
closed = 1;
nodes = (
"399 -278 OFFCURVE",
"475 -224 OFFCURVE",
"475 -133 CURVE SMOOTH",
"475 -89 OFFCURVE",
"443 -45 OFFCURVE",
"396 -45 CURVE SMOOTH",
"356 -45 OFFCURVE",
"324 -72 OFFCURVE",
"324 -113 CURVE SMOOTH",
"324 -155 OFFCURVE",
"354 -172 OFFCURVE",
"386 -172 CURVE",
"399 -172 OFFCURVE",
"413 -168 OFFCURVE",
"420 -161 CURVE",
"418 -184 OFFCURVE",
"375 -224 OFFCURVE",
"321 -219 CURVE",
"321 -271 LINE"
);
}
);
width = 776;
},
{
anchors = (
{
name = _bottom;
position = "{380, 0}";
}
);
components = (
{
alignment = -1;
name = G;
}
);
layerId = "86171893-955A-4CD1-BD1B-2F7A53CC85DC";
paths = (
{
closed = 1;
nodes = (
"385 -326 OFFCURVE",
"484 -273 OFFCURVE",
"484 -152 CURVE SMOOTH",
"484 -94 OFFCURVE",
"442 -38 OFFCURVE",
"382 -38 CURVE SMOOTH",
"329 -38 OFFCURVE",
"288 -73 OFFCURVE",
"288 -126 CURVE SMOOTH",
"288 -180 OFFCURVE",
"325 -202 OFFCURVE",
"369 -202 CURVE",
"378 -202 OFFCURVE",
"386 -201 OFFCURVE",
"394 -198 CURVE",
"378 -227 OFFCURVE",
"335 -243 OFFCURVE",
"284 -241 CURVE",
"284 -318 LINE"
);
}
);
width = 757;
},
{
anchors = (
{
name = _bottom;
position = "{391, -4}";
}
);
components = (
{
alignment = -1;
name = G;
}
);
layerId = "6D7935D2-FE9A-430A-A298-15DA7AF44FAE";
paths = (
{
closed = 1;
nodes = (
"401 -230 OFFCURVE",
"454 -186 OFFCURVE",
"454 -118 CURVE SMOOTH",
"454 -86 OFFCURVE",
"431 -51 OFFCURVE",
"398 -51 CURVE SMOOTH",
"368 -51 OFFCURVE",
"345 -72 OFFCURVE",
"345 -100 CURVE SMOOTH",
"345 -130 OFFCURVE",
"365 -143 OFFCURVE",
"391 -143 CURVE",
"399 -143 OFFCURVE",
"408 -141 OFFCURVE",
"415 -136 CURVE",
"411 -165 OFFCURVE",
"380 -188 OFFCURVE",
"344 -186 CURVE",
"344 -226 LINE"
);
}
);
width = 773;
}
);
unicode = 0122;
userData = {
com.schriftgestaltung.Glyphs.ColorIndex = 8;
com.typesupply.AccentFactory.compileType = manual;
};
},
{
color = 4;
glyphname = H;
lastChange = "2024-08-04 17:33:20 +0000";
layers = (
{
guideLines = (
{
position = "{132, 695}";
}
);
layerId = "4D0F633C-81E1-4D6C-A640-637CE706A5C5";
paths = (
{
closed = 1;
nodes = (
"75 0 LINE",
"189 0 LINE",
"189 695 LINE",
"75 695 LINE"
);
},
{
closed = 1;
nodes = (
"516 0 LINE",
"630 0 LINE",
"630 695 LINE",
"516 695 LINE"
);
},
{
closed = 1;
nodes = (
"169 304 LINE",
"543 304 LINE",
"543 397 LINE",
"169 397 LINE"
);
}
);
width = 705;
},
{
layerId = "86171893-955A-4CD1-BD1B-2F7A53CC85DC";
paths = (
{
closed = 1;
nodes = (
"56 0 LINE",
"252 0 LINE",
"252 705 LINE",
"56 705 LINE"
);
},
{
closed = 1;
nodes = (
"491 0 LINE",
"687 0 LINE",
"687 705 LINE",
"491 705 LINE"
);
},
{
closed = 1;
nodes = (
"232 283 LINE",
"514 283 LINE",
"514 440 LINE",
"232 440 LINE"
);
}
);
width = 743;
},
{
layerId = "6D7935D2-FE9A-430A-A298-15DA7AF44FAE";
paths = (
{
closed = 1;
nodes = (
"80 0 LINE",
"150 0 LINE",
"150 690 LINE",
"80 690 LINE"
);
},
{
closed = 1;
nodes = (
"529 0 LINE",
"599 0 LINE",
"599 690 LINE",
"529 690 LINE"
);
},
{
closed = 1;
nodes = (
"134 323 LINE",
"549 323 LINE",
"549 381 LINE",
"134 381 LINE"
);
}
);
width = 679;
}
);
unicode = 0048;
userData = {
com.schriftgestaltung.Glyphs.ColorIndex = 4;
com.typesupply.AccentFactory.yCoordinates = {
bottom = {
name = origin;
type = glyphMetric;
};
top = {
name = capHeight;
type = fontInfo;
};
};
};
},
{
color = 4;
glyphname = I;
lastChange = "2024-08-04 20:02:12 +0000";
layers = (
{
anchors = (
{
name = ogonek;
position = "{258, 1}";
},
{
name = top;
position = "{201, 696}";
}
);
layerId = "4D0F633C-81E1-4D6C-A640-637CE706A5C5";
paths = (
{
closed = 1;
nodes = (
"337 0 LINE",
"337 93 LINE",
"258 93 LINE",
"258 602 LINE",
"337 602 LINE",
"337 695 LINE",
"65 695 LINE",
"65 602 LINE",
"144 602 LINE",
"144 93 LINE",
"65 93 LINE",
"65 0 LINE"
);
}
);
width = 402;
},
{
anchors = (
{
name = ogonek;
position = "{328, 0}";
},
{
name = top;
position = "{231, 707}";
}
);
layerId = "86171893-955A-4CD1-BD1B-2F7A53CC85DC";
paths = (
{
closed = 1;
nodes = (
"404 0 LINE",
"404 156 LINE",
"328 156 LINE",
"328 549 LINE",
"404 549 LINE",
"404 705 LINE",
"56 705 LINE",
"56 549 LINE",
"132 549 LINE",
"132 156 LINE",
"56 156 LINE",
"56 0 LINE"
);
}
);
width = 460;
},
{
anchors = (
{
name = ogonek;
position = "{202, 1}";
},
{
name = top;
position = "{167, 690}";
}
);
layerId = "6D7935D2-FE9A-430A-A298-15DA7AF44FAE";
paths = (
{
closed = 1;
nodes = (
"273 0 LINE",
"273 58 LINE",
"202 58 LINE",
"202 632 LINE",
"273 632 LINE",
"273 690 LINE",
"60 690 LINE",
"60 632 LINE",
"132 632 LINE",
"132 58 LINE",
"60 58 LINE",
"60 0 LINE"
);
}
);
width = 333;
}
);
unicode = 0049;
userData = {
com.schriftgestaltung.Glyphs.ColorIndex = 4;
com.typemytype.robofont.guides = (
{
angle = 0;
isGlobal = 0;
magnetic = 5;
x = 83;
y = 684;
}
);
com.typesupply.AccentFactory.yCoordinates = {
bottom = {
name = origin;
type = glyphMetric;
};
top = {
name = capHeight;
type = fontInfo;
};
};
};
},
{
color = 4;
glyphname = J;
lastChange = "2024-08-04 17:34:13 +0000";
layers = (
{
layerId = "4D0F633C-81E1-4D6C-A640-637CE706A5C5";
paths = (
{
closed = 1;
nodes = (
"369 -7 OFFCURVE",
"454 68 OFFCURVE",
"454 194 CURVE SMOOTH",
"454 695 LINE",
"339 695 LINE",
"339 194 LINE SMOOTH",
"339 136 OFFCURVE",
"310 94 OFFCURVE",
"249 94 CURVE SMOOTH",
"201 94 OFFCURVE",
"165 135 OFFCURVE",
"152 204 CURVE",
"44 170 LINE",
"59 78 OFFCURVE",
"129 -7 OFFCURVE",
"249 -7 CURVE SMOOTH"
);
}
);
width = 564;
},
{
layerId = "86171893-955A-4CD1-BD1B-2F7A53CC85DC";
paths = (
{
closed = 1;
nodes = (
"429 -7 OFFCURVE",
"521 78 OFFCURVE",
"521 238 CURVE SMOOTH",
"521 705 LINE",
"324 705 LINE",
"324 238 LINE SMOOTH",
"324 193 OFFCURVE",
"306 169 OFFCURVE",
"269 169 CURVE SMOOTH",
"230 169 OFFCURVE",
"209 195 OFFCURVE",
"200 255 CURVE",
"18 200 LINE",
"39 70 OFFCURVE",
"136 -7 OFFCURVE",
"278 -7 CURVE SMOOTH"
);
}
);
width = 582;
},
{
layerId = "6D7935D2-FE9A-430A-A298-15DA7AF44FAE";
paths = (
{
closed = 1;
nodes = (
"330 -7 OFFCURVE",
"402 64 OFFCURVE",
"402 170 CURVE SMOOTH",
"402 690 LINE",
"332 690 LINE",
"332 170 LINE SMOOTH",
"332 112 OFFCURVE",
"302 55 OFFCURVE",
"224 55 CURVE SMOOTH",
"162 55 OFFCURVE",
"119 102 OFFCURVE",
"105 185 CURVE",
"37 168 LINE",
"40 113 OFFCURVE",
"90 -7 OFFCURVE",
"227 -7 CURVE SMOOTH"
);
}
);
width = 498;
}
);
unicode = 004A;
userData = {
com.schriftgestaltung.Glyphs.ColorIndex = 4;
com.typesupply.AccentFactory.yCoordinates = {
bottom = {
name = origin;
type = glyphMetric;
};
top = {
name = capHeight;
type = fontInfo;
};
};
};
},
{
color = 4;
glyphname = K;
lastChange = "2024-08-05 09:08:07 +0000";
layers = (
{
layerId = "4D0F633C-81E1-4D6C-A640-637CE706A5C5";
paths = (
{
closed = 1;
nodes = (
"189 0 LINE",
"189 308 LINE",
"356 308 OFFCURVE",
"474 197 OFFCURVE",
"487 0 CURVE",
"609 0 LINE",
"595 188 OFFCURVE",
"487 317 OFFCURVE",
"362 357 CURVE",
"466 392 OFFCURVE",
"583 551 OFFCURVE",
"587 695 CURVE",
"465 695 LINE",
"454 515 OFFCURVE",
"350 404 OFFCURVE",
"189 404 CURVE",
"189 695 LINE",
"75 695 LINE",
"75 0 LINE"
);
}
);
width = 629;
},
{
layerId = "86171893-955A-4CD1-BD1B-2F7A53CC85DC";
paths = (
{
closed = 1;
nodes = (
"252 0 LINE",
"252 277 LINE",
"395 277 OFFCURVE",
"487 175 OFFCURVE",
"498 0 CURVE",
"710 0 LINE",
"682 193 OFFCURVE",
"582 325 OFFCURVE",
"441 356 CURVE",
"580 403 OFFCURVE",
"672 533 OFFCURVE",
"687 705 CURVE",
"475 705 LINE",
"466 539 OFFCURVE",
"383 437 OFFCURVE",
"252 437 CURVE",
"252 705 LINE",
"56 705 LINE",
"56 0 LINE"
);
}
);
width = 722;
},
{
layerId = "6D7935D2-FE9A-430A-A298-15DA7AF44FAE";
paths = (
{
closed = 1;
nodes = (
"150 0 LINE",
"150 324 LINE",
"346 313 OFFCURVE",
"476 217 OFFCURVE",
"486 0 CURVE",
"560 0 LINE",
"545 193 OFFCURVE",
"435 328 OFFCURVE",
"284 356 CURVE",
"420 388 OFFCURVE",
"517 538 OFFCURVE",
"535 690 CURVE",
"461 690 LINE",
"439 521 OFFCURVE",
"356 394 OFFCURVE",
"150 384 CURVE",
"150 690 LINE",
"80 690 LINE",
"80 0 LINE"
);
}
);
width = 583;
}
);
unicode = 004B;
userData = {
com.schriftgestaltung.Glyphs.ColorIndex = 4;
com.typesupply.AccentFactory.yCoordinates = {
bottom = {
name = origin;
type = glyphMetric;
};
top = {
name = capHeight;
type = fontInfo;
};
};
};
},
{
color = 4;
glyphname = Kcommaaccent;
lastChange = "2024-07-30 13:44:24 +0000";
layers = (
{
anchors = (
{
name = _bottom;
position = "{317, 0}";
}
);
components = (
{
name = K;
}
);
layerId = "4D0F633C-81E1-4D6C-A640-637CE706A5C5";
paths = (
{
closed = 1;
nodes = (
"345 -278 OFFCURVE",
"421 -224 OFFCURVE",
"421 -133 CURVE SMOOTH",
"421 -89 OFFCURVE",
"389 -45 OFFCURVE",
"342 -45 CURVE SMOOTH",
"302 -45 OFFCURVE",
"270 -72 OFFCURVE",
"270 -113 CURVE SMOOTH",
"270 -155 OFFCURVE",
"300 -172 OFFCURVE",
"332 -172 CURVE",
"345 -172 OFFCURVE",
"359 -168 OFFCURVE",
"366 -161 CURVE",
"364 -184 OFFCURVE",
"321 -224 OFFCURVE",
"267 -219 CURVE",
"267 -271 LINE"
);
}
);
width = 635;
},
{
anchors = (
{
name = _bottom;
position = "{380, 0}";
}
);
components = (
{
alignment = -1;
name = K;
}
);
layerId = "86171893-955A-4CD1-BD1B-2F7A53CC85DC";
paths = (
{
closed = 1;
nodes = (
"391 -326 OFFCURVE",
"490 -273 OFFCURVE",
"490 -152 CURVE SMOOTH",
"490 -94 OFFCURVE",
"448 -38 OFFCURVE",
"388 -38 CURVE SMOOTH",
"335 -38 OFFCURVE",
"294 -73 OFFCURVE",
"294 -126 CURVE SMOOTH",
"294 -180 OFFCURVE",
"331 -202 OFFCURVE",
"375 -202 CURVE",
"384 -202 OFFCURVE",
"392 -201 OFFCURVE",
"400 -198 CURVE",
"384 -227 OFFCURVE",
"341 -243 OFFCURVE",
"290 -241 CURVE",
"290 -318 LINE"
);
}
);
width = 759;
},
{
anchors = (
{
name = _bottom;
position = "{281, 0}";
}
);
components = (
{
alignment = -1;
name = K;
}
);
layerId = "6D7935D2-FE9A-430A-A298-15DA7AF44FAE";
paths = (
{
closed = 1;
nodes = (
"305 -230 OFFCURVE",
"358 -186 OFFCURVE",
"358 -118 CURVE SMOOTH",
"358 -86 OFFCURVE",
"335 -51 OFFCURVE",
"302 -51 CURVE SMOOTH",
"272 -51 OFFCURVE",
"249 -72 OFFCURVE",
"249 -100 CURVE SMOOTH",
"249 -130 OFFCURVE",
"269 -143 OFFCURVE",
"295 -143 CURVE",
"303 -143 OFFCURVE",
"312 -141 OFFCURVE",
"319 -136 CURVE",
"315 -165 OFFCURVE",
"284 -188 OFFCURVE",
"248 -186 CURVE",
"248 -226 LINE"
);
}
);
width = 583;
}
);
unicode = 0136;
userData = {
com.schriftgestaltung.Glyphs.ColorIndex = 8;
com.typesupply.AccentFactory.compileType = manual;
};
},
{
color = 4;
glyphname = L;
lastChange = "2024-08-04 17:39:33 +0000";
layers = (
{
anchors = (
{
name = bottom;
position = "{248, 0}";
},
{
name = commaaccent;
position = "{248, 10}";
},
{
name = top;
position = "{222, 696}";
},
{
name = topright;
position = "{424, 696}";
}
);
layerId = "4D0F633C-81E1-4D6C-A640-637CE706A5C5";
paths = (
{
closed = 1;
nodes = (
"75 695 LINE",
"75 0 LINE",
"424 0 LINE",
"424 92 LINE",
"189 92 LINE",
"189 695 LINE"
);
}
);
width = 444;
},
{
anchors = (
{
name = bottom;
position = "{261, 0}";
},
{
name = commaaccent;
position = "{261, 10}";
},
{
name = top;
position = "{229, 707}";
},
{
name = topright;
position = "{456, 707}";
}
);
layerId = "86171893-955A-4CD1-BD1B-2F7A53CC85DC";
paths = (
{
closed = 1;
nodes = (
"56 705 LINE",
"56 0 LINE",
"471 0 LINE",
"471 150 LINE",
"252 150 LINE",
"252 705 LINE"
);
}
);
width = 491;
},
{
anchors = (
{
name = bottom;
position = "{235, 0}";
},
{
name = commaaccent;
position = "{235, 10}";
},
{
name = top;
position = "{213, 690}";
},
{
name = topright;
position = "{401, 690}";
}
);
layerId = "6D7935D2-FE9A-430A-A298-15DA7AF44FAE";
paths = (
{
closed = 1;
nodes = (
"80 690 LINE",
"80 0 LINE",
"401 0 LINE",
"401 57 LINE",
"150 57 LINE",
"150 690 LINE"
);
}
);
width = 421;
}
);
unicode = 004C;
userData = {
com.schriftgestaltung.Glyphs.ColorIndex = 4;
com.typesupply.AccentFactory.yCoordinates = {
bottom = {
name = origin;
type = glyphMetric;
};
top = {
name = capHeight;
type = fontInfo;
};
};
};
},
{
color = 4;
glyphname = Lcaron;
lastChange = "2024-07-30 11:35:41 +0000";
layers = (
{
anchors = (
{
name = _bottom;
position = "{352, 741}";
}
);
components = (
{
name = L;
}
);
layerId = "4D0F633C-81E1-4D6C-A640-637CE706A5C5";
paths = (
{
closed = 1;
nodes = (
"349 471 OFFCURVE",
"425 525 OFFCURVE",
"425 616 CURVE SMOOTH",
"425 660 OFFCURVE",
"393 704 OFFCURVE",
"346 704 CURVE SMOOTH",
"306 704 OFFCURVE",
"274 677 OFFCURVE",
"274 636 CURVE SMOOTH",
"274 594 OFFCURVE",
"304 577 OFFCURVE",
"336 577 CURVE SMOOTH",
"349 577 OFFCURVE",
"363 581 OFFCURVE",
"370 588 CURVE",
"368 565 OFFCURVE",
"325 525 OFFCURVE",
"271 530 CURVE",
"271 478 LINE"
);
}
);
width = 464;
},
{
anchors = (
{
name = _bottom;
position = "{426, 743}";
}
);
components = (
{
alignment = -1;
name = L;
}
);
layerId = "86171893-955A-4CD1-BD1B-2F7A53CC85DC";
paths = (
{
closed = 1;
nodes = (
"422 421 OFFCURVE",
"521 474 OFFCURVE",
"521 595 CURVE SMOOTH",
"521 653 OFFCURVE",
"479 709 OFFCURVE",
"419 709 CURVE SMOOTH",
"366 709 OFFCURVE",
"325 674 OFFCURVE",
"325 621 CURVE SMOOTH",
"325 567 OFFCURVE",
"362 545 OFFCURVE",
"406 545 CURVE SMOOTH",
"415 545 OFFCURVE",
"423 546 OFFCURVE",
"431 549 CURVE",
"415 520 OFFCURVE",
"372 504 OFFCURVE",
"321 506 CURVE",
"321 429 LINE"
);
}
);
width = 553;
},
{
anchors = (
{
name = _bottom;
position = "{308, 741}";
}
);
components = (
{
alignment = -1;
name = L;
}
);
layerId = "6D7935D2-FE9A-430A-A298-15DA7AF44FAE";
paths = (
{
closed = 1;
nodes = (
"314 524 OFFCURVE",
"367 568 OFFCURVE",
"367 636 CURVE SMOOTH",
"367 668 OFFCURVE",
"344 703 OFFCURVE",
"311 703 CURVE SMOOTH",
"281 703 OFFCURVE",
"258 682 OFFCURVE",
"258 654 CURVE SMOOTH",
"258 624 OFFCURVE",
"278 611 OFFCURVE",
"304 611 CURVE SMOOTH",
"312 611 OFFCURVE",
"321 613 OFFCURVE",
"328 618 CURVE",
"324 589 OFFCURVE",
"293 566 OFFCURVE",
"257 568 CURVE",
"257 528 LINE"
);
}
);
width = 431;
}
);
unicode = 013D;
userData = {
com.schriftgestaltung.Glyphs.ColorIndex = 8;
com.typesupply.AccentFactory.compileType = manual;
};
},
{
color = 4;
glyphname = Lcommaaccent;
lastChange = "2024-08-04 20:57:25 +0000";
layers = (
{
anchors = (
{
name = _commaaccent;
position = "{248, 0}";
}
);
components = (
{
name = L;
}
);
layerId = "4D0F633C-81E1-4D6C-A640-637CE706A5C5";
paths = (
{
closed = 1;
nodes = (
"250 -278 OFFCURVE",
"326 -224 OFFCURVE",
"326 -133 CURVE SMOOTH",
"326 -89 OFFCURVE",
"294 -45 OFFCURVE",
"247 -45 CURVE SMOOTH",
"207 -45 OFFCURVE",
"175 -72 OFFCURVE",
"175 -113 CURVE SMOOTH",
"175 -155 OFFCURVE",
"205 -172 OFFCURVE",
"237 -172 CURVE",
"250 -172 OFFCURVE",
"264 -168 OFFCURVE",
"271 -161 CURVE",
"269 -184 OFFCURVE",
"226 -224 OFFCURVE",
"172 -219 CURVE",
"172 -271 LINE"
);
}
);
width = 444;
},
{
anchors = (
{
name = _commaaccent;
position = "{280, 8}";
}
);
components = (
{
alignment = -1;
name = L;
}
);
layerId = "86171893-955A-4CD1-BD1B-2F7A53CC85DC";
paths = (
{
closed = 1;
nodes = (
"263 -326 OFFCURVE",
"362 -273 OFFCURVE",
"362 -152 CURVE SMOOTH",
"362 -94 OFFCURVE",
"320 -38 OFFCURVE",
"260 -38 CURVE SMOOTH",
"207 -38 OFFCURVE",
"166 -73 OFFCURVE",
"166 -126 CURVE SMOOTH",
"166 -180 OFFCURVE",
"203 -202 OFFCURVE",
"247 -202 CURVE",
"256 -202 OFFCURVE",
"264 -201 OFFCURVE",
"272 -198 CURVE",
"256 -227 OFFCURVE",
"213 -243 OFFCURVE",
"162 -241 CURVE",
"162 -318 LINE"
);
}
);
width = 491;
},
{
anchors = (
{
name = _commaaccent;
position = "{240, 0}";
}
);
components = (
{
alignment = -1;
name = L;
}
);
layerId = "6D7935D2-FE9A-430A-A298-15DA7AF44FAE";
paths = (
{
closed = 1;
nodes = (
"245 -230 OFFCURVE",
"298 -186 OFFCURVE",
"298 -118 CURVE SMOOTH",
"298 -86 OFFCURVE",
"275 -51 OFFCURVE",
"242 -51 CURVE SMOOTH",
"212 -51 OFFCURVE",
"189 -72 OFFCURVE",
"189 -100 CURVE SMOOTH",
"189 -130 OFFCURVE",
"209 -143 OFFCURVE",
"235 -143 CURVE",
"243 -143 OFFCURVE",
"252 -141 OFFCURVE",
"259 -136 CURVE",
"255 -165 OFFCURVE",
"224 -188 OFFCURVE",
"188 -186 CURVE",
"188 -226 LINE"
);
}
);
width = 421;
}
);
unicode = 013B;
userData = {
com.schriftgestaltung.Glyphs.ColorIndex = 8;
com.typesupply.AccentFactory.compileType = manual;
};
},
{
color = 4;
glyphname = Ldot;
lastChange = "2024-08-04 20:57:34 +0000";
layers = (
{
layerId = "4D0F633C-81E1-4D6C-A640-637CE706A5C5";
paths = (
{
closed = 1;
nodes = (
"424 0 LINE",
"424 92 LINE",
"189 92 LINE",
"189 695 LINE",
"75 695 LINE",
"75 0 LINE"
);
},
{
closed = 1;
nodes = (
"385 315 OFFCURVE",
"412 341 OFFCURVE",
"412 375 CURVE SMOOTH",
"412 408 OFFCURVE",
"385 435 OFFCURVE",
"352 435 CURVE SMOOTH",
"318 435 OFFCURVE",
"292 408 OFFCURVE",
"292 375 CURVE SMOOTH",
"292 341 OFFCURVE",
"318 315 OFFCURVE",
"352 315 CURVE SMOOTH"
);
}
);
width = 444;
},
{
layerId = "86171893-955A-4CD1-BD1B-2F7A53CC85DC";
paths = (
{
closed = 1;
nodes = (
"471 0 LINE",
"471 150 LINE",
"252 150 LINE",
"252 705 LINE",
"56 705 LINE",
"56 0 LINE"
);
},
{
closed = 1;
nodes = (
"445 324 OFFCURVE",
"480 359 OFFCURVE",
"480 403 CURVE SMOOTH",
"480 449 OFFCURVE",
"445 484 OFFCURVE",
"399 484 CURVE SMOOTH",
"355 484 OFFCURVE",
"320 449 OFFCURVE",
"320 403 CURVE SMOOTH",
"320 359 OFFCURVE",
"355 324 OFFCURVE",
"399 324 CURVE SMOOTH"
);
}
);
width = 500;
},
{
layerId = "6D7935D2-FE9A-430A-A298-15DA7AF44FAE";
paths = (
{
closed = 1;
nodes = (
"401 0 LINE",
"401 57 LINE",
"150 57 LINE",
"150 690 LINE",
"80 690 LINE",
"80 0 LINE"
);
},
{
closed = 1;
nodes = (
"363 330 OFFCURVE",
"384 351 OFFCURVE",
"384 376 CURVE SMOOTH",
"384 401 OFFCURVE",
"363 422 OFFCURVE",
"338 422 CURVE SMOOTH",
"312 422 OFFCURVE",
"292 401 OFFCURVE",
"292 376 CURVE SMOOTH",
"292 351 OFFCURVE",
"312 330 OFFCURVE",
"338 330 CURVE SMOOTH"
);
}
);
width = 421;
}
);
unicode = 013F;
},
{
color = 4;
glyphname = Lslash;
lastChange = "2024-08-04 20:57:47 +0000";
layers = (
{
layerId = "4D0F633C-81E1-4D6C-A640-637CE706A5C5";
paths = (
{
closed = 1;
nodes = (
"9 267 LINE",
"293 359 LINE",
"293 446 LINE",
"9 353 LINE"
);
},
{
closed = 1;
nodes = (
"86 695 LINE",
"86 0 LINE",
"435 0 LINE",
"435 87 LINE",
"201 87 LINE",
"201 695 LINE"
);
}
);
width = 444;
},
{
layerId = "86171893-955A-4CD1-BD1B-2F7A53CC85DC";
paths = (
{
closed = 1;
nodes = (
"10 247 LINE",
"346 343 LINE",
"346 513 LINE",
"10 417 LINE"
);
},
{
closed = 1;
nodes = (
"70 705 LINE",
"70 0 LINE",
"485 0 LINE",
"485 149 LINE",
"267 149 LINE",
"267 705 LINE"
);
}
);
width = 505;
},
{
layerId = "6D7935D2-FE9A-430A-A298-15DA7AF44FAE";
paths = (
{
closed = 1;
nodes = (
"9 289 LINE",
"290 399 LINE",
"290 454 LINE",
"9 344 LINE"
);
},
{
closed = 1;
nodes = (
"95 690 LINE",
"95 0 LINE",
"416 0 LINE",
"416 55 LINE",
"165 55 LINE",
"165 690 LINE"
);
}
);
width = 430;
}
);
unicode = 0141;
userData = {
com.schriftgestaltung.Glyphs.ColorIndex = 4;
};
},
{
color = 4;
glyphname = M;
lastChange = "2024-08-04 19:01:31 +0000";
layers = (
{
layerId = "4D0F633C-81E1-4D6C-A640-637CE706A5C5";
paths = (
{
closed = 1;
nodes = (
"75 0 LINE",
"189 0 LINE",
"189 584 LINE",
"143 579 LINE",
"402 0 LINE",
"481 0 LINE",
"739 579 LINE",
"693 584 LINE",
"693 0 LINE",
"807 0 LINE",
"807 695 LINE",
"685 695 LINE",
"421 104 LINE",
"462 104 LINE",
"198 695 LINE",
"75 695 LINE"
);
}
);
width = 882;
},
{
layerId = "86171893-955A-4CD1-BD1B-2F7A53CC85DC";
paths = (
{
closed = 1;
nodes = (
"56 0 LINE",
"252 0 LINE",
"252 580 LINE",
"192 568 LINE",
"386 0 LINE",
"550 0 LINE",
"744 568 LINE",
"683 580 LINE",
"683 0 LINE",
"879 0 LINE",
"879 705 LINE",
"643 705 LINE",
"426 131 LINE",
"509 146 LINE",
"293 705 LINE",
"56 705 LINE"
);
}
);
width = 935;
},
{
layerId = "6D7935D2-FE9A-430A-A298-15DA7AF44FAE";
paths = (
{
closed = 1;
nodes = (
"80 0 LINE",
"150 0 LINE",
"150 610 LINE",
"123 609 LINE",
"396 0 LINE",
"447 0 LINE",
"719 609 LINE",
"693 610 LINE",
"693 0 LINE",
"763 0 LINE",
"763 690 LINE",
"688 690 LINE",
"408 62 LINE",
"435 62 LINE",
"154 690 LINE",
"80 690 LINE"
);
}
);
width = 842;
}
);
unicode = 004D;
userData = {
com.schriftgestaltung.Glyphs.ColorIndex = 4;
com.typesupply.AccentFactory.yCoordinates = {
bottom = {
name = origin;
type = glyphMetric;
};
top = {
name = capHeight;
type = fontInfo;
};
};
};
},
{
color = 4;
glyphname = N;
lastChange = "2024-08-04 19:01:28 +0000";
layers = (
{
anchors = (
{
name = bottom;
position = "{361, 0}";
},
{
name = top;
position = "{361, 696}";
}
);
layerId = "4D0F633C-81E1-4D6C-A640-637CE706A5C5";
paths = (
{
closed = 1;
nodes = (
"532 695 LINE",
"532 177 LINE",
"189 695 LINE",
"75 695 LINE",
"75 0 LINE",
"189 0 LINE",
"189 519 LINE",
"532 0 LINE",
"646 0 LINE",
"646 695 LINE"
);
}
);
width = 721;
},
{
anchors = (
{
name = bottom;
position = "{382, 0}";
},
{
name = top;
position = "{382, 707}";
}
);
layerId = "86171893-955A-4CD1-BD1B-2F7A53CC85DC";
paths = (
{
closed = 1;
nodes = (
"513 705 LINE",
"513 306 LINE",
"252 705 LINE",
"56 705 LINE",
"56 0 LINE",
"252 0 LINE",
"252 394 LINE",
"513 0 LINE",
"709 0 LINE",
"709 705 LINE"
);
}
);
width = 765;
},
{
anchors = (
{
name = bottom;
position = "{344, 0}";
},
{
name = top;
position = "{344, 690}";
}
);
layerId = "6D7935D2-FE9A-430A-A298-15DA7AF44FAE";
paths = (
{
closed = 1;
nodes = (
"537 690 LINE",
"537 112 LINE",
"150 690 LINE",
"80 690 LINE",
"80 0 LINE",
"150 0 LINE",
"150 579 LINE",
"537 0 LINE",
"607 0 LINE",
"607 690 LINE"
);
}
);
width = 686;
}
);
unicode = 004E;
userData = {
com.schriftgestaltung.Glyphs.ColorIndex = 4;
com.typesupply.AccentFactory.yCoordinates = {
bottom = {
name = origin;
type = glyphMetric;
};
top = {
name = capHeight;
type = fontInfo;
};
};
};
},
{
color = 4;
glyphname = Ncommaaccent;
lastChange = "2024-08-04 20:58:23 +0000";
layers = (
{
anchors = (
{
name = _bottom;
position = "{361, 0}";
}
);
components = (
{
name = N;
}
);
layerId = "4D0F633C-81E1-4D6C-A640-637CE706A5C5";
paths = (
{
closed = 1;
nodes = (
"372 -278 OFFCURVE",
"448 -224 OFFCURVE",
"448 -133 CURVE SMOOTH",
"448 -89 OFFCURVE",
"416 -45 OFFCURVE",
"369 -45 CURVE SMOOTH",
"329 -45 OFFCURVE",
"297 -72 OFFCURVE",
"297 -113 CURVE SMOOTH",
"297 -155 OFFCURVE",
"327 -172 OFFCURVE",
"359 -172 CURVE",
"372 -172 OFFCURVE",
"386 -168 OFFCURVE",
"393 -161 CURVE",
"391 -184 OFFCURVE",
"348 -224 OFFCURVE",
"294 -219 CURVE",
"294 -271 LINE"
);
}
);
width = 721;
},
{
anchors = (
{
name = _bottom;
position = "{402, 0}";
}
);
components = (
{
alignment = -1;
name = N;
}
);
layerId = "86171893-955A-4CD1-BD1B-2F7A53CC85DC";
paths = (
{
closed = 1;
nodes = (
"403 -326 OFFCURVE",
"502 -273 OFFCURVE",
"502 -152 CURVE SMOOTH",
"502 -94 OFFCURVE",
"460 -38 OFFCURVE",
"400 -38 CURVE SMOOTH",
"347 -38 OFFCURVE",
"306 -73 OFFCURVE",
"306 -126 CURVE SMOOTH",
"306 -180 OFFCURVE",
"343 -202 OFFCURVE",
"387 -202 CURVE",
"396 -202 OFFCURVE",
"404 -201 OFFCURVE",
"412 -198 CURVE",
"396 -227 OFFCURVE",
"353 -243 OFFCURVE",
"302 -241 CURVE",
"302 -318 LINE"
);
}
);
width = 765;
},
{
anchors = (
{
name = _bottom;
position = "{343, 0}";
}
);
components = (
{
alignment = -1;
name = N;
}
);
layerId = "6D7935D2-FE9A-430A-A298-15DA7AF44FAE";
paths = (
{
closed = 1;
nodes = (
"349 -230 OFFCURVE",
"402 -186 OFFCURVE",
"402 -118 CURVE SMOOTH",
"402 -86 OFFCURVE",
"379 -51 OFFCURVE",
"346 -51 CURVE SMOOTH",
"316 -51 OFFCURVE",
"293 -72 OFFCURVE",
"293 -100 CURVE SMOOTH",
"293 -130 OFFCURVE",
"313 -143 OFFCURVE",
"339 -143 CURVE",
"347 -143 OFFCURVE",
"356 -141 OFFCURVE",
"363 -136 CURVE",
"359 -165 OFFCURVE",
"328 -188 OFFCURVE",
"292 -186 CURVE",
"292 -226 LINE"
);
}
);
width = 686;
}
);
unicode = 0145;
userData = {
com.schriftgestaltung.Glyphs.ColorIndex = 8;
com.typesupply.AccentFactory.compileType = manual;
};
},
{
color = 4;
glyphname = O;
lastChange = "2024-08-04 17:41:33 +0000";
layers = (
{
anchors = (
{
name = top;
position = "{392, 696}";
}
);
layerId = "4D0F633C-81E1-4D6C-A640-637CE706A5C5";
paths = (
{
closed = 1;
nodes = (
"590 -7 OFFCURVE",
"747 140 OFFCURVE",
"747 348 CURVE SMOOTH",
"747 555 OFFCURVE",
"590 702 OFFCURVE",
"392 702 CURVE SMOOTH",
"196 702 OFFCURVE",
"37 555 OFFCURVE",
"37 348 CURVE SMOOTH",
"37 140 OFFCURVE",
"196 -7 OFFCURVE",
"392 -7 CURVE SMOOTH"
);
},
{
closed = 1;
nodes = (
"254 92 OFFCURVE",
"154 192 OFFCURVE",
"154 348 CURVE SMOOTH",
"154 504 OFFCURVE",
"254 602 OFFCURVE",
"392 602 CURVE SMOOTH",
"530 602 OFFCURVE",
"630 504 OFFCURVE",
"630 348 CURVE SMOOTH",
"630 192 OFFCURVE",
"530 92 OFFCURVE",
"392 92 CURVE SMOOTH"
);
}
);
width = 784;
},
{
anchors = (
{
name = top;
position = "{394, 707}";
}
);
layerId = "86171893-955A-4CD1-BD1B-2F7A53CC85DC";
paths = (
{
closed = 1;
nodes = (
"594 -7 OFFCURVE",
"755 143 OFFCURVE",
"755 353 CURVE SMOOTH",
"755 563 OFFCURVE",
"595 712 OFFCURVE",
"394 712 CURVE SMOOTH",
"194 712 OFFCURVE",
"32 563 OFFCURVE",
"32 353 CURVE SMOOTH",
"32 143 OFFCURVE",
"194 -7 OFFCURVE",
"394 -7 CURVE SMOOTH"
);
},
{
closed = 1;
nodes = (
"292 175 OFFCURVE",
"232 246 OFFCURVE",
"232 353 CURVE SMOOTH",
"232 462 OFFCURVE",
"292 532 OFFCURVE",
"394 532 CURVE SMOOTH",
"495 532 OFFCURVE",
"556 462 OFFCURVE",
"556 353 CURVE SMOOTH",
"556 246 OFFCURVE",
"495 175 OFFCURVE",
"394 175 CURVE SMOOTH"
);
}
);
width = 787;
},
{
anchors = (
{
name = top;
position = "{399, 690}";
}
);
layerId = "6D7935D2-FE9A-430A-A298-15DA7AF44FAE";
paths = (
{
closed = 1;
nodes = (
"591 -7 OFFCURVE",
"740 135 OFFCURVE",
"740 345 CURVE",
"740 549 OFFCURVE",
"591 697 OFFCURVE",
"394 697 CURVE",
"198 697 OFFCURVE",
"48 549 OFFCURVE",
"48 345 CURVE",
"48 135 OFFCURVE",
"198 -7 OFFCURVE",
"394 -7 CURVE SMOOTH"
);
},
{
closed = 1;
nodes = (
"239 55 OFFCURVE",
"120 162 OFFCURVE",
"120 345 CURVE",
"120 523 OFFCURVE",
"239 635 OFFCURVE",
"394 635 CURVE",
"549 635 OFFCURVE",
"668 523 OFFCURVE",
"668 345 CURVE",
"668 162 OFFCURVE",
"549 55 OFFCURVE",
"394 55 CURVE"
);
}
);
width = 788;
}
);
unicode = 004F;
userData = {
com.schriftgestaltung.Glyphs.ColorIndex = 4;
com.typemytype.robofont.layerData = {
b = {
anchors = (
{
name = top;
x = 407;
y = 683;
}
);
components = (
);
contours = (
{
points = (
{
segmentType = curve;
smooth = 1;
x = 60;
y = 341;
},
{
smooth = 0;
x = 60;
y = 138;
},
{
smooth = 0;
x = 214;
y = -7;
},
{
segmentType = curve;
smooth = 1;
x = 407;
y = -7;
},
{
smooth = 0;
x = 601;
y = -7;
},
{
smooth = 0;
x = 754;
y = 138;
},
{
segmentType = curve;
smooth = 1;
x = 754;
y = 341;
},
{
smooth = 0;
x = 754;
y = 546;
},
{
smooth = 0;
x = 601;
y = 690;
},
{
segmentType = curve;
smooth = 1;
x = 407;
y = 690;
},
{
smooth = 0;
x = 214;
y = 690;
},
{
smooth = 0;
x = 60;
y = 546;
}
);
},
{
points = (
{
segmentType = curve;
smooth = 1;
x = 733;
y = 341;
},
{
smooth = 0;
x = 733;
y = 137;
},
{
smooth = 0;
x = 588;
y = 4;
},
{
segmentType = curve;
smooth = 1;
x = 407;
y = 4;
},
{
smooth = 0;
x = 226;
y = 4;
},
{
smooth = 0;
x = 80;
y = 137;
},
{
segmentType = curve;
smooth = 1;
x = 80;
y = 341;
},
{
smooth = 0;
x = 80;
y = 547;
},
{
smooth = 0;
x = 226;
y = 677;
},
{
segmentType = curve;
smooth = 1;
x = 407;
y = 677;
},
{
smooth = 0;
x = 588;
y = 677;
},
{
smooth = 0;
x = 733;
y = 547;
}
);
}
);
lib = {
};
name = O;
unicodes = (
);
width = 792;
};
};
com.typesupply.AccentFactory.yCoordinates = {
bottom = {
name = origin;
type = glyphMetric;
};
top = {
name = capHeight;
type = fontInfo;
};
};
};
},
{
color = 4;
glyphname = Oslash;
lastChange = "2024-08-04 17:42:44 +0000";
layers = (
{
components = (
{
name = O;
}
);
layerId = "4D0F633C-81E1-4D6C-A640-637CE706A5C5";
paths = (
{
closed = 1;
nodes = (
"26 0 LINE",
"117 0 LINE",
"758 695 LINE",
"667 695 LINE"
);
}
);
width = 784;
},
{
components = (
{
alignment = -1;
name = O;
transform = "{1, 0, 0, 1, -1, 0}";
}
);
layerId = "86171893-955A-4CD1-BD1B-2F7A53CC85DC";
paths = (
{
closed = 1;
nodes = (
"20 1 LINE",
"130 1 LINE",
"766 705 LINE",
"657 705 LINE"
);
}
);
width = 787;
},
{
components = (
{
alignment = -1;
name = O;
}
);
layerId = "6D7935D2-FE9A-430A-A298-15DA7AF44FAE";
paths = (
{
closed = 1;
nodes = (
"42 0 LINE",
"102 0 LINE",
"745 690 LINE",
"686 690 LINE"
);
}
);
width = 788;
}
);
unicode = 00D8;
userData = {
com.schriftgestaltung.Glyphs.ColorIndex = 4;
};
},
{
color = 4;
glyphname = OE;
lastChange = "2024-08-04 17:43:49 +0000";
layers = (
{
layerId = "4D0F633C-81E1-4D6C-A640-637CE706A5C5";
paths = (
{
closed = 1;
nodes = (
"1014 606 LINE",
"1014 695 LINE",
"630 695 LINE",
"630 589 LINE",
"572 665 OFFCURVE",
"487 702 OFFCURVE",
"382 702 CURVE SMOOTH",
"197 702 OFFCURVE",
"37 557 OFFCURVE",
"37 348 CURVE SMOOTH",
"37 140 OFFCURVE",
"196 -7 OFFCURVE",
"383 -7 CURVE SMOOTH",
"487 -7 OFFCURVE",
"572 32 OFFCURVE",
"630 111 CURVE",
"630 0 LINE",
"1014 0 LINE",
"1014 89 LINE",
"744 89 LINE",
"744 307 LINE",
"984 307 LINE",
"984 395 LINE",
"744 395 LINE",
"744 606 LINE"
);
},
{
closed = 1;
nodes = (
"154 500 OFFCURVE",
"254 598 OFFCURVE",
"392 598 CURVE SMOOTH",
"530 598 OFFCURVE",
"630 500 OFFCURVE",
"630 348 CURVE SMOOTH",
"630 196 OFFCURVE",
"530 96 OFFCURVE",
"392 96 CURVE SMOOTH",
"254 96 OFFCURVE",
"154 196 OFFCURVE",
"154 348 CURVE SMOOTH"
);
}
);
width = 1079;
},
{
layerId = "86171893-955A-4CD1-BD1B-2F7A53CC85DC";
paths = (
{
closed = 1;
nodes = (
"1015 549 LINE",
"1015 705 LINE",
"564 705 LINE",
"564 652 LINE",
"516 694 OFFCURVE",
"449 712 OFFCURVE",
"379 712 CURVE SMOOTH",
"181 712 OFFCURVE",
"32 562 OFFCURVE",
"32 353 CURVE SMOOTH",
"32 143 OFFCURVE",
"181 -7 OFFCURVE",
"379 -7 CURVE SMOOTH",
"449 -5 OFFCURVE",
"516 12 OFFCURVE",
"564 54 CURVE",
"564 0 LINE",
"1015 0 LINE",
"1015 156 LINE",
"760 156 LINE",
"760 284 LINE",
"985 284 LINE",
"985 432 LINE",
"760 432 LINE",
"760 549 LINE"
);
},
{
closed = 1;
nodes = (
"232 460 OFFCURVE",
"292 531 OFFCURVE",
"394 531 CURVE SMOOTH",
"495 531 OFFCURVE",
"556 460 OFFCURVE",
"556 353 CURVE SMOOTH",
"556 246 OFFCURVE",
"495 174 OFFCURVE",
"394 174 CURVE SMOOTH",
"292 174 OFFCURVE",
"232 246 OFFCURVE",
"232 353 CURVE SMOOTH"
);
}
);
width = 1056;
},
{
layerId = "6D7935D2-FE9A-430A-A298-15DA7AF44FAE";
paths = (
{
closed = 1;
nodes = (
"1034 634 LINE",
"1034 690 LINE",
"668 690 LINE",
"668 530 LINE",
"623 635 OFFCURVE",
"517 697 OFFCURVE",
"389 697 CURVE",
"198 697 OFFCURVE",
"48 550 OFFCURVE",
"48 345 CURVE",
"48 135 OFFCURVE",
"198 -7 OFFCURVE",
"389 -7 CURVE",
"517 -7 OFFCURVE",
"623 64 OFFCURVE",
"668 171 CURVE",
"668 0 LINE",
"1034 0 LINE",
"1034 56 LINE",
"738 56 LINE",
"738 321 LINE",
"1004 321 LINE",
"1004 376 LINE",
"738 376 LINE",
"738 634 LINE"
);
},
{
closed = 1;
nodes = (
"120 521 OFFCURVE",
"239 633 OFFCURVE",
"394 633 CURVE",
"549 633 OFFCURVE",
"668 526 OFFCURVE",
"668 345 CURVE",
"668 164 OFFCURVE",
"549 55 OFFCURVE",
"394 55 CURVE",
"239 55 OFFCURVE",
"120 164 OFFCURVE",
"120 345 CURVE"
);
}
);
width = 1092;
}
);
leftMetricsKey = O;
rightMetricsKey = E;
unicode = 0152;
userData = {
com.schriftgestaltung.Glyphs.ColorIndex = 4;
com.typesupply.AccentFactory.yCoordinates = {
bottom = {
name = origin;
type = glyphMetric;
};
top = {
name = capHeight;
type = fontInfo;
};
};
};
},
{
color = 4;
glyphname = P;
lastChange = "2024-08-04 17:44:11 +0000";
layers = (
{
layerId = "4D0F633C-81E1-4D6C-A640-637CE706A5C5";
paths = (
{
closed = 1;
nodes = (
"189 375 LINE",
"189 602 LINE",
"315 602 LINE SMOOTH",
"404 602 OFFCURVE",
"444 560 OFFCURVE",
"444 488 CURVE SMOOTH",
"444 418 OFFCURVE",
"404 375 OFFCURVE",
"315 375 CURVE SMOOTH"
);
},
{
closed = 1;
nodes = (
"561 488 CURVE SMOOTH",
"561 601 OFFCURVE",
"480 695 OFFCURVE",
"315 695 CURVE SMOOTH",
"75 695 LINE",
"75 0 LINE",
"189 0 LINE",
"189 282 LINE",
"315 282 LINE SMOOTH",
"496 282 OFFCURVE",
"561 389 OFFCURVE"
);
}
);
width = 595;
},
{
layerId = "86171893-955A-4CD1-BD1B-2F7A53CC85DC";
paths = (
{
closed = 1;
nodes = (
"252 394 LINE",
"252 547 LINE",
"330 547 LINE SMOOTH",
"389 547 OFFCURVE",
"413 517 OFFCURVE",
"413 470 CURVE SMOOTH",
"413 424 OFFCURVE",
"389 394 OFFCURVE",
"330 394 CURVE SMOOTH"
);
},
{
closed = 1;
nodes = (
"613 470 CURVE SMOOTH",
"613 606 OFFCURVE",
"524 705 OFFCURVE",
"349 705 CURVE SMOOTH",
"56 705 LINE",
"56 0 LINE",
"252 0 LINE",
"252 238 LINE",
"349 238 LINE SMOOTH",
"528 238 OFFCURVE",
"613 347 OFFCURVE"
);
}
);
width = 636;
},
{
layerId = "6D7935D2-FE9A-430A-A298-15DA7AF44FAE";
paths = (
{
closed = 1;
nodes = (
"150 349 LINE",
"150 631 LINE",
"291 631 LINE SMOOTH",
"409 631 OFFCURVE",
"455 579 OFFCURVE",
"455 489 CURVE SMOOTH",
"455 403 OFFCURVE",
"409 349 OFFCURVE",
"291 349 CURVE SMOOTH"
);
},
{
closed = 1;
nodes = (
"527 489 CURVE SMOOTH",
"527 604 OFFCURVE",
"453 690 OFFCURVE",
"291 690 CURVE SMOOTH",
"80 690 LINE",
"80 0 LINE",
"150 0 LINE",
"150 289 LINE",
"291 289 LINE SMOOTH",
"455 289 OFFCURVE",
"527 376 OFFCURVE"
);
}
);
width = 564;
}
);
unicode = 0050;
userData = {
com.schriftgestaltung.Glyphs.ColorIndex = 4;
com.typesupply.AccentFactory.yCoordinates = {
bottom = {
name = origin;
type = glyphMetric;
};
top = {
name = capHeight;
type = fontInfo;
};
};
};
},
{
color = 4;
glyphname = Thorn;
lastChange = "2024-08-04 17:44:50 +0000";
layers = (
{
layerId = "4D0F633C-81E1-4D6C-A640-637CE706A5C5";
paths = (
{
closed = 1;
nodes = (
"189 227 LINE",
"189 462 LINE",
"315 462 LINE SMOOTH",
"404 462 OFFCURVE",
"444 415 OFFCURVE",
"444 344 CURVE SMOOTH",
"444 274 OFFCURVE",
"404 227 OFFCURVE",
"315 227 CURVE SMOOTH"
);
},
{
closed = 1;
nodes = (
"561 344 CURVE SMOOTH",
"561 457 OFFCURVE",
"480 551 OFFCURVE",
"315 551 CURVE SMOOTH",
"188 551 LINE",
"188 695 LINE",
"75 695 LINE",
"75 0 LINE",
"189 0 LINE",
"189 138 LINE",
"315 138 LINE SMOOTH",
"496 138 OFFCURVE",
"561 245 OFFCURVE"
);
}
);
width = 595;
},
{
layerId = "86171893-955A-4CD1-BD1B-2F7A53CC85DC";
paths = (
{
closed = 1;
nodes = (
"252 276 LINE",
"252 431 LINE",
"330 431 LINE SMOOTH",
"389 431 OFFCURVE",
"413 400 OFFCURVE",
"413 353 CURVE SMOOTH",
"413 307 OFFCURVE",
"389 276 OFFCURVE",
"330 276 CURVE SMOOTH"
);
},
{
closed = 1;
nodes = (
"613 353 CURVE SMOOTH",
"613 485 OFFCURVE",
"524 580 OFFCURVE",
"349 580 CURVE SMOOTH",
"251 580 LINE",
"251 705 LINE",
"56 705 LINE",
"56 0 LINE",
"252 0 LINE",
"252 129 LINE",
"349 129 LINE SMOOTH",
"528 129 OFFCURVE",
"613 234 OFFCURVE"
);
}
);
width = 636;
},
{
layerId = "6D7935D2-FE9A-430A-A298-15DA7AF44FAE";
paths = (
{
closed = 1;
nodes = (
"150 201 LINE",
"150 488 LINE",
"291 488 LINE SMOOTH",
"409 488 OFFCURVE",
"455 433 OFFCURVE",
"455 344 CURVE SMOOTH",
"455 258 OFFCURVE",
"409 201 OFFCURVE",
"291 201 CURVE SMOOTH"
);
},
{
closed = 1;
nodes = (
"527 344 CURVE SMOOTH",
"527 459 OFFCURVE",
"453 545 OFFCURVE",
"291 545 CURVE SMOOTH",
"149 545 LINE",
"149 690 LINE",
"80 690 LINE",
"80 0 LINE",
"150 0 LINE",
"150 144 LINE",
"291 144 LINE SMOOTH",
"455 144 OFFCURVE",
"527 230 OFFCURVE"
);
}
);
width = 564;
}
);
unicode = 00DE;
userData = {
com.schriftgestaltung.Glyphs.ColorIndex = 4;
};
},
{
color = 4;
glyphname = Q;
lastChange = "2024-08-04 13:38:06 +0000";
layers = (
{
components = (
{
name = O;
}
);
layerId = "4D0F633C-81E1-4D6C-A640-637CE706A5C5";
paths = (
{
closed = 1;
nodes = (
"699 -118 OFFCURVE",
"719 -115 OFFCURVE",
"733 -109 CURVE",
"733 -9 LINE",
"719 -12 OFFCURVE",
"703 -14 OFFCURVE",
"688 -14 CURVE SMOOTH",
"637 -14 OFFCURVE",
"601 7 OFFCURVE",
"579 62 CURVE",
"487 15 LINE",
"522 -86 OFFCURVE",
"610 -118 OFFCURVE",
"677 -118 CURVE SMOOTH"
);
}
);
width = 776;
},
{
components = (
{
alignment = -1;
name = O;
}
);
layerId = "86171893-955A-4CD1-BD1B-2F7A53CC85DC";
paths = (
{
closed = 1;
nodes = (
"708 -140 OFFCURVE",
"730 -136 OFFCURVE",
"747 -130 CURVE",
"747 39 LINE",
"732 35 OFFCURVE",
"718 34 OFFCURVE",
"706 34 CURVE SMOOTH",
"667 34 OFFCURVE",
"641 47 OFFCURVE",
"617 80 CURVE",
"463 1 LINE",
"504 -105 OFFCURVE",
"615 -140 OFFCURVE",
"684 -140 CURVE SMOOTH"
);
}
);
width = 770;
},
{
components = (
{
alignment = -1;
name = O;
}
);
layerId = "6D7935D2-FE9A-430A-A298-15DA7AF44FAE";
paths = (
{
closed = 1;
nodes = (
"688 -118 OFFCURVE",
"705 -115 OFFCURVE",
"720 -109 CURVE",
"720 -44 LINE",
"703 -48 OFFCURVE",
"687 -50 OFFCURVE",
"672 -50 CURVE SMOOTH",
"617 -50 OFFCURVE",
"572 -19 OFFCURVE",
"549 46 CURVE",
"489 15 LINE",
"520 -76 OFFCURVE",
"602 -118 OFFCURVE",
"669 -118 CURVE SMOOTH"
);
}
);
width = 778;
}
);
unicode = 0051;
userData = {
com.schriftgestaltung.Glyphs.ColorIndex = 4;
com.typesupply.AccentFactory.yCoordinates = {
bottom = {
name = origin;
type = glyphMetric;
};
top = {
name = capHeight;
type = fontInfo;
};
};
};
},
{
color = 4;
glyphname = R;
lastChange = "2024-08-04 21:00:30 +0000";
layers = (
{
layerId = "4D0F633C-81E1-4D6C-A640-637CE706A5C5";
paths = (
{
closed = 1;
nodes = (
"189 0 LINE",
"189 276 LINE",
"264 276 OFFCURVE",
"323 259 OFFCURVE",
"368 230 CURVE SMOOTH",
"443 182 OFFCURVE",
"479 98 OFFCURVE",
"488 0 CURVE",
"610 0 LINE",
"593 157 OFFCURVE",
"516 278 OFFCURVE",
"408 314 CURVE",
"496 335 OFFCURVE",
"561 397 OFFCURVE",
"561 490 CURVE SMOOTH",
"561 602 OFFCURVE",
"479 695 OFFCURVE",
"315 695 CURVE SMOOTH",
"75 695 LINE",
"75 0 LINE"
);
},
{
closed = 1;
nodes = (
"189 602 LINE",
"315 602 LINE SMOOTH",
"398 602 OFFCURVE",
"444 555 OFFCURVE",
"444 487 CURVE SMOOTH",
"444 422 OFFCURVE",
"398 369 OFFCURVE",
"315 369 CURVE SMOOTH",
"189 369 LINE"
);
}
);
width = 670;
},
{
layerId = "86171893-955A-4CD1-BD1B-2F7A53CC85DC";
paths = (
{
closed = 1;
nodes = (
"252 0 LINE",
"252 244 LINE",
"308 242 OFFCURVE",
"350 227 OFFCURVE",
"381 200 CURVE SMOOTH",
"431 158 OFFCURVE",
"452 88 OFFCURVE",
"458 0 CURVE",
"670 0 LINE",
"649 161 OFFCURVE",
"578 267 OFFCURVE",
"479 302 CURVE",
"576 324 OFFCURVE",
"628 402 OFFCURVE",
"628 485 CURVE SMOOTH",
"628 623 OFFCURVE",
"530 705 OFFCURVE",
"365 705 CURVE SMOOTH",
"56 705 LINE",
"56 0 LINE"
);
},
{
closed = 1;
nodes = (
"252 547 LINE",
"349 547 LINE SMOOTH",
"400 547 OFFCURVE",
"429 518 OFFCURVE",
"429 476 CURVE SMOOTH",
"429 430 OFFCURVE",
"402 400 OFFCURVE",
"349 400 CURVE SMOOTH",
"252 400 LINE"
);
}
);
width = 702;
},
{
layerId = "6D7935D2-FE9A-430A-A298-15DA7AF44FAE";
paths = (
{
closed = 1;
nodes = (
"150 0 LINE",
"150 280 LINE",
"234 280 OFFCURVE",
"303 269 OFFCURVE",
"358 243 CURVE SMOOTH",
"439 203 OFFCURVE",
"487 128 OFFCURVE",
"498 0 CURVE",
"572 0 LINE",
"552 177 OFFCURVE",
"471 265 OFFCURVE",
"364 300 CURVE",
"462 318 OFFCURVE",
"528 391 OFFCURVE",
"528 489 CURVE SMOOTH",
"528 604 OFFCURVE",
"452 690 OFFCURVE",
"290 690 CURVE SMOOTH",
"80 690 LINE",
"80 0 LINE"
);
},
{
closed = 1;
nodes = (
"150 631 LINE",
"290 631 LINE SMOOTH",
"408 631 OFFCURVE",
"456 577 OFFCURVE",
"456 489 CURVE SMOOTH",
"456 404 OFFCURVE",
"405 340 OFFCURVE",
"291 340 CURVE SMOOTH",
"150 340 LINE"
);
}
);
width = 623;
}
);
unicode = 0052;
userData = {
com.schriftgestaltung.Glyphs.ColorIndex = 4;
com.typesupply.AccentFactory.yCoordinates = {
bottom = {
name = origin;
type = glyphMetric;
};
top = {
name = capHeight;
type = fontInfo;
};
};
};
},
{
color = 4;
glyphname = Racute;
lastChange = "2024-08-04 21:00:34 +0000";
layers = (
{
layerId = "4D0F633C-81E1-4D6C-A640-637CE706A5C5";
paths = (
{
closed = 1;
nodes = (
"189 0 LINE",
"189 276 LINE",
"264 276 OFFCURVE",
"323 259 OFFCURVE",
"368 230 CURVE SMOOTH",
"443 182 OFFCURVE",
"479 98 OFFCURVE",
"488 0 CURVE",
"610 0 LINE",
"593 157 OFFCURVE",
"516 278 OFFCURVE",
"408 314 CURVE",
"496 335 OFFCURVE",
"561 397 OFFCURVE",
"561 490 CURVE SMOOTH",
"561 602 OFFCURVE",
"479 695 OFFCURVE",
"315 695 CURVE SMOOTH",
"75 695 LINE",
"75 0 LINE"
);
},
{
closed = 1;
nodes = (
"189 602 LINE",
"315 602 LINE SMOOTH",
"398 602 OFFCURVE",
"444 555 OFFCURVE",
"444 487 CURVE SMOOTH",
"444 422 OFFCURVE",
"398 369 OFFCURVE",
"315 369 CURVE SMOOTH",
"189 369 LINE"
);
},
{
closed = 1;
nodes = (
"419 844 LINE",
"419 941 LINE",
"198 819 LINE",
"198 735 LINE"
);
}
);
width = 670;
},
{
layerId = "86171893-955A-4CD1-BD1B-2F7A53CC85DC";
paths = (
{
closed = 1;
nodes = (
"252 0 LINE",
"252 244 LINE",
"308 242 OFFCURVE",
"350 227 OFFCURVE",
"381 200 CURVE SMOOTH",
"431 158 OFFCURVE",
"452 88 OFFCURVE",
"458 0 CURVE",
"670 0 LINE",
"649 161 OFFCURVE",
"578 267 OFFCURVE",
"479 302 CURVE",
"576 324 OFFCURVE",
"628 402 OFFCURVE",
"628 485 CURVE SMOOTH",
"628 623 OFFCURVE",
"530 705 OFFCURVE",
"365 705 CURVE SMOOTH",
"56 705 LINE",
"56 0 LINE"
);
},
{
closed = 1;
nodes = (
"252 547 LINE",
"349 547 LINE SMOOTH",
"400 547 OFFCURVE",
"429 518 OFFCURVE",
"429 476 CURVE SMOOTH",
"429 430 OFFCURVE",
"402 400 OFFCURVE",
"349 400 CURVE SMOOTH",
"252 400 LINE"
);
},
{
closed = 1;
nodes = (
"445 844 LINE",
"445 992 LINE",
"195 879 LINE",
"195 746 LINE"
);
}
);
width = 702;
},
{
layerId = "6D7935D2-FE9A-430A-A298-15DA7AF44FAE";
paths = (
{
closed = 1;
nodes = (
"150 0 LINE",
"150 280 LINE",
"234 280 OFFCURVE",
"303 269 OFFCURVE",
"358 243 CURVE SMOOTH",
"439 203 OFFCURVE",
"487 128 OFFCURVE",
"498 0 CURVE",
"572 0 LINE",
"552 177 OFFCURVE",
"471 265 OFFCURVE",
"364 300 CURVE",
"462 318 OFFCURVE",
"528 391 OFFCURVE",
"528 489 CURVE SMOOTH",
"528 604 OFFCURVE",
"452 690 OFFCURVE",
"290 690 CURVE SMOOTH",
"80 690 LINE",
"80 0 LINE"
);
},
{
closed = 1;
nodes = (
"150 631 LINE",
"290 631 LINE SMOOTH",
"408 631 OFFCURVE",
"456 577 OFFCURVE",
"456 489 CURVE SMOOTH",
"456 404 OFFCURVE",
"405 340 OFFCURVE",
"291 340 CURVE SMOOTH",
"150 340 LINE"
);
},
{
closed = 1;
nodes = (
"399 851 LINE",
"399 914 LINE",
"194 786 LINE",
"194 732 LINE"
);
}
);
width = 623;
}
);
unicode = 0154;
userData = {
com.schriftgestaltung.Glyphs.ColorIndex = 8;
};
},
{
color = 4;
glyphname = Rcaron;
lastChange = "2024-08-04 21:00:38 +0000";
layers = (
{
layerId = "4D0F633C-81E1-4D6C-A640-637CE706A5C5";
paths = (
{
closed = 1;
nodes = (
"189 0 LINE",
"189 276 LINE",
"264 276 OFFCURVE",
"323 259 OFFCURVE",
"368 230 CURVE SMOOTH",
"443 182 OFFCURVE",
"479 98 OFFCURVE",
"488 0 CURVE",
"610 0 LINE",
"593 157 OFFCURVE",
"516 278 OFFCURVE",
"408 314 CURVE",
"496 335 OFFCURVE",
"561 397 OFFCURVE",
"561 490 CURVE SMOOTH",
"561 602 OFFCURVE",
"479 695 OFFCURVE",
"315 695 CURVE SMOOTH",
"75 695 LINE",
"75 0 LINE"
);
},
{
closed = 1;
nodes = (
"189 602 LINE",
"315 602 LINE SMOOTH",
"398 602 OFFCURVE",
"444 555 OFFCURVE",
"444 487 CURVE SMOOTH",
"444 422 OFFCURVE",
"398 369 OFFCURVE",
"315 369 CURVE SMOOTH",
"189 369 LINE"
);
},
{
closed = 1;
nodes = (
"459 818 LINE",
"459 907 LINE",
"316 821 LINE",
"173 907 LINE",
"173 818 LINE",
"316 735 LINE"
);
}
);
width = 670;
},
{
layerId = "86171893-955A-4CD1-BD1B-2F7A53CC85DC";
paths = (
{
closed = 1;
nodes = (
"252 0 LINE",
"252 244 LINE",
"308 242 OFFCURVE",
"350 227 OFFCURVE",
"381 200 CURVE SMOOTH",
"431 158 OFFCURVE",
"452 88 OFFCURVE",
"458 0 CURVE",
"670 0 LINE",
"649 161 OFFCURVE",
"578 267 OFFCURVE",
"479 302 CURVE",
"576 324 OFFCURVE",
"628 402 OFFCURVE",
"628 485 CURVE SMOOTH",
"628 623 OFFCURVE",
"530 705 OFFCURVE",
"365 705 CURVE SMOOTH",
"56 705 LINE",
"56 0 LINE"
);
},
{
closed = 1;
nodes = (
"252 547 LINE",
"349 547 LINE SMOOTH",
"400 547 OFFCURVE",
"429 518 OFFCURVE",
"429 476 CURVE SMOOTH",
"429 430 OFFCURVE",
"402 400 OFFCURVE",
"349 400 CURVE SMOOTH",
"252 400 LINE"
);
},
{
closed = 1;
nodes = (
"482 823 LINE",
"482 954 LINE",
"323 867 LINE",
"162 954 LINE",
"162 823 LINE",
"323 746 LINE"
);
}
);
width = 702;
},
{
layerId = "6D7935D2-FE9A-430A-A298-15DA7AF44FAE";
paths = (
{
closed = 1;
nodes = (
"150 0 LINE",
"150 280 LINE",
"234 280 OFFCURVE",
"303 269 OFFCURVE",
"358 243 CURVE SMOOTH",
"439 203 OFFCURVE",
"487 128 OFFCURVE",
"498 0 CURVE",
"572 0 LINE",
"552 177 OFFCURVE",
"471 265 OFFCURVE",
"364 300 CURVE",
"462 318 OFFCURVE",
"528 391 OFFCURVE",
"528 489 CURVE SMOOTH",
"528 604 OFFCURVE",
"452 690 OFFCURVE",
"290 690 CURVE SMOOTH",
"80 690 LINE",
"80 0 LINE"
);
},
{
closed = 1;
nodes = (
"150 631 LINE",
"290 631 LINE SMOOTH",
"408 631 OFFCURVE",
"456 577 OFFCURVE",
"456 489 CURVE SMOOTH",
"456 404 OFFCURVE",
"405 340 OFFCURVE",
"291 340 CURVE SMOOTH",
"150 340 LINE"
);
},
{
closed = 1;
nodes = (
"440 829 LINE",
"440 885 LINE",
"306 802 LINE",
"172 885 LINE",
"172 829 LINE",
"306 747 LINE"
);
}
);
width = 623;
}
);
unicode = 0158;
userData = {
com.schriftgestaltung.Glyphs.ColorIndex = 8;
};
},
{
color = 4;
glyphname = Rcommaaccent;
lastChange = "2024-08-04 21:00:42 +0000";
layers = (
{
anchors = (
{
name = _bottom;
position = "{316, 0}";
}
);
components = (
{
name = R;
}
);
layerId = "4D0F633C-81E1-4D6C-A640-637CE706A5C5";
paths = (
{
closed = 1;
nodes = (
"328 -278 OFFCURVE",
"404 -224 OFFCURVE",
"404 -133 CURVE SMOOTH",
"404 -89 OFFCURVE",
"372 -45 OFFCURVE",
"325 -45 CURVE SMOOTH",
"285 -45 OFFCURVE",
"253 -72 OFFCURVE",
"253 -113 CURVE SMOOTH",
"253 -155 OFFCURVE",
"283 -172 OFFCURVE",
"315 -172 CURVE",
"328 -172 OFFCURVE",
"342 -168 OFFCURVE",
"349 -161 CURVE",
"347 -184 OFFCURVE",
"304 -224 OFFCURVE",
"250 -219 CURVE",
"250 -271 LINE"
);
}
);
width = 670;
},
{
anchors = (
{
name = _bottom;
position = "{342, 0}";
}
);
components = (
{
alignment = -1;
name = R;
}
);
layerId = "86171893-955A-4CD1-BD1B-2F7A53CC85DC";
paths = (
{
closed = 1;
nodes = (
"348 -326 OFFCURVE",
"447 -273 OFFCURVE",
"447 -152 CURVE SMOOTH",
"447 -94 OFFCURVE",
"405 -38 OFFCURVE",
"345 -38 CURVE SMOOTH",
"292 -38 OFFCURVE",
"251 -73 OFFCURVE",
"251 -126 CURVE SMOOTH",
"251 -180 OFFCURVE",
"288 -202 OFFCURVE",
"332 -202 CURVE",
"341 -202 OFFCURVE",
"349 -201 OFFCURVE",
"357 -198 CURVE",
"341 -227 OFFCURVE",
"298 -243 OFFCURVE",
"247 -241 CURVE",
"247 -318 LINE"
);
}
);
width = 702;
},
{
anchors = (
{
name = _bottom;
position = "{291, 0}";
}
);
components = (
{
alignment = -1;
name = R;
}
);
layerId = "6D7935D2-FE9A-430A-A298-15DA7AF44FAE";
paths = (
{
closed = 1;
nodes = (
"302 -230 OFFCURVE",
"355 -186 OFFCURVE",
"355 -118 CURVE SMOOTH",
"355 -86 OFFCURVE",
"332 -51 OFFCURVE",
"299 -51 CURVE SMOOTH",
"269 -51 OFFCURVE",
"246 -72 OFFCURVE",
"246 -100 CURVE SMOOTH",
"246 -130 OFFCURVE",
"266 -143 OFFCURVE",
"292 -143 CURVE",
"300 -143 OFFCURVE",
"309 -141 OFFCURVE",
"316 -136 CURVE",
"312 -165 OFFCURVE",
"281 -188 OFFCURVE",
"245 -186 CURVE",
"245 -226 LINE"
);
}
);
width = 623;
}
);
unicode = 0156;
userData = {
com.schriftgestaltung.Glyphs.ColorIndex = 8;
com.typesupply.AccentFactory.compileType = manual;
};
},
{
color = 4;
glyphname = S;
lastChange = "2024-08-04 17:51:11 +0000";
layers = (
{
anchors = (
{
name = bottom;
position = "{310, -7}";
},
{
name = top;
position = "{305, 702}";
}
);
layerId = "4D0F633C-81E1-4D6C-A640-637CE706A5C5";
paths = (
{
closed = 1;
nodes = (
"465 -7 OFFCURVE",
"550 92 OFFCURVE",
"550 196 CURVE SMOOTH",
"550 449 OFFCURVE",
"182 352 OFFCURVE",
"182 508 CURVE SMOOTH",
"182 575 OFFCURVE",
"233 605 OFFCURVE",
"299 605 CURVE SMOOTH",
"361 605 OFFCURVE",
"406 564 OFFCURVE",
"420 495 CURVE",
"537 525 LINE",
"527 623 OFFCURVE",
"423 702 OFFCURVE",
"305 702 CURVE SMOOTH",
"163 702 OFFCURVE",
"66 626 OFFCURVE",
"66 504 CURVE SMOOTH",
"66 249 OFFCURVE",
"435 357 OFFCURVE",
"435 190 CURVE SMOOTH",
"435 131 OFFCURVE",
"390 92 OFFCURVE",
"310 92 CURVE SMOOTH",
"242 92 OFFCURVE",
"193 140 OFFCURVE",
"178 220 CURVE",
"58 198 LINE",
"71 78 OFFCURVE",
"171 -7 OFFCURVE",
"310 -7 CURVE SMOOTH"
);
}
);
width = 610;
},
{
anchors = (
{
name = bottom;
position = "{334, -2}";
},
{
name = top;
position = "{333, 709}";
}
);
layerId = "86171893-955A-4CD1-BD1B-2F7A53CC85DC";
paths = (
{
closed = 1;
nodes = (
"480 -7 OFFCURVE",
"601 90 OFFCURVE",
"601 214 CURVE SMOOTH",
"601 436 OFFCURVE",
"252 403 OFFCURVE",
"252 508 CURVE SMOOTH",
"252 536 OFFCURVE",
"279 556 OFFCURVE",
"312 556 CURVE SMOOTH",
"354 556 OFFCURVE",
"384 529 OFFCURVE",
"394 479 CURVE",
"582 528 LINE",
"558 643 OFFCURVE",
"463 712 OFFCURVE",
"315 712 CURVE SMOOTH",
"160 712 OFFCURVE",
"53 636 OFFCURVE",
"53 498 CURVE SMOOTH",
"53 275 OFFCURVE",
"395 304 OFFCURVE",
"395 201 CURVE SMOOTH",
"395 169 OFFCURVE",
"368 150 OFFCURVE",
"322 150 CURVE SMOOTH",
"274 150 OFFCURVE",
"237 185 OFFCURVE",
"223 244 CURVE",
"35 200 LINE",
"66 71 OFFCURVE",
"178 -7 OFFCURVE",
"333 -7 CURVE SMOOTH"
);
}
);
width = 636;
},
{
anchors = (
{
name = bottom;
position = "{295, -4}";
},
{
name = top;
position = "{292, 694}";
}
);
layerId = "6D7935D2-FE9A-430A-A298-15DA7AF44FAE";
paths = (
{
closed = 1;
nodes = (
"448 -7 OFFCURVE",
"525 84 OFFCURVE",
"525 179 CURVE SMOOTH",
"525 439 OFFCURVE",
"141 312 OFFCURVE",
"141 514 CURVE SMOOTH",
"141 595 OFFCURVE",
"209 635 OFFCURVE",
"291 635 CURVE SMOOTH",
"370 635 OFFCURVE",
"432 579 OFFCURVE",
"445 503 CURVE",
"515 521 LINE",
"499 605 OFFCURVE",
"427 697 OFFCURVE",
"294 697 CURVE",
"159 697 OFFCURVE",
"70 620 OFFCURVE",
"70 512 CURVE SMOOTH",
"70 249 OFFCURVE",
"454 382 OFFCURVE",
"454 176 CURVE SMOOTH",
"454 104 OFFCURVE",
"397 55 OFFCURVE",
"300 55 CURVE SMOOTH",
"201 55 OFFCURVE",
"143 111 OFFCURVE",
"128 207 CURVE",
"56 194 LINE",
"72 69 OFFCURVE",
"165 -7 OFFCURVE",
"300 -7 CURVE SMOOTH"
);
}
);
width = 580;
}
);
unicode = 0053;
userData = {
com.schriftgestaltung.Glyphs.ColorIndex = 4;
com.typesupply.AccentFactory.yCoordinates = {
bottom = {
name = origin;
type = glyphMetric;
};
top = {
name = capHeight;
type = fontInfo;
};
};
};
},
{
color = 4;
glyphname = Scommaaccent;
lastChange = "2024-08-04 21:01:09 +0000";
layers = (
{
anchors = (
{
name = _bottom;
position = "{303, 0}";
}
);
components = (
{
name = S;
}
);
layerId = "4D0F633C-81E1-4D6C-A640-637CE706A5C5";
paths = (
{
closed = 1;
nodes = (
"308 -278 OFFCURVE",
"384 -224 OFFCURVE",
"384 -133 CURVE SMOOTH",
"384 -89 OFFCURVE",
"352 -45 OFFCURVE",
"305 -45 CURVE SMOOTH",
"265 -45 OFFCURVE",
"233 -72 OFFCURVE",
"233 -113 CURVE SMOOTH",
"233 -155 OFFCURVE",
"263 -172 OFFCURVE",
"295 -172 CURVE",
"308 -172 OFFCURVE",
"322 -168 OFFCURVE",
"329 -161 CURVE",
"327 -184 OFFCURVE",
"284 -224 OFFCURVE",
"230 -219 CURVE",
"230 -271 LINE"
);
}
);
width = 610;
},
{
anchors = (
{
name = _bottom;
position = "{334, 0}";
}
);
components = (
{
alignment = -1;
name = S;
}
);
layerId = "86171893-955A-4CD1-BD1B-2F7A53CC85DC";
paths = (
{
closed = 1;
nodes = (
"313 -326 OFFCURVE",
"412 -273 OFFCURVE",
"412 -152 CURVE SMOOTH",
"412 -94 OFFCURVE",
"370 -38 OFFCURVE",
"310 -38 CURVE SMOOTH",
"257 -38 OFFCURVE",
"216 -73 OFFCURVE",
"216 -126 CURVE SMOOTH",
"216 -180 OFFCURVE",
"253 -202 OFFCURVE",
"297 -202 CURVE",
"306 -202 OFFCURVE",
"314 -201 OFFCURVE",
"322 -198 CURVE",
"306 -227 OFFCURVE",
"263 -243 OFFCURVE",
"212 -241 CURVE",
"212 -318 LINE"
);
}
);
width = 636;
},
{
anchors = (
{
name = _bottom;
position = "{297, -3}";
}
);
components = (
{
alignment = -1;
name = S;
}
);
layerId = "6D7935D2-FE9A-430A-A298-15DA7AF44FAE";
paths = (
{
closed = 1;
nodes = (
"302 -230 OFFCURVE",
"355 -186 OFFCURVE",
"355 -118 CURVE SMOOTH",
"355 -86 OFFCURVE",
"332 -51 OFFCURVE",
"299 -51 CURVE SMOOTH",
"269 -51 OFFCURVE",
"246 -72 OFFCURVE",
"246 -100 CURVE SMOOTH",
"246 -130 OFFCURVE",
"266 -143 OFFCURVE",
"292 -143 CURVE",
"300 -143 OFFCURVE",
"309 -141 OFFCURVE",
"316 -136 CURVE",
"312 -165 OFFCURVE",
"281 -188 OFFCURVE",
"245 -186 CURVE",
"245 -226 LINE"
);
}
);
width = 580;
}
);
unicode = 0218;
userData = {
com.schriftgestaltung.Glyphs.ColorIndex = 8;
com.typesupply.AccentFactory.compileType = manual;
};
},
{
color = 4;
glyphname = T;
lastChange = "2024-08-04 19:04:20 +0000";
layers = (
{
anchors = (
{
name = bottom;
position = "{280, 0}";
},
{
name = top;
position = "{282, 696}";
}
);
layerId = "4D0F633C-81E1-4D6C-A640-637CE706A5C5";
paths = (
{
closed = 1;
nodes = (
"39 602 LINE",
"225 602 LINE",
"225 0 LINE",
"339 0 LINE",
"339 602 LINE",
"524 602 LINE",
"524 695 LINE",
"39 695 LINE"
);
}
);
width = 564;
},
{
anchors = (
{
name = bottom;
position = "{298, 0}";
},
{
name = top;
position = "{298, 707}";
}
);
layerId = "86171893-955A-4CD1-BD1B-2F7A53CC85DC";
paths = (
{
closed = 1;
nodes = (
"17 549 LINE",
"203 549 LINE",
"203 0 LINE",
"399 0 LINE",
"399 549 LINE",
"587 549 LINE",
"587 705 LINE",
"17 705 LINE"
);
}
);
width = 604;
},
{
anchors = (
{
name = bottom;
position = "{258, 0}";
},
{
name = top;
position = "{260, 690}";
}
);
layerId = "6D7935D2-FE9A-430A-A298-15DA7AF44FAE";
paths = (
{
closed = 1;
nodes = (
"30 632 LINE",
"225 632 LINE",
"225 0 LINE",
"295 0 LINE",
"295 632 LINE",
"489 632 LINE",
"489 690 LINE",
"30 690 LINE"
);
}
);
width = 520;
}
);
unicode = 0054;
userData = {
com.schriftgestaltung.Glyphs.ColorIndex = 4;
com.typesupply.AccentFactory.yCoordinates = {
bottom = {
name = origin;
type = glyphMetric;
};
top = {
name = capHeight;
type = fontInfo;
};
};
};
},
{
color = 4;
glyphname = Tcedilla;
lastChange = "2024-08-04 19:04:28 +0000";
layers = (
{
background = {
paths = (
{
closed = 1;
nodes = (
"39 606 LINE",
"225 606 LINE",
"225 -68 LINE",
"310 -68 LINE SMOOTH",
"344 -68 OFFCURVE",
"361 -81 OFFCURVE",
"361 -107 CURVE SMOOTH",
"361 -133 OFFCURVE",
"344 -145 OFFCURVE",
"310 -145 CURVE SMOOTH",
"166 -145 LINE",
"166 -217 LINE",
"328 -217 LINE SMOOTH",
"403 -217 OFFCURVE",
"455 -175 OFFCURVE",
"455 -107 CURVE SMOOTH",
"455 -34 OFFCURVE",
"396 4 OFFCURVE",
"311 -1 CURVE",
"339 -21 LINE",
"339 606 LINE",
"524 606 LINE",
"524 695 LINE",
"39 695 LINE"
);
}
);
};
components = (
{
name = T;
},
{
name = cedilla;
transform = "{1, 0, 0, 1, 182, 0}";
}
);
layerId = "4D0F633C-81E1-4D6C-A640-637CE706A5C5";
width = 564;
},
{
components = (
{
name = T;
},
{
name = cedilla;
transform = "{1, 0, 0, 1, 176, -5}";
}
);
layerId = "86171893-955A-4CD1-BD1B-2F7A53CC85DC";
width = 604;
},
{
components = (
{
name = T;
},
{
name = cedilla;
transform = "{1, 0, 0, 1, 173, 0}";
}
);
layerId = "6D7935D2-FE9A-430A-A298-15DA7AF44FAE";
width = 520;
}
);
unicode = 0162;
userData = {
com.schriftgestaltung.Glyphs.ColorIndex = 8;
};
},
{
color = 4;
glyphname = Tcommaaccent;
lastChange = "2024-08-04 19:04:39 +0000";
layers = (
{
components = (
{
name = T;
}
);
layerId = "4D0F633C-81E1-4D6C-A640-637CE706A5C5";
paths = (
{
closed = 1;
nodes = (
"286 -278 OFFCURVE",
"362 -224 OFFCURVE",
"362 -133 CURVE SMOOTH",
"362 -89 OFFCURVE",
"330 -45 OFFCURVE",
"283 -45 CURVE SMOOTH",
"243 -45 OFFCURVE",
"211 -72 OFFCURVE",
"211 -113 CURVE SMOOTH",
"211 -155 OFFCURVE",
"241 -172 OFFCURVE",
"273 -172 CURVE",
"286 -172 OFFCURVE",
"300 -168 OFFCURVE",
"307 -161 CURVE",
"305 -184 OFFCURVE",
"262 -224 OFFCURVE",
"208 -219 CURVE",
"208 -271 LINE"
);
}
);
width = 564;
},
{
components = (
{
alignment = -1;
name = T;
}
);
layerId = "86171893-955A-4CD1-BD1B-2F7A53CC85DC";
paths = (
{
closed = 1;
nodes = (
"302 -326 OFFCURVE",
"401 -273 OFFCURVE",
"401 -152 CURVE SMOOTH",
"401 -94 OFFCURVE",
"359 -38 OFFCURVE",
"299 -38 CURVE SMOOTH",
"246 -38 OFFCURVE",
"205 -73 OFFCURVE",
"205 -126 CURVE SMOOTH",
"205 -180 OFFCURVE",
"242 -202 OFFCURVE",
"286 -202 CURVE",
"295 -202 OFFCURVE",
"303 -201 OFFCURVE",
"311 -198 CURVE",
"295 -227 OFFCURVE",
"252 -243 OFFCURVE",
"201 -241 CURVE",
"201 -318 LINE"
);
}
);
width = 604;
},
{
components = (
{
alignment = -1;
name = T;
}
);
layerId = "6D7935D2-FE9A-430A-A298-15DA7AF44FAE";
paths = (
{
closed = 1;
nodes = (
"265 -230 OFFCURVE",
"318 -186 OFFCURVE",
"318 -118 CURVE SMOOTH",
"318 -86 OFFCURVE",
"295 -51 OFFCURVE",
"262 -51 CURVE SMOOTH",
"232 -51 OFFCURVE",
"209 -72 OFFCURVE",
"209 -100 CURVE SMOOTH",
"209 -130 OFFCURVE",
"229 -143 OFFCURVE",
"255 -143 CURVE",
"263 -143 OFFCURVE",
"272 -141 OFFCURVE",
"279 -136 CURVE",
"275 -165 OFFCURVE",
"244 -188 OFFCURVE",
"208 -186 CURVE",
"208 -226 LINE"
);
}
);
width = 520;
}
);
unicode = 021A;
userData = {
com.schriftgestaltung.Glyphs.ColorIndex = 8;
com.typesupply.AccentFactory.compileType = manual;
};
},
{
color = 4;
glyphname = U;
lastChange = "2024-08-04 17:52:30 +0000";
layers = (
{
anchors = (
{
name = ogonek;
position = "{418, 0}";
},
{
name = top;
position = "{345, 696}";
}
);
layerId = "4D0F633C-81E1-4D6C-A640-637CE706A5C5";
paths = (
{
closed = 1;
nodes = (
"74 254 LINE SMOOTH",
"74 77 OFFCURVE",
"198 -7 OFFCURVE",
"344 -7 CURVE SMOOTH",
"489 -7 OFFCURVE",
"617 77 OFFCURVE",
"617 254 CURVE SMOOTH",
"617 695 LINE",
"503 695 LINE",
"503 252 LINE SMOOTH",
"503 144 OFFCURVE",
"442 93 OFFCURVE",
"345 93 CURVE SMOOTH",
"249 93 OFFCURVE",
"188 144 OFFCURVE",
"188 252 CURVE SMOOTH",
"188 695 LINE",
"74 695 LINE"
);
}
);
width = 690;
},
{
anchors = (
{
name = ogonek;
position = "{442, 2}";
},
{
name = top;
position = "{356, 707}";
}
);
layerId = "86171893-955A-4CD1-BD1B-2F7A53CC85DC";
paths = (
{
closed = 1;
nodes = (
"53 296 LINE SMOOTH",
"53 95 OFFCURVE",
"181 -7 OFFCURVE",
"351 -7 CURVE SMOOTH",
"520 -7 OFFCURVE",
"660 95 OFFCURVE",
"660 296 CURVE SMOOTH",
"660 705 LINE",
"464 705 LINE",
"464 296 LINE SMOOTH",
"464 223 OFFCURVE",
"429 177 OFFCURVE",
"355 177 CURVE SMOOTH",
"281 177 OFFCURVE",
"248 223 OFFCURVE",
"248 296 CURVE SMOOTH",
"248 705 LINE",
"53 705 LINE"
);
}
);
width = 712;
},
{
anchors = (
{
name = ogonek;
position = "{399, 0}";
},
{
name = top;
position = "{330, 690}";
}
);
layerId = "6D7935D2-FE9A-430A-A298-15DA7AF44FAE";
paths = (
{
closed = 1;
nodes = (
"77 260 LINE SMOOTH",
"77 75 OFFCURVE",
"189 -7 OFFCURVE",
"331 -7 CURVE SMOOTH",
"473 -7 OFFCURVE",
"585 75 OFFCURVE",
"585 260 CURVE SMOOTH",
"585 690 LINE",
"515 690 LINE",
"515 259 LINE SMOOTH",
"515 114 OFFCURVE",
"441 55 OFFCURVE",
"332 55 CURVE SMOOTH",
"223 55 OFFCURVE",
"147 114 OFFCURVE",
"147 259 CURVE SMOOTH",
"147 690 LINE",
"77 690 LINE"
);
}
);
width = 661;
}
);
unicode = 0055;
userData = {
com.schriftgestaltung.Glyphs.ColorIndex = 4;
com.typesupply.AccentFactory.yCoordinates = {
bottom = {
name = origin;
type = glyphMetric;
};
top = {
name = capHeight;
type = fontInfo;
};
};
};
},
{
color = 4;
glyphname = Uogonek;
lastChange = "2024-08-04 17:52:54 +0000";
layers = (
{
anchors = (
{
name = ogonek;
position = "{418, 0}";
},
{
name = top;
position = "{345, 696}";
}
);
background = {
paths = (
{
closed = 1;
nodes = (
"74 254 LINE SMOOTH",
"74 99 OFFCURVE",
"170 15 OFFCURVE",
"292 -3 CURVE",
"288 -13 OFFCURVE",
"286 -24 OFFCURVE",
"286 -36 CURVE SMOOTH",
"286 -105 OFFCURVE",
"343 -145 OFFCURVE",
"414 -145 CURVE SMOOTH",
"520 -145 LINE",
"520 -74 LINE",
"428 -74 LINE SMOOTH",
"396 -74 OFFCURVE",
"380 -61 OFFCURVE",
"380 -37 CURVE SMOOTH",
"380 -16 OFFCURVE",
"395 -6 OFFCURVE",
"440 6 CURVE SMOOTH",
"522 30 OFFCURVE",
"617 100 OFFCURVE",
"617 254 CURVE SMOOTH",
"617 695 LINE",
"503 695 LINE",
"503 254 LINE SMOOTH",
"503 146 OFFCURVE",
"442 95 OFFCURVE",
"345 95 CURVE SMOOTH",
"249 95 OFFCURVE",
"188 146 OFFCURVE",
"188 254 CURVE SMOOTH",
"188 695 LINE",
"74 695 LINE"
);
}
);
};
layerId = "4D0F633C-81E1-4D6C-A640-637CE706A5C5";
paths = (
{
closed = 1;
nodes = (
"74 254 LINE SMOOTH",
"74 77 OFFCURVE",
"198 -7 OFFCURVE",
"344 -7 CURVE SMOOTH",
"489 -7 OFFCURVE",
"617 77 OFFCURVE",
"617 254 CURVE SMOOTH",
"617 695 LINE",
"503 695 LINE",
"503 252 LINE SMOOTH",
"503 144 OFFCURVE",
"442 93 OFFCURVE",
"345 93 CURVE SMOOTH",
"249 93 OFFCURVE",
"188 144 OFFCURVE",
"188 252 CURVE SMOOTH",
"188 695 LINE",
"74 695 LINE"
);
},
{
closed = 1;
nodes = (
"346 41 LINE SMOOTH",
"252 -2 OFFCURVE",
"219 -50 OFFCURVE",
"219 -101 CURVE SMOOTH",
"219 -181 OFFCURVE",
"289 -211 OFFCURVE",
"352 -211 CURVE SMOOTH",
"381 -211 OFFCURVE",
"410 -205 OFFCURVE",
"433 -196 CURVE",
"433 -123 LINE",
"410 -132 OFFCURVE",
"386 -137 OFFCURVE",
"367 -137 CURVE SMOOTH",
"333 -137 OFFCURVE",
"312 -119 OFFCURVE",
"312 -91 CURVE SMOOTH",
"312 -67 OFFCURVE",
"326 -45 OFFCURVE",
"369 -23 CURVE SMOOTH",
"418 2 LINE",
"388 60 LINE"
);
}
);
width = 690;
},
{
anchors = (
{
name = ogonek;
position = "{442, 2}";
},
{
name = top;
position = "{356, 707}";
}
);
layerId = "86171893-955A-4CD1-BD1B-2F7A53CC85DC";
paths = (
{
closed = 1;
nodes = (
"53 296 LINE SMOOTH",
"53 95 OFFCURVE",
"181 -7 OFFCURVE",
"351 -7 CURVE SMOOTH",
"520 -7 OFFCURVE",
"660 95 OFFCURVE",
"660 296 CURVE SMOOTH",
"660 705 LINE",
"464 705 LINE",
"464 296 LINE SMOOTH",
"464 223 OFFCURVE",
"429 177 OFFCURVE",
"355 177 CURVE SMOOTH",
"281 177 OFFCURVE",
"248 223 OFFCURVE",
"248 296 CURVE SMOOTH",
"248 705 LINE",
"53 705 LINE"
);
},
{
closed = 1;
nodes = (
"365 74 LINE SMOOTH",
"224 15 OFFCURVE",
"186 -37 OFFCURVE",
"186 -99 CURVE SMOOTH",
"186 -174 OFFCURVE",
"248 -218 OFFCURVE",
"341 -218 CURVE SMOOTH",
"379 -218 OFFCURVE",
"415 -212 OFFCURVE",
"446 -202 CURVE",
"446 -97 LINE",
"415 -107 OFFCURVE",
"388 -112 OFFCURVE",
"365 -112 CURVE SMOOTH",
"341 -112 OFFCURVE",
"326 -101 OFFCURVE",
"326 -85 CURVE SMOOTH",
"326 -64 OFFCURVE",
"346 -44 OFFCURVE",
"398 -18 CURVE SMOOTH",
"442 4 LINE",
"403 90 LINE"
);
}
);
width = 712;
},
{
anchors = (
{
name = ogonek;
position = "{399, 0}";
},
{
name = top;
position = "{330, 690}";
}
);
layerId = "6D7935D2-FE9A-430A-A298-15DA7AF44FAE";
paths = (
{
closed = 1;
nodes = (
"77 260 LINE SMOOTH",
"77 75 OFFCURVE",
"189 -7 OFFCURVE",
"331 -7 CURVE SMOOTH",
"473 -7 OFFCURVE",
"585 75 OFFCURVE",
"585 260 CURVE SMOOTH",
"585 690 LINE",
"515 690 LINE",
"515 259 LINE SMOOTH",
"515 114 OFFCURVE",
"441 55 OFFCURVE",
"332 55 CURVE SMOOTH",
"223 55 OFFCURVE",
"147 114 OFFCURVE",
"147 259 CURVE SMOOTH",
"147 690 LINE",
"77 690 LINE"
);
},
{
closed = 1;
nodes = (
"325 13 LINE SMOOTH",
"246 -23 OFFCURVE",
"217 -64 OFFCURVE",
"217 -109 CURVE SMOOTH",
"217 -176 OFFCURVE",
"273 -201 OFFCURVE",
"330 -201 CURVE SMOOTH",
"354 -201 OFFCURVE",
"380 -196 OFFCURVE",
"402 -188 CURVE",
"402 -139 LINE",
"380 -148 OFFCURVE",
"357 -153 OFFCURVE",
"338 -153 CURVE SMOOTH",
"301 -153 OFFCURVE",
"276 -135 OFFCURVE",
"276 -102 CURVE SMOOTH",
"276 -76 OFFCURVE",
"292 -52 OFFCURVE",
"339 -29 CURVE SMOOTH",
"399 0 LINE",
"380 38 LINE"
);
}
);
width = 661;
}
);
unicode = 0172;
userData = {
com.schriftgestaltung.Glyphs.ColorIndex = 8;
};
},
{
color = 4;
glyphname = V;
lastChange = "2024-08-04 21:04:17 +0000";
layers = (
{
layerId = "4D0F633C-81E1-4D6C-A640-637CE706A5C5";
paths = (
{
closed = 1;
nodes = (
"347 117 LINE",
"141 695 LINE",
"19 695 LINE",
"281 0 LINE",
"413 0 LINE",
"674 695 LINE",
"554 695 LINE"
);
}
);
width = 694;
},
{
layerId = "86171893-955A-4CD1-BD1B-2F7A53CC85DC";
paths = (
{
closed = 1;
nodes = (
"374 196 LINE",
"214 705 LINE",
"4 705 LINE",
"248 0 LINE",
"499 0 LINE",
"742 705 LINE",
"533 705 LINE"
);
}
);
width = 746;
},
{
layerId = "6D7935D2-FE9A-430A-A298-15DA7AF44FAE";
paths = (
{
closed = 1;
nodes = (
"329 76 LINE",
"100 690 LINE",
"24 690 LINE",
"289 0 LINE",
"369 0 LINE",
"634 690 LINE",
"560 690 LINE"
);
}
);
width = 659;
}
);
unicode = 0056;
userData = {
com.schriftgestaltung.Glyphs.ColorIndex = 4;
com.typesupply.AccentFactory.yCoordinates = {
bottom = {
name = origin;
type = glyphMetric;
};
top = {
name = capHeight;
type = fontInfo;
};
};
};
},
{
color = 4;
glyphname = W;
lastChange = "2024-08-04 17:53:58 +0000";
layers = (
{
layerId = "4D0F633C-81E1-4D6C-A640-637CE706A5C5";
paths = (
{
closed = 1;
nodes = (
"216 -1 LINE",
"344 0 LINE",
"514 578 LINE",
"484 578 LINE",
"645 0 LINE",
"774 0 LINE",
"980 695 LINE",
"858 695 LINE",
"696 66 LINE",
"730 65 LINE",
"568 695 LINE",
"440 695 LINE",
"267 67 LINE",
"300 67 LINE",
"140 695 LINE",
"19 695 LINE"
);
}
);
width = 999;
},
{
layerId = "86171893-955A-4CD1-BD1B-2F7A53CC85DC";
paths = (
{
closed = 1;
nodes = (
"198 0 LINE",
"439 0 LINE",
"549 481 LINE",
"527 481 LINE",
"635 0 LINE",
"876 0 LINE",
"1049 705 LINE",
"837 705 LINE",
"733 101 LINE",
"783 101 LINE",
"647 705 LINE",
"432 705 LINE",
"293 101 LINE",
"342 101 LINE",
"239 705 LINE",
"27 705 LINE"
);
}
);
width = 1076;
},
{
layerId = "6D7935D2-FE9A-430A-A298-15DA7AF44FAE";
paths = (
{
closed = 1;
nodes = (
"220 -1 LINE",
"296 0 LINE",
"488 625 LINE",
"465 625 LINE",
"652 0 LINE",
"730 0 LINE",
"928 690 LINE",
"853 690 LINE",
"681 42 LINE",
"705 42 LINE",
"518 690 LINE",
"440 690 LINE",
"248 43 LINE",
"272 43 LINE",
"101 690 LINE",
"26 690 LINE"
);
}
);
width = 955;
}
);
unicode = 0057;
userData = {
com.schriftgestaltung.Glyphs.ColorIndex = 4;
com.typemytype.robofont.layerData = {
b = {
anchors = (
);
components = (
);
contours = (
{
points = (
{
segmentType = line;
smooth = 0;
x = 229;
y = -2;
},
{
segmentType = line;
smooth = 0;
x = 245;
y = 0;
},
{
segmentType = line;
smooth = 0;
x = 473;
y = 727;
},
{
segmentType = line;
smooth = 0;
x = 435;
y = 727;
},
{
segmentType = line;
smooth = 0;
x = 638;
y = 0;
},
{
segmentType = line;
smooth = 0;
x = 654;
y = 0;
},
{
segmentType = line;
smooth = 0;
x = 877;
y = 684;
},
{
segmentType = line;
smooth = 0;
x = 860;
y = 684;
},
{
segmentType = line;
smooth = 0;
x = 636;
y = 7;
},
{
segmentType = line;
smooth = 0;
x = 650;
y = 5;
},
{
segmentType = line;
smooth = 0;
x = 459;
y = 684;
},
{
segmentType = line;
smooth = 0;
x = 442;
y = 684;
},
{
segmentType = line;
smooth = 0;
x = 230;
y = 10;
},
{
segmentType = line;
smooth = 0;
x = 239;
y = 10;
},
{
segmentType = line;
smooth = 0;
x = 54;
y = 684;
},
{
segmentType = line;
smooth = 0;
x = 36;
y = 684;
}
);
}
);
lib = {
};
name = W;
unicodes = (
);
width = 904;
};
};
com.typesupply.AccentFactory.yCoordinates = {
bottom = {
name = origin;
type = glyphMetric;
};
top = {
name = capHeight;
type = fontInfo;
};
};
};
},
{
color = 4;
glyphname = X;
lastChange = "2024-08-04 17:54:37 +0000";
layers = (
{
layerId = "4D0F633C-81E1-4D6C-A640-637CE706A5C5";
paths = (
{
closed = 1;
nodes = (
"482 0 LINE",
"610 0 LINE",
"178 695 LINE",
"50 695 LINE"
);
},
{
closed = 1;
nodes = (
"286 378 LINE",
"51 0 LINE",
"178 0 LINE",
"347 290 LINE"
);
},
{
closed = 1;
nodes = (
"376 317 LINE",
"611 695 LINE",
"484 695 LINE",
"315 405 LINE"
);
}
);
width = 660;
},
{
layerId = "86171893-955A-4CD1-BD1B-2F7A53CC85DC";
paths = (
{
closed = 1;
nodes = (
"497 0 LINE",
"728 0 LINE",
"243 705 LINE",
"12 705 LINE"
);
},
{
closed = 1;
nodes = (
"278 407 LINE",
"20 0 LINE",
"243 0 LINE",
"392 254 LINE"
);
},
{
closed = 1;
nodes = (
"455 299 LINE",
"713 705 LINE",
"490 705 LINE",
"342 452 LINE"
);
}
);
width = 739;
},
{
layerId = "6D7935D2-FE9A-430A-A298-15DA7AF44FAE";
paths = (
{
closed = 1;
nodes = (
"466 0 LINE",
"544 0 LINE",
"119 690 LINE",
"41 690 LINE"
);
},
{
closed = 1;
nodes = (
"266 366 LINE",
"41 0 LINE",
"119 0 LINE",
"306 314 LINE"
);
},
{
closed = 1;
nodes = (
"321 322 LINE",
"545 690 LINE",
"467 690 LINE",
"281 374 LINE"
);
}
);
width = 585;
}
);
unicode = 0058;
userData = {
com.schriftgestaltung.Glyphs.ColorIndex = 4;
com.typemytype.robofont.guides = (
{
angle = 90;
isGlobal = 0;
magnetic = 5;
x = 50;
y = 16;
},
{
angle = 90;
isGlobal = 0;
magnetic = 5;
x = 490;
y = 36;
},
{
angle = 0;
isGlobal = 0;
magnetic = 5;
x = 511;
y = 352;
}
);
com.typesupply.AccentFactory.yCoordinates = {
bottom = {
name = origin;
type = glyphMetric;
};
top = {
name = capHeight;
type = fontInfo;
};
};
};
},
{
color = 4;
glyphname = Y;
lastChange = "2024-08-04 17:55:07 +0000";
layers = (
{
anchors = (
{
name = top;
position = "{303, 696}";
}
);
layerId = "4D0F633C-81E1-4D6C-A640-637CE706A5C5";
paths = (
{
closed = 1;
nodes = (
"246 252 LINE",
"246 0 LINE",
"360 0 LINE",
"360 252 LINE",
"590 695 LINE",
"464 695 LINE",
"278 300 LINE",
"329 300 LINE",
"142 695 LINE",
"15 695 LINE"
);
}
);
width = 605;
},
{
anchors = (
{
name = top;
position = "{351, 707}";
}
);
layerId = "86171893-955A-4CD1-BD1B-2F7A53CC85DC";
paths = (
{
closed = 1;
nodes = (
"252 224 LINE",
"252 0 LINE",
"449 0 LINE",
"449 224 LINE",
"697 705 LINE",
"476 705 LINE",
"315 352 LINE",
"389 352 LINE",
"228 705 LINE",
"4 705 LINE"
);
}
);
width = 701;
},
{
anchors = (
{
name = top;
position = "{283, 690}";
}
);
layerId = "6D7935D2-FE9A-430A-A298-15DA7AF44FAE";
paths = (
{
closed = 1;
nodes = (
"248 272 LINE",
"248 0 LINE",
"318 0 LINE",
"318 272 LINE",
"542 690 LINE",
"464 690 LINE",
"267 304 LINE",
"299 304 LINE",
"101 690 LINE",
"22 690 LINE"
);
}
);
width = 564;
}
);
unicode = 0059;
userData = {
com.schriftgestaltung.Glyphs.ColorIndex = 4;
com.typesupply.AccentFactory.yCoordinates = {
bottom = {
name = origin;
type = glyphMetric;
};
top = {
name = capHeight;
type = fontInfo;
};
};
};
},
{
color = 4;
glyphname = Z;
lastChange = "2024-08-04 17:55:30 +0000";
layers = (
{
anchors = (
{
name = top;
position = "{279, 696}";
}
);
background = {
paths = (
{
closed = 1;
nodes = (
"508 695 LINE",
"50 695 LINE",
"50 606 LINE",
"376 606 LINE",
"50 89 LINE",
"50 0 LINE",
"508 0 LINE",
"508 89 LINE",
"181 89 LINE",
"508 606 LINE"
);
}
);
};
layerId = "4D0F633C-81E1-4D6C-A640-637CE706A5C5";
paths = (
{
closed = 1;
nodes = (
"508 695 LINE",
"50 695 LINE",
"50 596 LINE",
"372 596 LINE",
"50 89 LINE",
"50 0 LINE",
"508 0 LINE",
"508 99 LINE",
"185 99 LINE",
"508 606 LINE"
);
}
);
width = 558;
},
{
anchors = (
{
name = top;
position = "{307, 707}";
}
);
layerId = "86171893-955A-4CD1-BD1B-2F7A53CC85DC";
paths = (
{
closed = 1;
nodes = (
"563 705 LINE",
"50 705 LINE",
"50 547 LINE",
"340 547 LINE",
"50 149 LINE",
"50 0 LINE",
"563 0 LINE",
"563 159 LINE",
"270 159 LINE",
"563 556 LINE"
);
}
);
width = 613;
},
{
anchors = (
{
name = top;
position = "{263, 690}";
}
);
layerId = "6D7935D2-FE9A-430A-A298-15DA7AF44FAE";
paths = (
{
closed = 1;
nodes = (
"477 690 LINE",
"49 690 LINE",
"49 628 LINE",
"395 628 LINE",
"43 56 LINE",
"43 0 LINE",
"482 0 LINE",
"482 62 LINE",
"125 62 LINE",
"477 634 LINE"
);
}
);
width = 525;
}
);
unicode = 005A;
userData = {
com.schriftgestaltung.Glyphs.ColorIndex = 4;
com.typesupply.AccentFactory.yCoordinates = {
bottom = {
name = origin;
type = glyphMetric;
};
top = {
name = capHeight;
type = fontInfo;
};
};
};
},
{
color = 4;
glyphname = a;
lastChange = "2024-08-04 17:56:22 +0000";
layers = (
{
anchors = (
{
name = bottom;
position = "{339, 0}";
},
{
name = ogonek;
position = "{610, 10}";
},
{
name = top;
position = "{339, 551}";
}
);
background = {
paths = (
{
closed = 1;
nodes = (
"37 278 CURVE SMOOTH",
"37 108 OFFCURVE",
"152 -9 OFFCURVE",
"295 -9 CURVE SMOOTH",
"387 -9 OFFCURVE",
"453 37 OFFCURVE",
"488 86 CURVE",
"488 0 LINE",
"603 0 LINE",
"603 551 LINE",
"488 551 LINE",
"488 467 LINE",
"454 514 OFFCURVE",
"390 560 OFFCURVE",
"297 560 CURVE SMOOTH",
"152 560 OFFCURVE",
"37 448 OFFCURVE"
);
},
{
closed = 1;
nodes = (
"488 276 CURVE SMOOTH",
"488 157 OFFCURVE",
"407 90 OFFCURVE",
"321 90 CURVE SMOOTH",
"236 90 OFFCURVE",
"154 159 OFFCURVE",
"154 278 CURVE SMOOTH",
"154 397 OFFCURVE",
"236 461 OFFCURVE",
"321 461 CURVE SMOOTH",
"407 461 OFFCURVE",
"488 394 OFFCURVE"
);
}
);
};
guideLines = (
{
position = "{549, 86}";
},
{
position = "{407, 466}";
}
);
layerId = "4D0F633C-81E1-4D6C-A640-637CE706A5C5";
paths = (
{
closed = 1;
nodes = (
"385 -7 OFFCURVE",
"457 41 OFFCURVE",
"488 120 CURVE",
"488 64 LINE SMOOTH",
"488 26 OFFCURVE",
"514 0 OFFCURVE",
"552 0 CURVE SMOOTH",
"603 0 LINE",
"603 551 LINE",
"488 551 LINE",
"488 432 LINE",
"457 510 OFFCURVE",
"385 558 OFFCURVE",
"295 558 CURVE SMOOTH",
"151 558 OFFCURVE",
"37 446 OFFCURVE",
"37 276 CURVE SMOOTH",
"37 106 OFFCURVE",
"151 -7 OFFCURVE",
"295 -7 CURVE SMOOTH"
);
},
{
closed = 1;
nodes = (
"236 92 OFFCURVE",
"154 157 OFFCURVE",
"154 276 CURVE SMOOTH",
"154 395 OFFCURVE",
"236 459 OFFCURVE",
"321 459 CURVE SMOOTH",
"406 459 OFFCURVE",
"488 395 OFFCURVE",
"488 276 CURVE SMOOTH",
"488 157 OFFCURVE",
"406 92 OFFCURVE",
"321 92 CURVE SMOOTH"
);
}
);
width = 678;
},
{
anchors = (
{
name = ogonek;
position = "{603, 0}";
},
{
name = top;
position = "{339, 551}";
}
);
associatedMasterId = "4D0F633C-81E1-4D6C-A640-637CE706A5C5";
background = {
paths = (
{
closed = 1;
nodes = (
"37 278 CURVE SMOOTH",
"37 108 OFFCURVE",
"152 -9 OFFCURVE",
"295 -9 CURVE SMOOTH",
"387 -9 OFFCURVE",
"453 37 OFFCURVE",
"488 86 CURVE",
"488 0 LINE",
"603 0 LINE",
"603 551 LINE",
"488 551 LINE",
"488 467 LINE",
"454 514 OFFCURVE",
"390 560 OFFCURVE",
"297 560 CURVE SMOOTH",
"152 560 OFFCURVE",
"37 448 OFFCURVE"
);
},
{
closed = 1;
nodes = (
"488 276 CURVE SMOOTH",
"488 157 OFFCURVE",
"407 90 OFFCURVE",
"321 90 CURVE SMOOTH",
"236 90 OFFCURVE",
"154 159 OFFCURVE",
"154 278 CURVE SMOOTH",
"154 397 OFFCURVE",
"236 461 OFFCURVE",
"321 461 CURVE SMOOTH",
"407 461 OFFCURVE",
"488 394 OFFCURVE"
);
}
);
};
guideLines = (
{
position = "{549, 86}";
},
{
position = "{407, 466}";
}
);
layerId = "89DB5EE2-4F3F-4894-A273-E2AC796B90BE";
name = "Sep 19 17, 18:23";
paths = (
{
closed = 1;
nodes = (
"37 278 CURVE SMOOTH",
"37 108 OFFCURVE",
"152 -9 OFFCURVE",
"295 -9 CURVE SMOOTH",
"387 -9 OFFCURVE",
"453 37 OFFCURVE",
"488 86 CURVE",
"488 0 LINE",
"603 0 LINE",
"603 551 LINE",
"488 551 LINE",
"488 467 LINE",
"454 514 OFFCURVE",
"390 560 OFFCURVE",
"297 560 CURVE SMOOTH",
"152 560 OFFCURVE",
"37 448 OFFCURVE"
);
},
{
closed = 1;
nodes = (
"488 276 CURVE SMOOTH",
"488 157 OFFCURVE",
"407 90 OFFCURVE",
"321 90 CURVE SMOOTH",
"236 90 OFFCURVE",
"154 159 OFFCURVE",
"154 278 CURVE SMOOTH",
"154 397 OFFCURVE",
"236 461 OFFCURVE",
"321 461 CURVE SMOOTH",
"407 461 OFFCURVE",
"488 394 OFFCURVE"
);
}
);
width = 678;
},
{
anchors = (
{
name = bottom;
position = "{340, 0}";
},
{
name = ogonek;
position = "{611, 10}";
},
{
name = top;
position = "{340, 561}";
}
);
layerId = "86171893-955A-4CD1-BD1B-2F7A53CC85DC";
paths = (
{
closed = 1;
nodes = (
"338 -7 OFFCURVE",
"403 41 OFFCURVE",
"427 125 CURVE",
"427 96 LINE SMOOTH",
"427 34 OFFCURVE",
"461 0 OFFCURVE",
"523 0 CURVE SMOOTH",
"623 0 LINE",
"623 561 LINE",
"427 561 LINE",
"427 435 LINE",
"403 519 OFFCURVE",
"338 568 OFFCURVE",
"256 568 CURVE SMOOTH",
"108 568 OFFCURVE",
"24 436 OFFCURVE",
"24 280 CURVE SMOOTH",
"24 124 OFFCURVE",
"108 -7 OFFCURVE",
"256 -7 CURVE SMOOTH"
);
},
{
closed = 1;
nodes = (
"267 165 OFFCURVE",
"224 208 OFFCURVE",
"224 280 CURVE SMOOTH",
"224 352 OFFCURVE",
"267 397 OFFCURVE",
"325 397 CURVE SMOOTH",
"383 397 OFFCURVE",
"427 352 OFFCURVE",
"427 280 CURVE SMOOTH",
"427 208 OFFCURVE",
"383 165 OFFCURVE",
"325 165 CURVE SMOOTH"
);
}
);
width = 679;
},
{
anchors = (
{
name = bottom;
position = "{338, 0}";
},
{
name = ogonek;
position = "{608, 10}";
},
{
name = top;
position = "{338, 546}";
}
);
layerId = "6D7935D2-FE9A-430A-A298-15DA7AF44FAE";
paths = (
{
closed = 1;
nodes = (
"403 -7 OFFCURVE",
"490 45 OFFCURVE",
"525 124 CURVE",
"525 44 LINE SMOOTH",
"525 16 OFFCURVE",
"541 0 OFFCURVE",
"569 0 CURVE SMOOTH",
"595 0 LINE",
"595 546 LINE",
"525 546 LINE",
"525 424 LINE",
"491 503 OFFCURVE",
"407 553 OFFCURVE",
"305 553 CURVE SMOOTH",
"163 553 OFFCURVE",
"48 440 OFFCURVE",
"48 274 CURVE SMOOTH",
"48 108 OFFCURVE",
"163 -7 OFFCURVE",
"305 -7 CURVE SMOOTH"
);
},
{
closed = 1;
nodes = (
"208 54 OFFCURVE",
"119 140 OFFCURVE",
"119 274 CURVE SMOOTH",
"119 408 OFFCURVE",
"208 492 OFFCURVE",
"322 492 CURVE SMOOTH",
"436 492 OFFCURVE",
"525 408 OFFCURVE",
"525 274 CURVE SMOOTH",
"525 140 OFFCURVE",
"436 54 OFFCURVE",
"322 54 CURVE SMOOTH"
);
}
);
width = 675;
}
);
unicode = 0061;
userData = {
com.schriftgestaltung.Glyphs.ColorIndex = 4;
com.typemytype.robofont.guides = (
{
angle = 90;
isGlobal = 0;
magnetic = 5;
x = 306;
y = 501;
},
{
angle = 0;
isGlobal = 0;
magnetic = 5;
x = 88;
y = 270;
}
);
com.typesupply.AccentFactory.yCoordinates = {
bottom = {
name = origin;
type = glyphMetric;
};
top = {
name = xHeight;
type = fontInfo;
};
};
};
},
{
color = 4;
glyphname = aogonek;
lastChange = "2024-08-04 21:39:38 +0000";
layers = (
{
anchors = (
{
name = bottom;
position = "{339, 0}";
},
{
name = ogonek;
position = "{610, 10}";
},
{
name = top;
position = "{339, 551}";
}
);
layerId = "4D0F633C-81E1-4D6C-A640-637CE706A5C5";
paths = (
{
closed = 1;
nodes = (
"385 -7 OFFCURVE",
"457 41 OFFCURVE",
"488 120 CURVE",
"488 64 LINE SMOOTH",
"488 26 OFFCURVE",
"514 0 OFFCURVE",
"552 0 CURVE SMOOTH",
"603 0 LINE",
"603 551 LINE",
"488 551 LINE",
"488 432 LINE",
"457 510 OFFCURVE",
"385 558 OFFCURVE",
"295 558 CURVE SMOOTH",
"151 558 OFFCURVE",
"37 446 OFFCURVE",
"37 276 CURVE SMOOTH",
"37 106 OFFCURVE",
"151 -7 OFFCURVE",
"295 -7 CURVE SMOOTH"
);
},
{
closed = 1;
nodes = (
"236 92 OFFCURVE",
"154 157 OFFCURVE",
"154 276 CURVE SMOOTH",
"154 395 OFFCURVE",
"236 459 OFFCURVE",
"321 459 CURVE SMOOTH",
"406 459 OFFCURVE",
"488 395 OFFCURVE",
"488 276 CURVE SMOOTH",
"488 157 OFFCURVE",
"406 92 OFFCURVE",
"321 92 CURVE SMOOTH"
);
},
{
closed = 1;
nodes = (
"531 43 LINE SMOOTH",
"433 8 OFFCURVE",
"404 -46 OFFCURVE",
"404 -97 CURVE SMOOTH",
"404 -175 OFFCURVE",
"474 -203 OFFCURVE",
"537 -203 CURVE SMOOTH",
"566 -203 OFFCURVE",
"595 -197 OFFCURVE",
"618 -188 CURVE",
"618 -115 LINE",
"595 -124 OFFCURVE",
"571 -129 OFFCURVE",
"552 -129 CURVE SMOOTH",
"518 -129 OFFCURVE",
"497 -115 OFFCURVE",
"497 -89 CURVE SMOOTH",
"497 -65 OFFCURVE",
"511 -47 OFFCURVE",
"554 -25 CURVE SMOOTH",
"603 0 LINE",
"573 58 LINE"
);
}
);
width = 678;
},
{
anchors = (
{
name = bottom;
position = "{340, 0}";
},
{
name = ogonek;
position = "{611, 10}";
},
{
name = top;
position = "{340, 561}";
}
);
layerId = "86171893-955A-4CD1-BD1B-2F7A53CC85DC";
paths = (
{
closed = 1;
nodes = (
"338 -7 OFFCURVE",
"403 41 OFFCURVE",
"427 125 CURVE",
"427 96 LINE SMOOTH",
"427 34 OFFCURVE",
"461 0 OFFCURVE",
"523 0 CURVE SMOOTH",
"623 0 LINE",
"623 561 LINE",
"427 561 LINE",
"427 435 LINE",
"403 519 OFFCURVE",
"338 568 OFFCURVE",
"256 568 CURVE SMOOTH",
"108 568 OFFCURVE",
"24 436 OFFCURVE",
"24 280 CURVE SMOOTH",
"24 124 OFFCURVE",
"108 -7 OFFCURVE",
"256 -7 CURVE SMOOTH"
);
},
{
closed = 1;
nodes = (
"267 165 OFFCURVE",
"224 208 OFFCURVE",
"224 280 CURVE SMOOTH",
"224 352 OFFCURVE",
"267 397 OFFCURVE",
"325 397 CURVE SMOOTH",
"383 397 OFFCURVE",
"427 352 OFFCURVE",
"427 280 CURVE SMOOTH",
"427 208 OFFCURVE",
"383 165 OFFCURVE",
"325 165 CURVE SMOOTH"
);
},
{
closed = 1;
nodes = (
"546 70 LINE SMOOTH",
"405 11 OFFCURVE",
"367 -41 OFFCURVE",
"367 -103 CURVE SMOOTH",
"367 -178 OFFCURVE",
"429 -220 OFFCURVE",
"522 -220 CURVE SMOOTH",
"560 -220 OFFCURVE",
"596 -214 OFFCURVE",
"627 -204 CURVE",
"627 -99 LINE",
"596 -109 OFFCURVE",
"569 -114 OFFCURVE",
"546 -114 CURVE SMOOTH",
"522 -114 OFFCURVE",
"507 -103 OFFCURVE",
"507 -87 CURVE SMOOTH",
"507 -66 OFFCURVE",
"527 -48 OFFCURVE",
"579 -22 CURVE SMOOTH",
"623 0 LINE",
"584 86 LINE"
);
}
);
width = 679;
},
{
anchors = (
{
name = bottom;
position = "{338, 0}";
},
{
name = ogonek;
position = "{608, 10}";
},
{
name = top;
position = "{338, 546}";
}
);
layerId = "6D7935D2-FE9A-430A-A298-15DA7AF44FAE";
paths = (
{
closed = 1;
nodes = (
"403 -8 OFFCURVE",
"490 45 OFFCURVE",
"525 124 CURVE",
"525 44 LINE SMOOTH",
"525 16 OFFCURVE",
"541 0 OFFCURVE",
"569 0 CURVE SMOOTH",
"595 0 LINE",
"595 546 LINE",
"525 546 LINE",
"525 424 LINE",
"491 503 OFFCURVE",
"407 554 OFFCURVE",
"305 554 CURVE SMOOTH",
"163 554 OFFCURVE",
"48 440 OFFCURVE",
"48 274 CURVE SMOOTH",
"48 108 OFFCURVE",
"163 -8 OFFCURVE",
"305 -8 CURVE SMOOTH"
);
},
{
closed = 1;
nodes = (
"208 53 OFFCURVE",
"119 140 OFFCURVE",
"119 274 CURVE SMOOTH",
"119 408 OFFCURVE",
"208 493 OFFCURVE",
"322 493 CURVE SMOOTH",
"436 493 OFFCURVE",
"525 408 OFFCURVE",
"525 274 CURVE SMOOTH",
"525 140 OFFCURVE",
"436 53 OFFCURVE",
"322 53 CURVE SMOOTH"
);
},
{
closed = 1;
nodes = (
"521 13 LINE SMOOTH",
"442 -23 OFFCURVE",
"413 -64 OFFCURVE",
"413 -109 CURVE SMOOTH",
"413 -176 OFFCURVE",
"469 -201 OFFCURVE",
"526 -201 CURVE SMOOTH",
"550 -201 OFFCURVE",
"576 -196 OFFCURVE",
"598 -188 CURVE",
"598 -139 LINE",
"576 -148 OFFCURVE",
"553 -153 OFFCURVE",
"534 -153 CURVE SMOOTH",
"497 -153 OFFCURVE",
"472 -135 OFFCURVE",
"472 -102 CURVE SMOOTH",
"472 -76 OFFCURVE",
"488 -52 OFFCURVE",
"535 -29 CURVE SMOOTH",
"595 0 LINE",
"576 38 LINE"
);
}
);
width = 675;
}
);
unicode = 0105;
userData = {
com.schriftgestaltung.Glyphs.ColorIndex = 8;
com.typesupply.AccentFactory.compileType = manual;
};
},
{
color = 4;
glyphname = ae;
lastChange = "2024-08-05 09:36:18 +0000";
layers = (
{
background = {
paths = (
{
closed = 1;
nodes = (
"596 237 LINE",
"1047 237 LINE",
"1050 256 OFFCURVE",
"1051 274 OFFCURVE",
"1051 291 CURVE SMOOTH",
"1051 447 OFFCURVE",
"945 560 OFFCURVE",
"792 560 CURVE SMOOTH",
"714 560 OFFCURVE",
"652 536 OFFCURVE",
"599 473 CURVE",
"599 551 LINE",
"489 551 LINE",
"489 473 LINE",
"444 532 OFFCURVE",
"381 560 OFFCURVE",
"303 560 CURVE SMOOTH",
"152 560 OFFCURVE",
"37 448 OFFCURVE",
"37 278 CURVE SMOOTH",
"37 108 OFFCURVE",
"152 -9 OFFCURVE",
"297 -9 CURVE SMOOTH",
"381 -9 OFFCURVE",
"448 32 OFFCURVE",
"489 83 CURVE",
"489 0 LINE",
"599 0 LINE",
"599 83 LINE",
"638 30 OFFCURVE",
"711 -9 OFFCURVE",
"792 -9 CURVE SMOOTH",
"920 -9 OFFCURVE",
"1005 68 OFFCURVE",
"1035 164 CURVE",
"911 164 LINE",
"894 120 OFFCURVE",
"848 87 OFFCURVE",
"777 87 CURVE SMOOTH",
"697 87 OFFCURVE",
"614 147 OFFCURVE",
"614 265 CURVE SMOOTH",
"614 290 LINE SMOOTH",
"614 394 OFFCURVE",
"691 464 OFFCURVE",
"779 464 CURVE SMOOTH",
"868 464 OFFCURVE",
"931 407 OFFCURVE",
"933 319 CURVE",
"596 319 LINE"
);
},
{
closed = 1;
nodes = (
"154 278 CURVE SMOOTH",
"154 397 OFFCURVE",
"236 461 OFFCURVE",
"321 461 CURVE SMOOTH",
"407 461 OFFCURVE",
"488 394 OFFCURVE",
"488 276 CURVE SMOOTH",
"488 157 OFFCURVE",
"407 90 OFFCURVE",
"321 90 CURVE SMOOTH",
"236 90 OFFCURVE",
"154 159 OFFCURVE"
);
}
);
};
layerId = "4D0F633C-81E1-4D6C-A640-637CE706A5C5";
paths = (
{
closed = 1;
nodes = (
"385 -7 OFFCURVE",
"457 41 OFFCURVE",
"488 120 CURVE",
"488 64 LINE SMOOTH",
"488 26 OFFCURVE",
"514 0 OFFCURVE",
"552 0 CURVE SMOOTH",
"603 0 LINE",
"603 551 LINE",
"488 551 LINE",
"488 432 LINE",
"457 511 OFFCURVE",
"385 558 OFFCURVE",
"295 558 CURVE SMOOTH",
"151 558 OFFCURVE",
"37 445 OFFCURVE",
"37 275 CURVE SMOOTH",
"37 105 OFFCURVE",
"151 -7 OFFCURVE",
"295 -7 CURVE SMOOTH"
);
},
{
closed = 1;
nodes = (
"236 92 OFFCURVE",
"154 156 OFFCURVE",
"154 275 CURVE SMOOTH",
"154 394 OFFCURVE",
"236 459 OFFCURVE",
"321 459 CURVE SMOOTH",
"406 459 OFFCURVE",
"488 395 OFFCURVE",
"488 276 CURVE SMOOTH",
"488 157 OFFCURVE",
"406 92 OFFCURVE",
"321 92 CURVE SMOOTH"
);
},
{
closed = 1;
nodes = (
"922 -7 OFFCURVE",
"1015 32 OFFCURVE",
"1082 121 CURVE",
"997 182 LINE",
"959 127 OFFCURVE",
"889 89 OFFCURVE",
"821 89 CURVE SMOOTH",
"736 89 OFFCURVE",
"663 138 OFFCURVE",
"649 205 CURVE",
"651 205 OFFCURVE",
"692 203 OFFCURVE",
"713 202 CURVE SMOOTH",
"869 195 OFFCURVE",
"1054 234 OFFCURVE",
"1054 376 CURVE SMOOTH",
"1054 477 OFFCURVE",
"957 558 OFFCURVE",
"819 558 CURVE SMOOTH",
"663 558 OFFCURVE",
"527 445 OFFCURVE",
"527 272 CURVE SMOOTH",
"527 113 OFFCURVE",
"642 -7 OFFCURVE",
"821 -7 CURVE SMOOTH"
);
},
{
closed = 1;
nodes = (
"689 293 OFFCURVE",
"660 294 OFFCURVE",
"642 296 CURVE",
"645 384 OFFCURVE",
"721 462 OFFCURVE",
"825 462 CURVE SMOOTH",
"894 462 OFFCURVE",
"941 425 OFFCURVE",
"941 380 CURVE SMOOTH",
"941 308 OFFCURVE",
"821 293 OFFCURVE",
"723 293 CURVE SMOOTH"
);
}
);
width = 1119;
},
{
associatedMasterId = "4D0F633C-81E1-4D6C-A640-637CE706A5C5";
guideLines = (
{
angle = 180;
position = "{765, 473}";
}
);
layerId = "F28C00FA-FD86-4707-9CBE-AF1AB7E52689";
name = "Sep 20 17, 15:51";
paths = (
{
closed = 1;
nodes = (
"596 237 LINE",
"1047 237 LINE",
"1050 256 OFFCURVE",
"1051 274 OFFCURVE",
"1051 291 CURVE SMOOTH",
"1051 447 OFFCURVE",
"945 560 OFFCURVE",
"792 560 CURVE SMOOTH",
"714 560 OFFCURVE",
"652 536 OFFCURVE",
"599 473 CURVE",
"599 551 LINE",
"489 551 LINE",
"489 473 LINE",
"444 532 OFFCURVE",
"381 560 OFFCURVE",
"303 560 CURVE SMOOTH",
"152 560 OFFCURVE",
"37 448 OFFCURVE",
"37 278 CURVE SMOOTH",
"37 108 OFFCURVE",
"152 -9 OFFCURVE",
"297 -9 CURVE SMOOTH",
"381 -9 OFFCURVE",
"448 32 OFFCURVE",
"489 83 CURVE",
"489 0 LINE",
"599 0 LINE",
"599 83 LINE",
"638 30 OFFCURVE",
"711 -9 OFFCURVE",
"792 -9 CURVE SMOOTH",
"920 -9 OFFCURVE",
"1005 68 OFFCURVE",
"1035 164 CURVE",
"911 164 LINE",
"894 120 OFFCURVE",
"848 87 OFFCURVE",
"777 87 CURVE SMOOTH",
"697 87 OFFCURVE",
"614 147 OFFCURVE",
"614 265 CURVE SMOOTH",
"614 290 LINE SMOOTH",
"614 394 OFFCURVE",
"691 464 OFFCURVE",
"779 464 CURVE SMOOTH",
"868 464 OFFCURVE",
"931 407 OFFCURVE",
"933 319 CURVE",
"596 319 LINE"
);
},
{
closed = 1;
nodes = (
"154 278 CURVE SMOOTH",
"154 397 OFFCURVE",
"236 461 OFFCURVE",
"321 461 CURVE SMOOTH",
"407 461 OFFCURVE",
"488 394 OFFCURVE",
"488 276 CURVE SMOOTH",
"488 157 OFFCURVE",
"407 90 OFFCURVE",
"321 90 CURVE SMOOTH",
"236 90 OFFCURVE",
"154 159 OFFCURVE"
);
}
);
width = 1088;
},
{
associatedMasterId = "4D0F633C-81E1-4D6C-A640-637CE706A5C5";
background = {
paths = (
{
closed = 1;
nodes = (
"596 237 LINE",
"1047 237 LINE",
"1050 256 OFFCURVE",
"1051 274 OFFCURVE",
"1051 291 CURVE SMOOTH",
"1051 447 OFFCURVE",
"945 560 OFFCURVE",
"792 560 CURVE SMOOTH",
"714 560 OFFCURVE",
"652 536 OFFCURVE",
"599 473 CURVE",
"599 551 LINE",
"489 551 LINE",
"489 473 LINE",
"444 532 OFFCURVE",
"381 560 OFFCURVE",
"303 560 CURVE SMOOTH",
"152 560 OFFCURVE",
"37 448 OFFCURVE",
"37 278 CURVE SMOOTH",
"37 108 OFFCURVE",
"152 -9 OFFCURVE",
"297 -9 CURVE SMOOTH",
"381 -9 OFFCURVE",
"448 32 OFFCURVE",
"489 83 CURVE",
"489 0 LINE",
"599 0 LINE",
"599 83 LINE",
"638 30 OFFCURVE",
"711 -9 OFFCURVE",
"792 -9 CURVE SMOOTH",
"920 -9 OFFCURVE",
"1005 68 OFFCURVE",
"1035 164 CURVE",
"911 164 LINE",
"894 120 OFFCURVE",
"848 87 OFFCURVE",
"777 87 CURVE SMOOTH",
"697 87 OFFCURVE",
"614 147 OFFCURVE",
"614 265 CURVE SMOOTH",
"614 290 LINE SMOOTH",
"614 394 OFFCURVE",
"691 464 OFFCURVE",
"779 464 CURVE SMOOTH",
"868 464 OFFCURVE",
"931 407 OFFCURVE",
"933 319 CURVE",
"596 319 LINE"
);
},
{
closed = 1;
nodes = (
"154 278 CURVE SMOOTH",
"154 397 OFFCURVE",
"236 461 OFFCURVE",
"321 461 CURVE SMOOTH",
"407 461 OFFCURVE",
"488 394 OFFCURVE",
"488 276 CURVE SMOOTH",
"488 157 OFFCURVE",
"407 90 OFFCURVE",
"321 90 CURVE SMOOTH",
"236 90 OFFCURVE",
"154 159 OFFCURVE"
);
}
);
};
guideLines = (
{
angle = 180;
position = "{765, 473}";
}
);
layerId = "B571E213-2767-49E5-BB94-1DA67743BFD7";
name = "Sep 20 17, 15:52";
paths = (
{
closed = 1;
nodes = (
"596 237 LINE",
"1047 237 LINE",
"1050 256 OFFCURVE",
"1051 274 OFFCURVE",
"1051 291 CURVE SMOOTH",
"1051 447 OFFCURVE",
"945 560 OFFCURVE",
"792 560 CURVE SMOOTH",
"714 560 OFFCURVE",
"652 536 OFFCURVE",
"599 473 CURVE",
"599 551 LINE",
"489 551 LINE",
"489 473 LINE",
"444 532 OFFCURVE",
"381 560 OFFCURVE",
"303 560 CURVE SMOOTH",
"152 560 OFFCURVE",
"37 448 OFFCURVE",
"37 278 CURVE SMOOTH",
"37 108 OFFCURVE",
"152 -9 OFFCURVE",
"297 -9 CURVE SMOOTH",
"381 -9 OFFCURVE",
"448 32 OFFCURVE",
"489 83 CURVE",
"489 0 LINE",
"599 0 LINE",
"599 83 LINE",
"638 30 OFFCURVE",
"711 -9 OFFCURVE",
"792 -9 CURVE SMOOTH",
"920 -9 OFFCURVE",
"1005 68 OFFCURVE",
"1035 164 CURVE",
"911 164 LINE",
"894 120 OFFCURVE",
"848 87 OFFCURVE",
"777 87 CURVE SMOOTH",
"697 87 OFFCURVE",
"614 147 OFFCURVE",
"614 265 CURVE SMOOTH",
"614 290 LINE SMOOTH",
"614 394 OFFCURVE",
"691 464 OFFCURVE",
"779 464 CURVE SMOOTH",
"868 464 OFFCURVE",
"931 407 OFFCURVE",
"933 319 CURVE",
"596 319 LINE"
);
},
{
closed = 1;
nodes = (
"154 278 CURVE SMOOTH",
"154 397 OFFCURVE",
"236 461 OFFCURVE",
"321 461 CURVE SMOOTH",
"407 461 OFFCURVE",
"488 394 OFFCURVE",
"488 276 CURVE SMOOTH",
"488 157 OFFCURVE",
"407 90 OFFCURVE",
"321 90 CURVE SMOOTH",
"236 90 OFFCURVE",
"154 159 OFFCURVE"
);
}
);
width = 1088;
},
{
layerId = "86171893-955A-4CD1-BD1B-2F7A53CC85DC";
paths = (
{
closed = 1;
nodes = (
"338 -7 OFFCURVE",
"403 41 OFFCURVE",
"427 125 CURVE",
"427 96 LINE SMOOTH",
"427 34 OFFCURVE",
"461 0 OFFCURVE",
"523 0 CURVE SMOOTH",
"623 0 LINE",
"623 561 LINE",
"427 561 LINE",
"427 435 LINE",
"403 519 OFFCURVE",
"338 568 OFFCURVE",
"256 568 CURVE SMOOTH",
"108 568 OFFCURVE",
"24 436 OFFCURVE",
"24 280 CURVE SMOOTH",
"24 124 OFFCURVE",
"108 -7 OFFCURVE",
"256 -7 CURVE SMOOTH"
);
},
{
closed = 1;
nodes = (
"267 165 OFFCURVE",
"224 208 OFFCURVE",
"224 280 CURVE SMOOTH",
"224 352 OFFCURVE",
"267 397 OFFCURVE",
"325 397 CURVE SMOOTH",
"383 397 OFFCURVE",
"427 352 OFFCURVE",
"427 280 CURVE SMOOTH",
"427 208 OFFCURVE",
"383 165 OFFCURVE",
"325 165 CURVE SMOOTH"
);
},
{
closed = 1;
nodes = (
"913 -7 OFFCURVE",
"1019 31 OFFCURVE",
"1078 107 CURVE",
"958 204 LINE",
"927 170 OFFCURVE",
"874 136 OFFCURVE",
"813 136 CURVE SMOOTH",
"756 136 OFFCURVE",
"702 165 OFFCURVE",
"693 200 CURVE",
"705 199 OFFCURVE",
"717 199 OFFCURVE",
"730 199 CURVE SMOOTH",
"875 199 OFFCURVE",
"1051 242 OFFCURVE",
"1051 380 CURVE SMOOTH",
"1051 498 OFFCURVE",
"919 568 OFFCURVE",
"794 568 CURVE SMOOTH",
"632 568 OFFCURVE",
"498 447 OFFCURVE",
"498 276 CURVE SMOOTH",
"498 90 OFFCURVE",
"655 -7 OFFCURVE",
"809 -7 CURVE SMOOTH"
);
},
{
closed = 1;
nodes = (
"711 320 OFFCURVE",
"692 321 OFFCURVE",
"683 322 CURVE",
"686 363 OFFCURVE",
"724 425 OFFCURVE",
"793 425 CURVE SMOOTH",
"827 425 OFFCURVE",
"865 408 OFFCURVE",
"865 380 CURVE SMOOTH",
"865 331 OFFCURVE",
"788 320 OFFCURVE",
"726 320 CURVE SMOOTH"
);
}
);
width = 1102;
},
{
layerId = "6D7935D2-FE9A-430A-A298-15DA7AF44FAE";
paths = (
{
closed = 1;
nodes = (
"403 -7 OFFCURVE",
"490 45 OFFCURVE",
"525 124 CURVE",
"525 44 LINE SMOOTH",
"525 16 OFFCURVE",
"541 0 OFFCURVE",
"569 0 CURVE SMOOTH",
"595 0 LINE",
"595 546 LINE",
"525 546 LINE",
"525 424 LINE",
"491 503 OFFCURVE",
"407 553 OFFCURVE",
"305 553 CURVE SMOOTH",
"163 553 OFFCURVE",
"48 440 OFFCURVE",
"48 274 CURVE SMOOTH",
"48 108 OFFCURVE",
"163 -7 OFFCURVE",
"305 -7 CURVE SMOOTH"
);
},
{
closed = 1;
nodes = (
"208 54 OFFCURVE",
"119 140 OFFCURVE",
"119 274 CURVE SMOOTH",
"119 408 OFFCURVE",
"208 492 OFFCURVE",
"322 492 CURVE SMOOTH",
"436 492 OFFCURVE",
"525 408 OFFCURVE",
"525 274 CURVE SMOOTH",
"525 140 OFFCURVE",
"436 54 OFFCURVE",
"322 54 CURVE SMOOTH"
);
},
{
closed = 1;
nodes = (
"948 -7 OFFCURVE",
"1038 58 OFFCURVE",
"1079 112 CURVE",
"1028 152 LINE",
"994 113 OFFCURVE",
"920 54 OFFCURVE",
"828 54 CURVE SMOOTH",
"703 54 OFFCURVE",
"620 133 OFFCURVE",
"611 224 CURVE",
"647 219 OFFCURVE",
"691 215 OFFCURVE",
"738 215 CURVE SMOOTH",
"886 215 OFFCURVE",
"1051 249 OFFCURVE",
"1051 388 CURVE SMOOTH",
"1051 480 OFFCURVE",
"959 553 OFFCURVE",
"828 553 CURVE SMOOTH",
"678 553 OFFCURVE",
"539 429 OFFCURVE",
"539 269 CURVE SMOOTH",
"539 94 OFFCURVE",
"666 -7 OFFCURVE",
"828 -7 CURVE SMOOTH"
);
},
{
closed = 1;
nodes = (
"680 276 OFFCURVE",
"635 279 OFFCURVE",
"607 284 CURVE",
"612 387 OFFCURVE",
"707 492 OFFCURVE",
"832 492 CURVE SMOOTH",
"914 492 OFFCURVE",
"983 446 OFFCURVE",
"983 382 CURVE SMOOTH",
"983 301 OFFCURVE",
"846 276 OFFCURVE",
"731 276 CURVE SMOOTH"
);
}
);
width = 1127;
}
);
unicode = 00E6;
userData = {
com.schriftgestaltung.Glyphs.ColorIndex = 4;
com.typemytype.robofont.layerData = {
b = {
anchors = (
);
components = (
);
contours = (
{
points = (
{
segmentType = line;
smooth = 0;
x = 547;
y = 261;
},
{
segmentType = line;
smooth = 0;
x = 1043;
y = 261;
},
{
smooth = 0;
x = 1046;
y = 280;
},
{
smooth = 0;
x = 1047;
y = 298;
},
{
segmentType = curve;
smooth = 1;
x = 1047;
y = 315;
},
{
smooth = 0;
x = 1047;
y = 439;
},
{
smooth = 0;
x = 956;
y = 552;
},
{
segmentType = curve;
smooth = 1;
x = 799;
y = 552;
},
{
smooth = 0;
x = 703;
y = 552;
},
{
smooth = 0;
x = 638;
y = 528;
},
{
segmentType = curve;
smooth = 0;
x = 582;
y = 437;
},
{
segmentType = line;
smooth = 0;
x = 582;
y = 540;
},
{
segmentType = line;
smooth = 0;
x = 562;
y = 540;
},
{
segmentType = line;
smooth = 0;
x = 562;
y = 437;
},
{
smooth = 0;
x = 508;
y = 528;
},
{
smooth = 0;
x = 432;
y = 552;
},
{
segmentType = curve;
smooth = 1;
x = 344;
y = 552;
},
{
smooth = 0;
x = 174;
y = 552;
},
{
smooth = 0;
x = 60;
y = 448;
},
{
segmentType = curve;
smooth = 1;
x = 60;
y = 278;
},
{
smooth = 0;
x = 60;
y = 108;
},
{
smooth = 0;
x = 174;
y = -12;
},
{
segmentType = curve;
smooth = 1;
x = 329;
y = -12;
},
{
smooth = 0;
x = 432;
y = -12;
},
{
smooth = 0;
x = 521;
y = 41;
},
{
segmentType = curve;
smooth = 0;
x = 562;
y = 105;
},
{
segmentType = line;
smooth = 0;
x = 562;
y = 0;
},
{
segmentType = line;
smooth = 0;
x = 582;
y = 0;
},
{
segmentType = line;
smooth = 0;
x = 582;
y = 103;
},
{
smooth = 0;
x = 627;
y = 34;
},
{
smooth = 0;
x = 696;
y = -12;
},
{
segmentType = curve;
smooth = 1;
x = 780;
y = -12;
},
{
smooth = 0;
x = 924;
y = -12;
},
{
smooth = 0;
x = 995;
y = 66;
},
{
segmentType = curve;
smooth = 0;
x = 1027;
y = 137;
},
{
segmentType = line;
smooth = 0;
x = 1007;
y = 137;
},
{
smooth = 0;
x = 982;
y = 60;
},
{
smooth = 0;
x = 917;
y = -1;
},
{
segmentType = curve;
smooth = 1;
x = 807;
y = -1;
},
{
smooth = 0;
x = 667;
y = -1;
},
{
smooth = 0;
x = 561;
y = 118;
},
{
segmentType = curve;
smooth = 1;
x = 561;
y = 274;
},
{
segmentType = line;
smooth = 1;
x = 561;
y = 259;
},
{
smooth = 0;
x = 561;
y = 432;
},
{
smooth = 0;
x = 674;
y = 541;
},
{
segmentType = curve;
smooth = 1;
x = 804;
y = 541;
},
{
smooth = 0;
x = 933;
y = 541;
},
{
smooth = 0;
x = 1030;
y = 448;
},
{
segmentType = curve;
smooth = 0;
x = 1027;
y = 290;
},
{
segmentType = line;
smooth = 0;
x = 552;
y = 290;
}
);
},
{
points = (
{
segmentType = curve;
smooth = 1;
x = 81;
y = 278;
},
{
smooth = 0;
x = 81;
y = 438;
},
{
smooth = 0;
x = 192;
y = 536;
},
{
segmentType = curve;
smooth = 1;
x = 323;
y = 536;
},
{
smooth = 0;
x = 456;
y = 536;
},
{
smooth = 0;
x = 567;
y = 430;
},
{
segmentType = curve;
smooth = 1;
x = 567;
y = 270;
},
{
smooth = 0;
x = 567;
y = 110;
},
{
smooth = 0;
x = 456;
y = 5;
},
{
segmentType = curve;
smooth = 1;
x = 323;
y = 5;
},
{
smooth = 0;
x = 192;
y = 5;
},
{
smooth = 0;
x = 81;
y = 118;
}
);
}
);
lib = {
};
name = ae;
unicodes = (
);
width = 1135;
};
};
com.typesupply.AccentFactory.yCoordinates = {
bottom = {
name = origin;
type = glyphMetric;
};
top = {
name = xHeight;
type = fontInfo;
};
};
};
},
{
color = 4;
glyphname = b;
lastChange = "2024-08-04 21:06:10 +0000";
layers = (
{
background = {
paths = (
{
closed = 1;
nodes = (
"225 465 CURVE",
"225 740 LINE",
"111 740 LINE",
"111 0 LINE",
"225 0 LINE",
"225 84 LINE",
"261 34 OFFCURVE",
"326 -9 OFFCURVE",
"417 -9 CURVE SMOOTH",
"562 -9 OFFCURVE",
"676 108 OFFCURVE",
"676 278 CURVE SMOOTH",
"676 448 OFFCURVE",
"563 560 OFFCURVE",
"417 560 CURVE SMOOTH",
"330 560 OFFCURVE",
"261 517 OFFCURVE"
);
},
{
closed = 1;
nodes = (
"560 278 CURVE SMOOTH",
"560 159 OFFCURVE",
"478 90 OFFCURVE",
"392 90 CURVE SMOOTH",
"307 90 OFFCURVE",
"225 157 OFFCURVE",
"225 276 CURVE SMOOTH",
"225 394 OFFCURVE",
"307 461 OFFCURVE",
"392 461 CURVE SMOOTH",
"478 461 OFFCURVE",
"560 397 OFFCURVE"
);
}
);
};
layerId = "4D0F633C-81E1-4D6C-A640-637CE706A5C5";
paths = (
{
closed = 1;
nodes = (
"527 -7 OFFCURVE",
"641 106 OFFCURVE",
"641 276 CURVE SMOOTH",
"641 446 OFFCURVE",
"527 558 OFFCURVE",
"383 558 CURVE SMOOTH",
"293 558 OFFCURVE",
"221 510 OFFCURVE",
"190 432 CURVE",
"190 740 LINE",
"75 740 LINE",
"75 0 LINE",
"126 0 LINE SMOOTH",
"164 0 OFFCURVE",
"190 26 OFFCURVE",
"190 64 CURVE SMOOTH",
"190 120 LINE",
"221 41 OFFCURVE",
"293 -7 OFFCURVE",
"383 -7 CURVE SMOOTH"
);
},
{
closed = 1;
nodes = (
"272 92 OFFCURVE",
"190 157 OFFCURVE",
"190 276 CURVE SMOOTH",
"190 395 OFFCURVE",
"272 459 OFFCURVE",
"357 459 CURVE SMOOTH",
"442 459 OFFCURVE",
"524 395 OFFCURVE",
"524 276 CURVE SMOOTH",
"524 157 OFFCURVE",
"442 92 OFFCURVE",
"357 92 CURVE SMOOTH"
);
}
);
width = 679;
},
{
layerId = "86171893-955A-4CD1-BD1B-2F7A53CC85DC";
paths = (
{
closed = 1;
nodes = (
"571 -7 OFFCURVE",
"655 124 OFFCURVE",
"655 280 CURVE",
"655 436 OFFCURVE",
"571 568 OFFCURVE",
"423 568 CURVE",
"341 568 OFFCURVE",
"276 519 OFFCURVE",
"252 435 CURVE",
"252 740 LINE",
"56 740 LINE",
"56 0 LINE",
"156 0 LINE SMOOTH",
"218 0 OFFCURVE",
"252 34 OFFCURVE",
"252 96 CURVE SMOOTH",
"252 125 LINE",
"276 41 OFFCURVE",
"341 -7 OFFCURVE",
"423 -7 CURVE"
);
},
{
closed = 1;
nodes = (
"296 165 OFFCURVE",
"252 208 OFFCURVE",
"252 280 CURVE",
"252 352 OFFCURVE",
"296 397 OFFCURVE",
"354 397 CURVE",
"412 397 OFFCURVE",
"455 353 OFFCURVE",
"455 280 CURVE",
"455 208 OFFCURVE",
"412 165 OFFCURVE",
"354 165 CURVE"
);
}
);
width = 679;
},
{
layerId = "6D7935D2-FE9A-430A-A298-15DA7AF44FAE";
paths = (
{
closed = 1;
nodes = (
"512 -7 OFFCURVE",
"627 108 OFFCURVE",
"627 274 CURVE SMOOTH",
"627 440 OFFCURVE",
"512 553 OFFCURVE",
"370 553 CURVE SMOOTH",
"268 553 OFFCURVE",
"184 503 OFFCURVE",
"150 424 CURVE",
"150 740 LINE",
"80 740 LINE",
"80 0 LINE",
"106 0 LINE SMOOTH",
"134 0 OFFCURVE",
"150 16 OFFCURVE",
"150 44 CURVE SMOOTH",
"150 124 LINE",
"184 45 OFFCURVE",
"272 -7 OFFCURVE",
"370 -7 CURVE SMOOTH"
);
},
{
closed = 1;
nodes = (
"239 54 OFFCURVE",
"150 140 OFFCURVE",
"150 274 CURVE SMOOTH",
"150 408 OFFCURVE",
"239 492 OFFCURVE",
"353 492 CURVE SMOOTH",
"467 492 OFFCURVE",
"556 408 OFFCURVE",
"556 274 CURVE SMOOTH",
"556 140 OFFCURVE",
"467 54 OFFCURVE",
"353 54 CURVE SMOOTH"
);
}
);
width = 676;
}
);
unicode = 0062;
userData = {
com.schriftgestaltung.Glyphs.ColorIndex = 4;
com.typemytype.robofont.layerData = {
b = {
anchors = (
);
components = (
);
contours = (
{
points = (
{
segmentType = curve;
smooth = 0;
x = 105;
y = 398;
},
{
segmentType = line;
smooth = 0;
x = 105;
y = 740;
},
{
segmentType = line;
smooth = 0;
x = 85;
y = 740;
},
{
segmentType = line;
smooth = 0;
x = 85;
y = 0;
},
{
segmentType = line;
smooth = 0;
x = 105;
y = 0;
},
{
segmentType = line;
smooth = 0;
x = 105;
y = 140;
},
{
smooth = 0;
x = 137;
y = 60;
},
{
smooth = 0;
x = 223;
y = -12;
},
{
segmentType = curve;
smooth = 1;
x = 342;
y = -12;
},
{
smooth = 0;
x = 498;
y = -12;
},
{
smooth = 0;
x = 611;
y = 108;
},
{
segmentType = curve;
smooth = 1;
x = 611;
y = 278;
},
{
smooth = 0;
x = 611;
y = 448;
},
{
smooth = 0;
x = 498;
y = 552;
},
{
segmentType = curve;
smooth = 1;
x = 342;
y = 552;
},
{
smooth = 0;
x = 223;
y = 552;
},
{
smooth = 0;
x = 138;
y = 480;
}
);
},
{
points = (
{
segmentType = curve;
smooth = 1;
x = 590;
y = 278;
},
{
smooth = 0;
x = 590;
y = 118;
},
{
smooth = 0;
x = 480;
y = 5;
},
{
segmentType = curve;
smooth = 1;
x = 347;
y = 5;
},
{
smooth = 0;
x = 215;
y = 5;
},
{
smooth = 0;
x = 105;
y = 110;
},
{
segmentType = curve;
smooth = 1;
x = 105;
y = 270;
},
{
smooth = 0;
x = 105;
y = 430;
},
{
smooth = 0;
x = 215;
y = 536;
},
{
segmentType = curve;
smooth = 1;
x = 347;
y = 536;
},
{
smooth = 0;
x = 480;
y = 536;
},
{
smooth = 0;
x = 590;
y = 438;
}
);
}
);
lib = {
};
name = b;
unicodes = (
);
width = 671;
};
};
com.typesupply.AccentFactory.yCoordinates = {
bottom = {
name = origin;
type = glyphMetric;
};
top = {
name = ascender;
type = fontInfo;
};
};
};
},
{
color = 4;
glyphname = c;
lastChange = "2024-08-04 19:08:24 +0000";
layers = (
{
layerId = "4D0F633C-81E1-4D6C-A640-637CE706A5C5";
paths = (
{
closed = 1;
nodes = (
"452 -7 OFFCURVE",
"530 76 OFFCURVE",
"561 181 CURVE",
"455 206 LINE",
"434 134 OFFCURVE",
"384 89 OFFCURVE",
"307 89 CURVE SMOOTH",
"215 89 OFFCURVE",
"154 157 OFFCURVE",
"154 276 CURVE SMOOTH",
"154 395 OFFCURVE",
"215 462 OFFCURVE",
"307 462 CURVE SMOOTH",
"374 462 OFFCURVE",
"420 426 OFFCURVE",
"446 356 CURVE",
"555 391 LINE",
"516 506 OFFCURVE",
"435 558 OFFCURVE",
"307 558 CURVE SMOOTH",
"149 558 OFFCURVE",
"37 447 OFFCURVE",
"37 276 CURVE SMOOTH",
"37 105 OFFCURVE",
"149 -7 OFFCURVE",
"307 -7 CURVE SMOOTH"
);
}
);
width = 600;
},
{
layerId = "86171893-955A-4CD1-BD1B-2F7A53CC85DC";
paths = (
{
closed = 1;
nodes = (
"463 -7 OFFCURVE",
"554 94 OFFCURVE",
"577 192 CURVE",
"378 239 LINE",
"375 198 OFFCURVE",
"354 158 OFFCURVE",
"304 158 CURVE SMOOTH",
"255 158 OFFCURVE",
"224 202 OFFCURVE",
"224 281 CURVE SMOOTH",
"224 360 OFFCURVE",
"256 401 OFFCURVE",
"304 401 CURVE SMOOTH",
"345 401 OFFCURVE",
"370 374 OFFCURVE",
"379 332 CURVE",
"569 392 LINE",
"523 540 OFFCURVE",
"403 568 OFFCURVE",
"308 568 CURVE SMOOTH",
"136 568 OFFCURVE",
"24 453 OFFCURVE",
"24 281 CURVE SMOOTH",
"24 105 OFFCURVE",
"139 -7 OFFCURVE",
"308 -7 CURVE SMOOTH"
);
}
);
width = 602;
},
{
layerId = "6D7935D2-FE9A-430A-A298-15DA7AF44FAE";
paths = (
{
closed = 1;
nodes = (
"446 -7 OFFCURVE",
"537 69 OFFCURVE",
"565 183 CURVE",
"501 199 LINE",
"481 113 OFFCURVE",
"419 52 OFFCURVE",
"313 52 CURVE SMOOTH",
"206 52 OFFCURVE",
"119 125 OFFCURVE",
"119 273 CURVE SMOOTH",
"119 421 OFFCURVE",
"206 493 OFFCURVE",
"313 493 CURVE SMOOTH",
"405 493 OFFCURVE",
"464 446 OFFCURVE",
"490 365 CURVE",
"554 386 LINE",
"521 499 OFFCURVE",
"430 553 OFFCURVE",
"313 553 CURVE SMOOTH",
"159 553 OFFCURVE",
"48 446 OFFCURVE",
"48 273 CURVE SMOOTH",
"48 100 OFFCURVE",
"159 -7 OFFCURVE",
"313 -7 CURVE SMOOTH"
);
}
);
width = 613;
}
);
unicode = 0063;
userData = {
com.schriftgestaltung.Glyphs.ColorIndex = 4;
com.typemytype.robofont.guides = (
{
angle = 90;
isGlobal = 0;
magnetic = 5;
x = 287;
y = 532;
}
);
com.typesupply.AccentFactory.yCoordinates = {
bottom = {
name = origin;
type = glyphMetric;
};
top = {
name = xHeight;
type = fontInfo;
};
};
};
},
{
color = 4;
glyphname = cacute;
lastChange = "2024-08-04 19:08:30 +0000";
layers = (
{
layerId = "4D0F633C-81E1-4D6C-A640-637CE706A5C5";
paths = (
{
closed = 1;
nodes = (
"452 -7 OFFCURVE",
"530 76 OFFCURVE",
"561 181 CURVE",
"455 206 LINE",
"434 134 OFFCURVE",
"384 89 OFFCURVE",
"307 89 CURVE SMOOTH",
"215 89 OFFCURVE",
"154 157 OFFCURVE",
"154 276 CURVE SMOOTH",
"154 395 OFFCURVE",
"215 462 OFFCURVE",
"307 462 CURVE SMOOTH",
"374 462 OFFCURVE",
"420 426 OFFCURVE",
"446 356 CURVE",
"555 391 LINE",
"516 506 OFFCURVE",
"435 558 OFFCURVE",
"307 558 CURVE SMOOTH",
"149 558 OFFCURVE",
"37 447 OFFCURVE",
"37 276 CURVE SMOOTH",
"37 105 OFFCURVE",
"149 -7 OFFCURVE",
"307 -7 CURVE SMOOTH"
);
},
{
closed = 1;
nodes = (
"403 699 LINE",
"403 796 LINE",
"182 674 LINE",
"182 590 LINE"
);
}
);
width = 600;
},
{
layerId = "86171893-955A-4CD1-BD1B-2F7A53CC85DC";
paths = (
{
closed = 1;
nodes = (
"463 -7 OFFCURVE",
"554 94 OFFCURVE",
"577 192 CURVE",
"378 239 LINE",
"375 198 OFFCURVE",
"354 158 OFFCURVE",
"304 158 CURVE SMOOTH",
"255 158 OFFCURVE",
"224 202 OFFCURVE",
"224 281 CURVE SMOOTH",
"224 360 OFFCURVE",
"256 401 OFFCURVE",
"304 401 CURVE SMOOTH",
"345 401 OFFCURVE",
"370 374 OFFCURVE",
"379 332 CURVE",
"569 392 LINE",
"523 540 OFFCURVE",
"403 568 OFFCURVE",
"308 568 CURVE SMOOTH",
"136 568 OFFCURVE",
"24 453 OFFCURVE",
"24 281 CURVE SMOOTH",
"24 105 OFFCURVE",
"139 -7 OFFCURVE",
"308 -7 CURVE SMOOTH"
);
},
{
closed = 1;
nodes = (
"421 697 LINE",
"421 845 LINE",
"171 732 LINE",
"171 599 LINE"
);
}
);
width = 602;
},
{
layerId = "6D7935D2-FE9A-430A-A298-15DA7AF44FAE";
paths = (
{
closed = 1;
nodes = (
"446 -7 OFFCURVE",
"537 69 OFFCURVE",
"565 183 CURVE",
"501 199 LINE",
"481 113 OFFCURVE",
"419 52 OFFCURVE",
"313 52 CURVE SMOOTH",
"206 52 OFFCURVE",
"119 125 OFFCURVE",
"119 273 CURVE SMOOTH",
"119 421 OFFCURVE",
"206 493 OFFCURVE",
"313 493 CURVE SMOOTH",
"405 493 OFFCURVE",
"464 446 OFFCURVE",
"490 365 CURVE",
"554 386 LINE",
"521 499 OFFCURVE",
"430 553 OFFCURVE",
"313 553 CURVE SMOOTH",
"159 553 OFFCURVE",
"48 446 OFFCURVE",
"48 273 CURVE SMOOTH",
"48 100 OFFCURVE",
"159 -7 OFFCURVE",
"313 -7 CURVE SMOOTH"
);
},
{
closed = 1;
nodes = (
"400 707 LINE",
"400 770 LINE",
"195 642 LINE",
"195 588 LINE"
);
}
);
width = 613;
}
);
unicode = 0107;
userData = {
com.schriftgestaltung.Glyphs.ColorIndex = 8;
};
},
{
color = 4;
glyphname = ccaron;
lastChange = "2024-08-04 19:08:51 +0000";
layers = (
{
layerId = "4D0F633C-81E1-4D6C-A640-637CE706A5C5";
paths = (
{
closed = 1;
nodes = (
"452 -7 OFFCURVE",
"530 76 OFFCURVE",
"561 181 CURVE",
"455 206 LINE",
"434 134 OFFCURVE",
"384 89 OFFCURVE",
"307 89 CURVE SMOOTH",
"215 89 OFFCURVE",
"154 157 OFFCURVE",
"154 276 CURVE SMOOTH",
"154 395 OFFCURVE",
"215 462 OFFCURVE",
"307 462 CURVE SMOOTH",
"374 462 OFFCURVE",
"420 426 OFFCURVE",
"446 356 CURVE",
"555 391 LINE",
"516 506 OFFCURVE",
"435 558 OFFCURVE",
"307 558 CURVE SMOOTH",
"149 558 OFFCURVE",
"37 447 OFFCURVE",
"37 276 CURVE SMOOTH",
"37 105 OFFCURVE",
"149 -7 OFFCURVE",
"307 -7 CURVE SMOOTH"
);
},
{
closed = 1;
nodes = (
"443 673 LINE",
"443 762 LINE",
"300 676 LINE",
"157 762 LINE",
"157 673 LINE",
"300 590 LINE"
);
}
);
width = 600;
},
{
layerId = "86171893-955A-4CD1-BD1B-2F7A53CC85DC";
paths = (
{
closed = 1;
nodes = (
"463 -7 OFFCURVE",
"554 94 OFFCURVE",
"577 192 CURVE",
"378 239 LINE",
"375 198 OFFCURVE",
"354 158 OFFCURVE",
"304 158 CURVE SMOOTH",
"255 158 OFFCURVE",
"224 202 OFFCURVE",
"224 281 CURVE SMOOTH",
"224 360 OFFCURVE",
"256 401 OFFCURVE",
"304 401 CURVE SMOOTH",
"345 401 OFFCURVE",
"370 374 OFFCURVE",
"379 332 CURVE",
"569 392 LINE",
"523 540 OFFCURVE",
"403 568 OFFCURVE",
"308 568 CURVE SMOOTH",
"136 568 OFFCURVE",
"24 453 OFFCURVE",
"24 281 CURVE SMOOTH",
"24 105 OFFCURVE",
"139 -7 OFFCURVE",
"308 -7 CURVE SMOOTH"
);
},
{
closed = 1;
nodes = (
"460 676 LINE",
"460 807 LINE",
"301 720 LINE",
"140 807 LINE",
"140 676 LINE",
"301 599 LINE"
);
}
);
width = 602;
},
{
layerId = "6D7935D2-FE9A-430A-A298-15DA7AF44FAE";
paths = (
{
closed = 1;
nodes = (
"446 -7 OFFCURVE",
"537 69 OFFCURVE",
"565 183 CURVE",
"501 199 LINE",
"481 113 OFFCURVE",
"419 52 OFFCURVE",
"313 52 CURVE SMOOTH",
"206 52 OFFCURVE",
"119 125 OFFCURVE",
"119 273 CURVE SMOOTH",
"119 421 OFFCURVE",
"206 493 OFFCURVE",
"313 493 CURVE SMOOTH",
"405 493 OFFCURVE",
"464 446 OFFCURVE",
"490 365 CURVE",
"554 386 LINE",
"521 499 OFFCURVE",
"430 553 OFFCURVE",
"313 553 CURVE SMOOTH",
"159 553 OFFCURVE",
"48 446 OFFCURVE",
"48 273 CURVE SMOOTH",
"48 100 OFFCURVE",
"159 -7 OFFCURVE",
"313 -7 CURVE SMOOTH"
);
},
{
closed = 1;
nodes = (
"442 685 LINE",
"442 741 LINE",
"308 658 LINE",
"174 741 LINE",
"174 685 LINE",
"308 603 LINE"
);
}
);
width = 613;
}
);
unicode = 010D;
userData = {
com.schriftgestaltung.Glyphs.ColorIndex = 8;
};
},
{
color = 4;
glyphname = ccedilla;
lastChange = "2024-08-04 19:08:57 +0000";
layers = (
{
layerId = "4D0F633C-81E1-4D6C-A640-637CE706A5C5";
paths = (
{
closed = 1;
nodes = (
"452 -7 OFFCURVE",
"530 76 OFFCURVE",
"561 181 CURVE",
"455 206 LINE",
"434 134 OFFCURVE",
"384 89 OFFCURVE",
"307 89 CURVE SMOOTH",
"215 89 OFFCURVE",
"154 157 OFFCURVE",
"154 276 CURVE SMOOTH",
"154 395 OFFCURVE",
"215 462 OFFCURVE",
"307 462 CURVE SMOOTH",
"374 462 OFFCURVE",
"420 426 OFFCURVE",
"446 356 CURVE",
"555 391 LINE",
"516 506 OFFCURVE",
"435 558 OFFCURVE",
"307 558 CURVE SMOOTH",
"149 558 OFFCURVE",
"37 447 OFFCURVE",
"37 276 CURVE SMOOTH",
"37 105 OFFCURVE",
"149 -7 OFFCURVE",
"307 -7 CURVE SMOOTH"
);
},
{
closed = 1;
nodes = (
"344 -262 LINE SMOOTH",
"415 -262 OFFCURVE",
"471 -221 OFFCURVE",
"471 -153 CURVE SMOOTH",
"471 -84 OFFCURVE",
"415 -48 OFFCURVE",
"341 -48 CURVE",
"341 7 LINE",
"266 7 LINE",
"266 -116 LINE",
"321 -116 LINE SMOOTH",
"356 -116 OFFCURVE",
"377 -123 OFFCURVE",
"377 -153 CURVE SMOOTH",
"377 -183 OFFCURVE",
"356 -190 OFFCURVE",
"321 -190 CURVE SMOOTH",
"212 -190 LINE",
"212 -262 LINE"
);
}
);
width = 600;
},
{
layerId = "86171893-955A-4CD1-BD1B-2F7A53CC85DC";
paths = (
{
closed = 1;
nodes = (
"463 -7 OFFCURVE",
"554 94 OFFCURVE",
"577 192 CURVE",
"378 239 LINE",
"375 198 OFFCURVE",
"354 158 OFFCURVE",
"304 158 CURVE SMOOTH",
"255 158 OFFCURVE",
"224 202 OFFCURVE",
"224 281 CURVE SMOOTH",
"224 360 OFFCURVE",
"256 401 OFFCURVE",
"304 401 CURVE SMOOTH",
"345 401 OFFCURVE",
"370 374 OFFCURVE",
"379 332 CURVE",
"569 392 LINE",
"523 540 OFFCURVE",
"403 568 OFFCURVE",
"308 568 CURVE SMOOTH",
"136 568 OFFCURVE",
"24 453 OFFCURVE",
"24 281 CURVE SMOOTH",
"24 105 OFFCURVE",
"139 -7 OFFCURVE",
"308 -7 CURVE SMOOTH"
);
},
{
closed = 1;
nodes = (
"351 -269 LINE SMOOTH",
"419 -269 OFFCURVE",
"496 -239 OFFCURVE",
"496 -150 CURVE SMOOTH",
"496 -61 OFFCURVE",
"420 -32 OFFCURVE",
"366 -32 CURVE",
"366 7 LINE",
"250 7 LINE",
"250 -124 LINE",
"328 -124 LINE SMOOTH",
"349 -124 OFFCURVE",
"361 -130 OFFCURVE",
"361 -145 CURVE SMOOTH",
"361 -159 OFFCURVE",
"349 -166 OFFCURVE",
"328 -166 CURVE SMOOTH",
"188 -166 LINE",
"188 -269 LINE"
);
}
);
width = 602;
},
{
layerId = "6D7935D2-FE9A-430A-A298-15DA7AF44FAE";
paths = (
{
closed = 1;
nodes = (
"446 -7 OFFCURVE",
"537 69 OFFCURVE",
"565 183 CURVE",
"501 199 LINE",
"481 113 OFFCURVE",
"419 52 OFFCURVE",
"313 52 CURVE SMOOTH",
"206 52 OFFCURVE",
"119 125 OFFCURVE",
"119 273 CURVE SMOOTH",
"119 421 OFFCURVE",
"206 493 OFFCURVE",
"313 493 CURVE SMOOTH",
"405 493 OFFCURVE",
"464 446 OFFCURVE",
"490 365 CURVE",
"554 386 LINE",
"521 499 OFFCURVE",
"430 553 OFFCURVE",
"313 553 CURVE SMOOTH",
"159 553 OFFCURVE",
"48 446 OFFCURVE",
"48 273 CURVE SMOOTH",
"48 100 OFFCURVE",
"159 -7 OFFCURVE",
"313 -7 CURVE SMOOTH"
);
},
{
closed = 1;
nodes = (
"347 -258 LINE SMOOTH",
"417 -258 OFFCURVE",
"464 -220 OFFCURVE",
"464 -160 CURVE SMOOTH",
"464 -98 OFFCURVE",
"414 -65 OFFCURVE",
"336 -67 CURVE",
"336 7 LINE",
"287 7 LINE",
"287 -112 LINE",
"333 -112 LINE SMOOTH",
"383 -112 OFFCURVE",
"405 -129 OFFCURVE",
"405 -160 CURVE SMOOTH",
"405 -194 OFFCURVE",
"383 -211 OFFCURVE",
"333 -211 CURVE SMOOTH",
"247 -211 LINE",
"247 -258 LINE"
);
}
);
width = 613;
}
);
unicode = 00E7;
userData = {
com.schriftgestaltung.Glyphs.ColorIndex = 4;
};
},
{
color = 4;
glyphname = cdotaccent;
lastChange = "2024-08-04 19:09:01 +0000";
layers = (
{
layerId = "4D0F633C-81E1-4D6C-A640-637CE706A5C5";
paths = (
{
closed = 1;
nodes = (
"452 -7 OFFCURVE",
"530 76 OFFCURVE",
"561 181 CURVE",
"455 206 LINE",
"434 134 OFFCURVE",
"384 89 OFFCURVE",
"307 89 CURVE SMOOTH",
"215 89 OFFCURVE",
"154 157 OFFCURVE",
"154 276 CURVE SMOOTH",
"154 395 OFFCURVE",
"215 462 OFFCURVE",
"307 462 CURVE SMOOTH",
"374 462 OFFCURVE",
"420 426 OFFCURVE",
"446 356 CURVE",
"555 391 LINE",
"516 506 OFFCURVE",
"435 558 OFFCURVE",
"307 558 CURVE SMOOTH",
"149 558 OFFCURVE",
"37 447 OFFCURVE",
"37 276 CURVE SMOOTH",
"37 105 OFFCURVE",
"149 -7 OFFCURVE",
"307 -7 CURVE SMOOTH"
);
},
{
closed = 1;
nodes = (
"333 620 OFFCURVE",
"360 646 OFFCURVE",
"360 680 CURVE SMOOTH",
"360 713 OFFCURVE",
"333 740 OFFCURVE",
"300 740 CURVE SMOOTH",
"266 740 OFFCURVE",
"240 713 OFFCURVE",
"240 680 CURVE SMOOTH",
"240 646 OFFCURVE",
"266 620 OFFCURVE",
"300 620 CURVE SMOOTH"
);
}
);
width = 600;
},
{
layerId = "86171893-955A-4CD1-BD1B-2F7A53CC85DC";
paths = (
{
closed = 1;
nodes = (
"463 -7 OFFCURVE",
"554 94 OFFCURVE",
"577 192 CURVE",
"378 239 LINE",
"375 198 OFFCURVE",
"354 158 OFFCURVE",
"304 158 CURVE SMOOTH",
"255 158 OFFCURVE",
"224 202 OFFCURVE",
"224 281 CURVE SMOOTH",
"224 360 OFFCURVE",
"256 401 OFFCURVE",
"304 401 CURVE SMOOTH",
"345 401 OFFCURVE",
"370 374 OFFCURVE",
"379 332 CURVE",
"569 392 LINE",
"523 540 OFFCURVE",
"403 568 OFFCURVE",
"308 568 CURVE SMOOTH",
"136 568 OFFCURVE",
"24 453 OFFCURVE",
"24 281 CURVE SMOOTH",
"24 105 OFFCURVE",
"139 -7 OFFCURVE",
"308 -7 CURVE SMOOTH"
);
},
{
closed = 1;
nodes = (
"345 620 OFFCURVE",
"380 654 OFFCURVE",
"380 699 CURVE SMOOTH",
"380 745 OFFCURVE",
"345 780 OFFCURVE",
"299 780 CURVE SMOOTH",
"254 780 OFFCURVE",
"220 745 OFFCURVE",
"220 699 CURVE SMOOTH",
"220 654 OFFCURVE",
"254 620 OFFCURVE",
"299 620 CURVE SMOOTH"
);
}
);
width = 602;
},
{
layerId = "6D7935D2-FE9A-430A-A298-15DA7AF44FAE";
paths = (
{
closed = 1;
nodes = (
"446 -7 OFFCURVE",
"537 69 OFFCURVE",
"565 183 CURVE",
"501 199 LINE",
"481 113 OFFCURVE",
"419 52 OFFCURVE",
"313 52 CURVE SMOOTH",
"206 52 OFFCURVE",
"119 125 OFFCURVE",
"119 273 CURVE SMOOTH",
"119 421 OFFCURVE",
"206 493 OFFCURVE",
"313 493 CURVE SMOOTH",
"405 493 OFFCURVE",
"464 446 OFFCURVE",
"490 365 CURVE",
"554 386 LINE",
"521 499 OFFCURVE",
"430 553 OFFCURVE",
"313 553 CURVE SMOOTH",
"159 553 OFFCURVE",
"48 446 OFFCURVE",
"48 273 CURVE SMOOTH",
"48 100 OFFCURVE",
"159 -7 OFFCURVE",
"313 -7 CURVE SMOOTH"
);
},
{
closed = 1;
nodes = (
"333 613 OFFCURVE",
"354 634 OFFCURVE",
"354 659 CURVE SMOOTH",
"354 684 OFFCURVE",
"333 705 OFFCURVE",
"308 705 CURVE SMOOTH",
"283 705 OFFCURVE",
"262 684 OFFCURVE",
"262 659 CURVE SMOOTH",
"262 634 OFFCURVE",
"283 613 OFFCURVE",
"308 613 CURVE SMOOTH"
);
}
);
width = 613;
}
);
unicode = 010B;
},
{
color = 4;
glyphname = d;
lastChange = "2024-08-04 17:59:36 +0000";
layers = (
{
anchors = (
{
name = topright;
position = "{602, 740}";
}
);
background = {
paths = (
{
closed = 1;
nodes = (
"36 278 CURVE SMOOTH",
"36 108 OFFCURVE",
"151 -9 OFFCURVE",
"296 -9 CURVE SMOOTH",
"386 -9 OFFCURVE",
"452 39 OFFCURVE",
"487 103 CURVE",
"487 0 LINE",
"602 0 LINE",
"602 740 LINE",
"487 740 LINE",
"487 453 LINE",
"453 514 OFFCURVE",
"386 560 OFFCURVE",
"296 560 CURVE SMOOTH",
"151 560 OFFCURVE",
"36 448 OFFCURVE"
);
},
{
closed = 1;
nodes = (
"487 276 CURVE SMOOTH",
"487 157 OFFCURVE",
"406 90 OFFCURVE",
"320 90 CURVE SMOOTH",
"235 90 OFFCURVE",
"153 159 OFFCURVE",
"153 278 CURVE SMOOTH",
"153 397 OFFCURVE",
"235 461 OFFCURVE",
"320 461 CURVE SMOOTH",
"406 461 OFFCURVE",
"487 394 OFFCURVE"
);
}
);
};
layerId = "4D0F633C-81E1-4D6C-A640-637CE706A5C5";
paths = (
{
closed = 1;
nodes = (
"385 -7 OFFCURVE",
"457 41 OFFCURVE",
"488 120 CURVE",
"488 64 LINE SMOOTH",
"488 26 OFFCURVE",
"514 0 OFFCURVE",
"552 0 CURVE SMOOTH",
"603 0 LINE",
"603 740 LINE",
"488 740 LINE",
"488 432 LINE",
"457 510 OFFCURVE",
"385 558 OFFCURVE",
"295 558 CURVE SMOOTH",
"151 558 OFFCURVE",
"37 446 OFFCURVE",
"37 276 CURVE SMOOTH",
"37 106 OFFCURVE",
"151 -7 OFFCURVE",
"295 -7 CURVE SMOOTH"
);
},
{
closed = 1;
nodes = (
"236 92 OFFCURVE",
"154 157 OFFCURVE",
"154 276 CURVE SMOOTH",
"154 395 OFFCURVE",
"236 459 OFFCURVE",
"321 459 CURVE SMOOTH",
"406 459 OFFCURVE",
"488 395 OFFCURVE",
"488 276 CURVE SMOOTH",
"488 157 OFFCURVE",
"406 92 OFFCURVE",
"321 92 CURVE SMOOTH"
);
}
);
width = 678;
},
{
anchors = (
{
name = topright;
position = "{624, 740}";
}
);
layerId = "86171893-955A-4CD1-BD1B-2F7A53CC85DC";
paths = (
{
closed = 1;
nodes = (
"338 -7 OFFCURVE",
"403 41 OFFCURVE",
"427 125 CURVE",
"427 96 LINE SMOOTH",
"427 34 OFFCURVE",
"461 0 OFFCURVE",
"523 0 CURVE SMOOTH",
"623 0 LINE",
"623 740 LINE",
"427 740 LINE",
"427 435 LINE",
"403 519 OFFCURVE",
"338 568 OFFCURVE",
"256 568 CURVE",
"108 568 OFFCURVE",
"24 436 OFFCURVE",
"24 280 CURVE",
"24 124 OFFCURVE",
"108 -7 OFFCURVE",
"256 -7 CURVE"
);
},
{
closed = 1;
nodes = (
"267 165 OFFCURVE",
"224 208 OFFCURVE",
"224 280 CURVE",
"224 352 OFFCURVE",
"267 397 OFFCURVE",
"325 397 CURVE",
"383 397 OFFCURVE",
"427 352 OFFCURVE",
"427 280 CURVE",
"427 208 OFFCURVE",
"383 165 OFFCURVE",
"325 165 CURVE"
);
}
);
width = 679;
},
{
anchors = (
{
name = topright;
position = "{596, 740}";
}
);
layerId = "6D7935D2-FE9A-430A-A298-15DA7AF44FAE";
paths = (
{
closed = 1;
nodes = (
"403 -7 OFFCURVE",
"491 45 OFFCURVE",
"525 124 CURVE",
"525 44 LINE SMOOTH",
"525 16 OFFCURVE",
"541 0 OFFCURVE",
"569 0 CURVE SMOOTH",
"595 0 LINE",
"595 740 LINE",
"525 740 LINE",
"525 424 LINE",
"491 503 OFFCURVE",
"407 553 OFFCURVE",
"305 553 CURVE SMOOTH",
"163 553 OFFCURVE",
"48 440 OFFCURVE",
"48 274 CURVE SMOOTH",
"48 108 OFFCURVE",
"163 -7 OFFCURVE",
"305 -7 CURVE SMOOTH"
);
},
{
closed = 1;
nodes = (
"208 54 OFFCURVE",
"119 140 OFFCURVE",
"119 274 CURVE SMOOTH",
"119 408 OFFCURVE",
"208 492 OFFCURVE",
"322 492 CURVE SMOOTH",
"436 492 OFFCURVE",
"525 408 OFFCURVE",
"525 274 CURVE SMOOTH",
"525 140 OFFCURVE",
"436 54 OFFCURVE",
"322 54 CURVE SMOOTH"
);
}
);
width = 675;
}
);
unicode = 0064;
userData = {
com.schriftgestaltung.Glyphs.ColorIndex = 4;
com.typesupply.AccentFactory.yCoordinates = {
bottom = {
name = origin;
type = glyphMetric;
};
top = {
name = ascender;
type = fontInfo;
};
};
};
},
{
color = 4;
glyphname = eth;
lastChange = "2024-08-04 17:59:55 +0000";
layers = (
{
layerId = "4D0F633C-81E1-4D6C-A640-637CE706A5C5";
paths = (
{
closed = 1;
nodes = (
"264 649 LINE",
"264 588 LINE",
"551 682 LINE",
"551 743 LINE"
);
},
{
closed = 1;
nodes = (
"158 560 OFFCURVE",
"37 449 OFFCURVE",
"37 276 CURVE SMOOTH",
"37 103 OFFCURVE",
"156 -9 OFFCURVE",
"314 -9 CURVE SMOOTH",
"476 -9 OFFCURVE",
"599 101 OFFCURVE",
"599 317 CURVE SMOOTH",
"599 481 OFFCURVE",
"522 623 OFFCURVE",
"385 740 CURVE",
"269 740 LINE",
"369 658 OFFCURVE",
"430 587 OFFCURVE",
"466 503 CURVE",
"422 540 OFFCURVE",
"374 560 OFFCURVE",
"307 560 CURVE SMOOTH"
);
},
{
closed = 1;
nodes = (
"228 87 OFFCURVE",
"154 151 OFFCURVE",
"154 276 CURVE SMOOTH",
"154 401 OFFCURVE",
"231 464 OFFCURVE",
"316 464 CURVE SMOOTH",
"402 464 OFFCURVE",
"482 401 OFFCURVE",
"482 276 CURVE SMOOTH",
"482 151 OFFCURVE",
"399 87 OFFCURVE",
"314 87 CURVE SMOOTH"
);
}
);
width = 636;
},
{
layerId = "86171893-955A-4CD1-BD1B-2F7A53CC85DC";
paths = (
{
closed = 1;
nodes = (
"264 657 LINE",
"264 588 LINE",
"534 667 LINE",
"534 737 LINE"
);
},
{
closed = 1;
nodes = (
"147 566 OFFCURVE",
"24 459 OFFCURVE",
"24 282 CURVE SMOOTH",
"24 105 OFFCURVE",
"162 -7 OFFCURVE",
"325 -7 CURVE SMOOTH",
"485 -7 OFFCURVE",
"617 106 OFFCURVE",
"617 317 CURVE SMOOTH",
"617 477 OFFCURVE",
"537 633 OFFCURVE",
"427 740 CURVE",
"252 740 LINE",
"309 692 OFFCURVE",
"367 618 OFFCURVE",
"400 547 CURVE",
"368 559 OFFCURVE",
"336 566 OFFCURVE",
"302 566 CURVE SMOOTH"
);
},
{
closed = 1;
nodes = (
"279 163 OFFCURVE",
"224 196 OFFCURVE",
"224 281 CURVE SMOOTH",
"224 365 OFFCURVE",
"275 398 OFFCURVE",
"322 398 CURVE SMOOTH",
"366 398 OFFCURVE",
"417 365 OFFCURVE",
"417 281 CURVE SMOOTH",
"417 196 OFFCURVE",
"371 163 OFFCURVE",
"325 163 CURVE SMOOTH"
);
}
);
width = 641;
},
{
layerId = "6D7935D2-FE9A-430A-A298-15DA7AF44FAE";
paths = (
{
closed = 1;
nodes = (
"258 640 LINE",
"258 599 LINE",
"554 701 LINE",
"554 742 LINE"
);
},
{
closed = 1;
nodes = (
"160 553 OFFCURVE",
"48 445 OFFCURVE",
"48 279 CURVE SMOOTH",
"48 106 OFFCURVE",
"157 -7 OFFCURVE",
"318 -7 CURVE SMOOTH",
"477 -7 OFFCURVE",
"592 98 OFFCURVE",
"592 312 CURVE SMOOTH",
"592 481 OFFCURVE",
"518 617 OFFCURVE",
"366 740 CURVE",
"294 740 LINE",
"427 634 OFFCURVE",
"486 548 OFFCURVE",
"515 432 CURVE",
"475 517 OFFCURVE",
"402 553 OFFCURVE",
"314 553 CURVE SMOOTH"
);
},
{
closed = 1;
nodes = (
"206 52 OFFCURVE",
"119 131 OFFCURVE",
"119 279 CURVE SMOOTH",
"119 420 OFFCURVE",
"209 494 OFFCURVE",
"319 494 CURVE SMOOTH",
"427 494 OFFCURVE",
"521 419 OFFCURVE",
"521 273 CURVE SMOOTH",
"521 130 OFFCURVE",
"427 52 OFFCURVE",
"318 52 CURVE SMOOTH"
);
}
);
width = 640;
}
);
unicode = 00F0;
userData = {
com.schriftgestaltung.Glyphs.ColorIndex = 4;
};
},
{
color = 4;
glyphname = dcaron;
lastChange = "2024-08-04 15:20:10 +0000";
layers = (
{
components = (
{
name = d;
}
);
layerId = "4D0F633C-81E1-4D6C-A640-637CE706A5C5";
paths = (
{
closed = 1;
nodes = (
"709 514 OFFCURVE",
"785 568 OFFCURVE",
"785 659 CURVE SMOOTH",
"785 703 OFFCURVE",
"753 747 OFFCURVE",
"706 747 CURVE SMOOTH",
"666 747 OFFCURVE",
"634 720 OFFCURVE",
"634 679 CURVE SMOOTH",
"634 637 OFFCURVE",
"664 620 OFFCURVE",
"696 620 CURVE",
"709 620 OFFCURVE",
"723 624 OFFCURVE",
"730 631 CURVE",
"728 608 OFFCURVE",
"685 568 OFFCURVE",
"631 573 CURVE",
"631 521 LINE"
);
}
);
width = 795;
},
{
components = (
{
alignment = -1;
name = d;
}
);
layerId = "86171893-955A-4CD1-BD1B-2F7A53CC85DC";
paths = (
{
closed = 1;
nodes = (
"759 461 OFFCURVE",
"858 514 OFFCURVE",
"858 635 CURVE SMOOTH",
"858 693 OFFCURVE",
"816 749 OFFCURVE",
"756 749 CURVE SMOOTH",
"703 749 OFFCURVE",
"662 714 OFFCURVE",
"662 661 CURVE SMOOTH",
"662 607 OFFCURVE",
"699 585 OFFCURVE",
"743 585 CURVE",
"752 585 OFFCURVE",
"760 586 OFFCURVE",
"768 589 CURVE",
"752 560 OFFCURVE",
"709 544 OFFCURVE",
"658 546 CURVE",
"658 469 LINE"
);
}
);
width = 868;
},
{
components = (
{
alignment = -1;
name = d;
}
);
layerId = "6D7935D2-FE9A-430A-A298-15DA7AF44FAE";
paths = (
{
closed = 1;
nodes = (
"693 565 OFFCURVE",
"746 609 OFFCURVE",
"746 677 CURVE SMOOTH",
"746 709 OFFCURVE",
"723 744 OFFCURVE",
"690 744 CURVE SMOOTH",
"660 744 OFFCURVE",
"637 723 OFFCURVE",
"637 695 CURVE SMOOTH",
"637 665 OFFCURVE",
"657 652 OFFCURVE",
"683 652 CURVE",
"691 652 OFFCURVE",
"700 654 OFFCURVE",
"707 659 CURVE",
"703 630 OFFCURVE",
"672 607 OFFCURVE",
"636 609 CURVE",
"636 569 LINE"
);
}
);
width = 756;
}
);
unicode = 010F;
userData = {
com.schriftgestaltung.Glyphs.ColorIndex = 8;
com.typesupply.AccentFactory.compileType = manual;
};
},
{
color = 4;
glyphname = dcroat;
lastChange = "2024-06-17 15:24:55 +0000";
layers = (
{
components = (
{
name = d;
}
);
layerId = "4D0F633C-81E1-4D6C-A640-637CE706A5C5";
paths = (
{
closed = 1;
nodes = (
"406 590 LINE",
"662 590 LINE",
"662 656 LINE",
"406 656 LINE"
);
}
);
width = 678;
},
{
components = (
{
alignment = -1;
name = d;
}
);
layerId = "86171893-955A-4CD1-BD1B-2F7A53CC85DC";
paths = (
{
closed = 1;
nodes = (
"362 592 LINE",
"686 592 LINE",
"686 680 LINE",
"362 680 LINE"
);
}
);
width = 698;
},
{
components = (
{
alignment = -1;
name = d;
}
);
layerId = "6D7935D2-FE9A-430A-A298-15DA7AF44FAE";
paths = (
{
closed = 1;
nodes = (
"385 618 LINE",
"658 618 LINE",
"658 662 LINE",
"385 662 LINE"
);
}
);
width = 671;
}
);
unicode = 0111;
userData = {
com.schriftgestaltung.Glyphs.ColorIndex = 8;
};
},
{
color = 4;
glyphname = e;
lastChange = "2024-08-05 09:09:30 +0000";
layers = (
{
anchors = (
{
name = bottom;
position = "{316, 0}";
},
{
name = top;
position = "{316, 551}";
}
);
layerId = "4D0F633C-81E1-4D6C-A640-637CE706A5C5";
paths = (
{
closed = 1;
nodes = (
"432 -7 OFFCURVE",
"525 32 OFFCURVE",
"592 121 CURVE",
"507 182 LINE",
"469 127 OFFCURVE",
"399 89 OFFCURVE",
"331 89 CURVE SMOOTH",
"246 89 OFFCURVE",
"173 138 OFFCURVE",
"159 205 CURVE",
"161 205 OFFCURVE",
"202 203 OFFCURVE",
"223 202 CURVE SMOOTH",
"379 195 OFFCURVE",
"564 234 OFFCURVE",
"564 376 CURVE SMOOTH",
"564 477 OFFCURVE",
"467 558 OFFCURVE",
"329 558 CURVE SMOOTH",
"173 558 OFFCURVE",
"37 445 OFFCURVE",
"37 272 CURVE SMOOTH",
"37 113 OFFCURVE",
"152 -7 OFFCURVE",
"331 -7 CURVE SMOOTH"
);
},
{
closed = 1;
nodes = (
"199 293 OFFCURVE",
"170 294 OFFCURVE",
"152 296 CURVE",
"155 384 OFFCURVE",
"231 462 OFFCURVE",
"335 462 CURVE SMOOTH",
"404 462 OFFCURVE",
"451 425 OFFCURVE",
"451 380 CURVE SMOOTH",
"451 308 OFFCURVE",
"331 293 OFFCURVE",
"233 293 CURVE SMOOTH"
);
}
);
width = 619;
},
{
anchors = (
{
name = bottom;
position = "{309, 0}";
},
{
name = top;
position = "{309, 561}";
}
);
layerId = "86171893-955A-4CD1-BD1B-2F7A53CC85DC";
paths = (
{
closed = 1;
nodes = (
"439 -7 OFFCURVE",
"545 31 OFFCURVE",
"604 107 CURVE",
"484 204 LINE",
"453 170 OFFCURVE",
"400 136 OFFCURVE",
"339 136 CURVE SMOOTH",
"282 136 OFFCURVE",
"228 165 OFFCURVE",
"219 200 CURVE",
"231 199 OFFCURVE",
"243 199 OFFCURVE",
"256 199 CURVE SMOOTH",
"401 199 OFFCURVE",
"577 242 OFFCURVE",
"577 380 CURVE SMOOTH",
"577 498 OFFCURVE",
"445 568 OFFCURVE",
"320 568 CURVE SMOOTH",
"158 568 OFFCURVE",
"24 447 OFFCURVE",
"24 276 CURVE SMOOTH",
"24 90 OFFCURVE",
"181 -7 OFFCURVE",
"335 -7 CURVE SMOOTH"
);
},
{
closed = 1;
nodes = (
"237 320 OFFCURVE",
"218 321 OFFCURVE",
"209 322 CURVE",
"212 363 OFFCURVE",
"250 425 OFFCURVE",
"319 425 CURVE SMOOTH",
"353 425 OFFCURVE",
"391 408 OFFCURVE",
"391 380 CURVE SMOOTH",
"391 331 OFFCURVE",
"314 320 OFFCURVE",
"252 320 CURVE SMOOTH"
);
}
);
width = 618;
},
{
anchors = (
{
name = bottom;
position = "{318, 0}";
},
{
name = top;
position = "{318, 546}";
}
);
layerId = "6D7935D2-FE9A-430A-A298-15DA7AF44FAE";
paths = (
{
closed = 1;
nodes = (
"457 -7 OFFCURVE",
"547 58 OFFCURVE",
"588 112 CURVE",
"537 152 LINE",
"503 113 OFFCURVE",
"429 54 OFFCURVE",
"337 54 CURVE SMOOTH",
"212 54 OFFCURVE",
"129 133 OFFCURVE",
"120 224 CURVE",
"156 219 OFFCURVE",
"200 215 OFFCURVE",
"247 215 CURVE SMOOTH",
"395 215 OFFCURVE",
"560 249 OFFCURVE",
"560 388 CURVE SMOOTH",
"560 480 OFFCURVE",
"468 553 OFFCURVE",
"337 553 CURVE SMOOTH",
"187 553 OFFCURVE",
"48 429 OFFCURVE",
"48 269 CURVE SMOOTH",
"48 94 OFFCURVE",
"175 -7 OFFCURVE",
"337 -7 CURVE SMOOTH"
);
},
{
closed = 1;
nodes = (
"189 276 OFFCURVE",
"144 279 OFFCURVE",
"116 284 CURVE",
"121 387 OFFCURVE",
"216 492 OFFCURVE",
"341 492 CURVE SMOOTH",
"423 492 OFFCURVE",
"492 446 OFFCURVE",
"492 382 CURVE SMOOTH",
"492 301 OFFCURVE",
"355 276 OFFCURVE",
"240 276 CURVE SMOOTH"
);
}
);
width = 626;
}
);
unicode = 0065;
userData = {
com.schriftgestaltung.Glyphs.ColorIndex = 4;
com.typemytype.robofont.layerData = {
b = {
anchors = (
{
name = top;
x = 314;
y = 540;
},
{
name = ogonek;
x = 442;
y = 45;
},
{
name = bottom;
x = 314;
y = 0;
}
);
components = (
);
contours = (
{
points = (
{
segmentType = line;
smooth = 0;
x = 54;
y = 261;
},
{
segmentType = line;
smooth = 0;
x = 564;
y = 261;
},
{
smooth = 0;
x = 567;
y = 280;
},
{
smooth = 0;
x = 568;
y = 298;
},
{
segmentType = curve;
smooth = 1;
x = 568;
y = 315;
},
{
smooth = 0;
x = 568;
y = 434;
},
{
smooth = 0;
x = 482;
y = 552;
},
{
segmentType = curve;
smooth = 1;
x = 330;
y = 552;
},
{
smooth = 0;
x = 164;
y = 552;
},
{
smooth = 0;
x = 60;
y = 438;
},
{
segmentType = curve;
smooth = 1;
x = 60;
y = 270;
},
{
smooth = 0;
x = 60;
y = 103;
},
{
smooth = 0;
x = 164;
y = -12;
},
{
segmentType = curve;
smooth = 1;
x = 316;
y = -12;
},
{
smooth = 0;
x = 451;
y = -12;
},
{
smooth = 0;
x = 516;
y = 66;
},
{
segmentType = curve;
smooth = 0;
x = 548;
y = 137;
},
{
segmentType = line;
smooth = 0;
x = 528;
y = 137;
},
{
smooth = 0;
x = 505;
y = 60;
},
{
smooth = 0;
x = 424;
y = -1;
},
{
segmentType = curve;
smooth = 1;
x = 316;
y = -1;
},
{
smooth = 0;
x = 186;
y = -1;
},
{
smooth = 0;
x = 81;
y = 93;
},
{
segmentType = curve;
smooth = 1;
x = 81;
y = 269;
},
{
segmentType = line;
smooth = 1;
x = 81;
y = 274;
},
{
smooth = 0;
x = 81;
y = 447;
},
{
smooth = 0;
x = 183;
y = 541;
},
{
segmentType = curve;
smooth = 1;
x = 316;
y = 541;
},
{
smooth = 0;
x = 448;
y = 541;
},
{
smooth = 0;
x = 551;
y = 448;
},
{
segmentType = curve;
smooth = 0;
x = 549;
y = 290;
},
{
segmentType = line;
smooth = 0;
x = 53;
y = 290;
}
);
}
);
lib = {
};
name = e;
unicodes = (
);
width = 628;
};
};
com.typesupply.AccentFactory.yCoordinates = {
bottom = {
name = origin;
type = glyphMetric;
};
top = {
name = xHeight;
type = fontInfo;
};
};
};
},
{
color = 4;
glyphname = eogonek;
lastChange = "2024-08-04 21:07:19 +0000";
layers = (
{
background = {
paths = (
{
closed = 1;
nodes = (
"37 276 CURVE SMOOTH",
"37 113 OFFCURVE",
"137 4 OFFCURVE",
"281 -8 CURVE",
"279 -14 OFFCURVE",
"278 -22 OFFCURVE",
"278 -30 CURVE SMOOTH",
"278 -99 OFFCURVE",
"335 -139 OFFCURVE",
"406 -139 CURVE SMOOTH",
"512 -139 LINE",
"512 -67 LINE",
"428 -67 LINE SMOOTH",
"393 -67 OFFCURVE",
"372 -60 OFFCURVE",
"372 -30 CURVE SMOOTH",
"372 -9 OFFCURVE",
"387 0 OFFCURVE",
"414 10 CURVE SMOOTH",
"481 35 OFFCURVE",
"537 90 OFFCURVE",
"561 164 CURVE",
"438 164 LINE",
"417 121 OFFCURVE",
"377 87 OFFCURVE",
"307 87 CURVE SMOOTH",
"218 87 OFFCURVE",
"154 150 OFFCURVE",
"154 251 CURVE SMOOTH",
"154 295 LINE SMOOTH",
"154 400 OFFCURVE",
"221 464 OFFCURVE",
"307 464 CURVE SMOOTH",
"392 464 OFFCURVE",
"459 407 OFFCURVE",
"461 315 CURVE",
"143 315 LINE",
"142 237 LINE",
"576 237 LINE",
"579 256 OFFCURVE",
"580 274 OFFCURVE",
"580 291 CURVE SMOOTH",
"580 451 OFFCURVE",
"469 560 OFFCURVE",
"312 560 CURVE SMOOTH",
"149 560 OFFCURVE",
"37 449 OFFCURVE"
);
}
);
};
layerId = "4D0F633C-81E1-4D6C-A640-637CE706A5C5";
paths = (
{
closed = 1;
nodes = (
"345 -211 OFFCURVE",
"374 -205 OFFCURVE",
"397 -196 CURVE",
"397 -123 LINE",
"374 -132 OFFCURVE",
"350 -137 OFFCURVE",
"331 -137 CURVE SMOOTH",
"297 -137 OFFCURVE",
"276 -119 OFFCURVE",
"276 -91 CURVE SMOOTH",
"276 -67 OFFCURVE",
"290 -47 OFFCURVE",
"333 -25 CURVE SMOOTH",
"369 -7 LINE",
"459 1 OFFCURVE",
"547 41 OFFCURVE",
"607 120 CURVE",
"522 181 LINE",
"484 123 OFFCURVE",
"404 88 OFFCURVE",
"336 88 CURVE SMOOTH",
"249 88 OFFCURVE",
"174 136 OFFCURVE",
"160 202 CURVE",
"193 200 OFFCURVE",
"241 200 OFFCURVE",
"248 200 CURVE SMOOTH",
"410 200 OFFCURVE",
"577 250 OFFCURVE",
"577 375 CURVE SMOOTH",
"577 476 OFFCURVE",
"471 560 OFFCURVE",
"333 560 CURVE SMOOTH",
"177 560 OFFCURVE",
"37 445 OFFCURVE",
"37 272 CURVE SMOOTH",
"37 141 OFFCURVE",
"118 36 OFFCURVE",
"246 3 CURVE",
"201 -30 OFFCURVE",
"183 -66 OFFCURVE",
"183 -103 CURVE SMOOTH",
"183 -183 OFFCURVE",
"253 -211 OFFCURVE",
"316 -211 CURVE SMOOTH"
);
},
{
closed = 1;
nodes = (
"201 295 OFFCURVE",
"175 296 OFFCURVE",
"150 298 CURVE",
"153 386 OFFCURVE",
"234 464 OFFCURVE",
"339 464 CURVE SMOOTH",
"410 464 OFFCURVE",
"461 435 OFFCURVE",
"461 390 CURVE SMOOTH",
"461 316 OFFCURVE",
"345 295 OFFCURVE",
"227 295 CURVE SMOOTH"
);
}
);
width = 644;
},
{
layerId = "86171893-955A-4CD1-BD1B-2F7A53CC85DC";
paths = (
{
closed = 1;
nodes = (
"342 -211 OFFCURVE",
"378 -205 OFFCURVE",
"409 -195 CURVE",
"409 -90 LINE",
"378 -100 OFFCURVE",
"351 -105 OFFCURVE",
"328 -105 CURVE SMOOTH",
"304 -105 OFFCURVE",
"289 -94 OFFCURVE",
"289 -78 CURVE SMOOTH",
"289 -57 OFFCURVE",
"311 -36 OFFCURVE",
"361 -13 CURVE SMOOTH",
"382 -4 LINE",
"466 7 OFFCURVE",
"545 45 OFFCURVE",
"594 114 CURVE",
"460 212 LINE",
"434 176 OFFCURVE",
"376 149 OFFCURVE",
"325 148 CURVE SMOOTH",
"282 148 OFFCURVE",
"239 164 OFFCURVE",
"224 205 CURVE",
"235 205 OFFCURVE",
"249 205 OFFCURVE",
"262 206 CURVE SMOOTH",
"384 213 OFFCURVE",
"569 250 OFFCURVE",
"569 381 CURVE SMOOTH",
"569 499 OFFCURVE",
"445 568 OFFCURVE",
"320 568 CURVE SMOOTH",
"158 568 OFFCURVE",
"24 439 OFFCURVE",
"24 268 CURVE SMOOTH",
"24 130 OFFCURVE",
"107 46 OFFCURVE",
"211 12 CURVE",
"205 9 OFFCURVE",
"149 -28 OFFCURVE",
"149 -94 CURVE SMOOTH",
"149 -169 OFFCURVE",
"211 -211 OFFCURVE",
"304 -211 CURVE SMOOTH"
);
},
{
closed = 1;
nodes = (
"217 366 OFFCURVE",
"254 422 OFFCURVE",
"319 422 CURVE SMOOTH",
"351 422 OFFCURVE",
"377 407 OFFCURVE",
"377 379 CURVE SMOOTH",
"377 341 OFFCURVE",
"321 330 OFFCURVE",
"269 326 CURVE SMOOTH",
"249 324 OFFCURVE",
"226 324 OFFCURVE",
"214 325 CURVE"
);
}
);
width = 618;
},
{
layerId = "6D7935D2-FE9A-430A-A298-15DA7AF44FAE";
paths = (
{
closed = 1;
nodes = (
"348 -201 OFFCURVE",
"374 -196 OFFCURVE",
"396 -188 CURVE",
"396 -139 LINE",
"374 -148 OFFCURVE",
"351 -153 OFFCURVE",
"332 -153 CURVE SMOOTH",
"295 -153 OFFCURVE",
"270 -135 OFFCURVE",
"270 -102 CURVE SMOOTH",
"270 -76 OFFCURVE",
"286 -52 OFFCURVE",
"333 -29 CURVE SMOOTH",
"386 -3 LINE",
"463 8 OFFCURVE",
"535 46 OFFCURVE",
"588 112 CURVE",
"533 155 LINE",
"470 85 OFFCURVE",
"401 56 OFFCURVE",
"335 56 CURVE SMOOTH",
"220 56 OFFCURVE",
"132 131 OFFCURVE",
"120 223 CURVE",
"156 218 OFFCURVE",
"200 214 OFFCURVE",
"247 214 CURVE SMOOTH",
"395 214 OFFCURVE",
"560 251 OFFCURVE",
"560 388 CURVE SMOOTH",
"560 481 OFFCURVE",
"454 553 OFFCURVE",
"333 553 CURVE SMOOTH",
"181 553 OFFCURVE",
"48 431 OFFCURVE",
"48 269 CURVE SMOOTH",
"48 110 OFFCURVE",
"156 16 OFFCURVE",
"287 -3 CURVE",
"232 -35 OFFCURVE",
"211 -71 OFFCURVE",
"211 -109 CURVE SMOOTH",
"211 -176 OFFCURVE",
"267 -201 OFFCURVE",
"324 -201 CURVE SMOOTH"
);
},
{
closed = 1;
nodes = (
"189 277 OFFCURVE",
"144 280 OFFCURVE",
"116 285 CURVE",
"121 387 OFFCURVE",
"216 492 OFFCURVE",
"341 492 CURVE SMOOTH",
"423 492 OFFCURVE",
"492 447 OFFCURVE",
"492 384 CURVE SMOOTH",
"492 298 OFFCURVE",
"357 277 OFFCURVE",
"240 277 CURVE SMOOTH"
);
}
);
width = 636;
}
);
unicode = 0119;
userData = {
com.schriftgestaltung.Glyphs.ColorIndex = 8;
};
},
{
color = 4;
glyphname = f;
lastChange = "2024-08-04 19:11:49 +0000";
layers = (
{
anchors = (
{
name = bottom;
position = "{166, 0}";
},
{
name = top;
position = "{166, 740}";
}
);
layerId = "4D0F633C-81E1-4D6C-A640-637CE706A5C5";
paths = (
{
closed = 1;
nodes = (
"204 0 LINE",
"204 458 LINE",
"306 458 LINE",
"306 551 LINE",
"204 551 LINE",
"204 590 LINE SMOOTH",
"204 654 OFFCURVE",
"229 677 OFFCURVE",
"298 677 CURVE",
"298 772 LINE",
"154 772 OFFCURVE",
"89 717 OFFCURVE",
"89 590 CURVE SMOOTH",
"89 551 LINE",
"24 551 LINE",
"24 458 LINE",
"89 458 LINE",
"89 0 LINE"
);
}
);
width = 332;
},
{
anchors = (
{
name = bottom;
position = "{187, 0}";
},
{
name = top;
position = "{187, 740}";
}
);
layerId = "86171893-955A-4CD1-BD1B-2F7A53CC85DC";
paths = (
{
closed = 1;
nodes = (
"271 0 LINE",
"271 398 LINE",
"359 398 LINE",
"359 561 LINE",
"271 561 LINE",
"271 570 LINE SMOOTH",
"271 628 OFFCURVE",
"335 624 OFFCURVE",
"357 622 CURVE",
"357 788 LINE",
"230 799 OFFCURVE",
"74 754 OFFCURVE",
"74 566 CURVE SMOOTH",
"74 561 LINE",
"13 561 LINE",
"13 398 LINE",
"74 398 LINE",
"74 0 LINE"
);
}
);
width = 373;
},
{
anchors = (
{
name = bottom;
position = "{162, 0}";
},
{
name = top;
position = "{162, 740}";
}
);
layerId = "6D7935D2-FE9A-430A-A298-15DA7AF44FAE";
paths = (
{
closed = 1;
nodes = (
"168 0 LINE",
"168 487 LINE",
"295 487 LINE",
"295 546 LINE",
"168 546 LINE",
"168 584 LINE SMOOTH",
"168 665 OFFCURVE",
"200 697 OFFCURVE",
"291 697 CURVE",
"291 757 LINE",
"155 757 OFFCURVE",
"98 703 OFFCURVE",
"98 584 CURVE SMOOTH",
"98 546 LINE",
"22 546 LINE",
"22 487 LINE",
"98 487 LINE",
"98 0 LINE"
);
}
);
width = 325;
}
);
unicode = 0066;
userData = {
com.schriftgestaltung.Glyphs.ColorIndex = 4;
com.typemytype.robofont.layerData = {
b = {
anchors = (
);
components = (
);
contours = (
{
points = (
{
segmentType = line;
smooth = 0;
x = 108;
y = 0;
},
{
segmentType = line;
smooth = 0;
x = 128;
y = 0;
},
{
segmentType = line;
smooth = 1;
x = 128;
y = 609;
},
{
smooth = 0;
x = 128;
y = 701;
},
{
smooth = 0;
x = 162;
y = 742;
},
{
segmentType = curve;
smooth = 0;
x = 275;
y = 742;
},
{
segmentType = line;
smooth = 0;
x = 275;
y = 753;
},
{
smooth = 0;
x = 158;
y = 753;
},
{
smooth = 0;
x = 108;
y = 711;
},
{
segmentType = curve;
smooth = 1;
x = 108;
y = 609;
}
);
}
);
lib = {
};
name = f;
unicodes = (
);
width = 318;
};
};
com.typesupply.AccentFactory.yCoordinates = {
bottom = {
name = origin;
type = glyphMetric;
};
top = {
name = ascender;
type = fontInfo;
};
};
};
},
{
color = 4;
glyphname = g;
lastChange = "2024-08-04 21:07:47 +0000";
layers = (
{
anchors = (
{
name = bottom;
position = "{339, -262}";
},
{
name = top;
position = "{339, 551}";
}
);
background = {
paths = (
{
closed = 1;
nodes = (
"152 560 OFFCURVE",
"37 448 OFFCURVE",
"37 278 CURVE SMOOTH",
"37 108 OFFCURVE",
"152 -9 OFFCURVE",
"297 -9 CURVE SMOOTH",
"387 -9 OFFCURVE",
"453 39 OFFCURVE",
"488 103 CURVE",
"488 -9 LINE SMOOTH",
"488 -119 OFFCURVE",
"422 -173 OFFCURVE",
"334 -173 CURVE SMOOTH",
"255 -173 OFFCURVE",
"194 -134 OFFCURVE",
"177 -77 CURVE",
"64 -77 LINE",
"78 -199 OFFCURVE",
"187 -272 OFFCURVE",
"334 -272 CURVE SMOOTH",
"506 -272 OFFCURVE",
"603 -159 OFFCURVE",
"603 -9 CURVE SMOOTH",
"603 551 LINE",
"488 551 LINE",
"488 453 LINE",
"454 514 OFFCURVE",
"387 560 OFFCURVE",
"297 560 CURVE SMOOTH"
);
},
{
closed = 1;
nodes = (
"488 276 CURVE SMOOTH",
"488 157 OFFCURVE",
"407 90 OFFCURVE",
"321 90 CURVE SMOOTH",
"236 90 OFFCURVE",
"154 159 OFFCURVE",
"154 278 CURVE SMOOTH",
"154 397 OFFCURVE",
"236 461 OFFCURVE",
"321 461 CURVE SMOOTH",
"407 461 OFFCURVE",
"488 394 OFFCURVE"
);
}
);
};
layerId = "4D0F633C-81E1-4D6C-A640-637CE706A5C5";
paths = (
{
closed = 1;
nodes = (
"502 -269 OFFCURVE",
"603 -160 OFFCURVE",
"603 -6 CURVE SMOOTH",
"603 551 LINE",
"488 551 LINE",
"488 432 LINE",
"457 510 OFFCURVE",
"385 558 OFFCURVE",
"295 558 CURVE SMOOTH",
"151 558 OFFCURVE",
"37 446 OFFCURVE",
"37 276 CURVE SMOOTH",
"37 106 OFFCURVE",
"151 -7 OFFCURVE",
"295 -7 CURVE SMOOTH",
"385 -7 OFFCURVE",
"457 41 OFFCURVE",
"488 120 CURVE",
"488 -8 LINE SMOOTH",
"488 -114 OFFCURVE",
"424 -169 OFFCURVE",
"330 -169 CURVE SMOOTH",
"252 -169 OFFCURVE",
"182 -122 OFFCURVE",
"151 -44 CURVE",
"47 -86 LINE",
"88 -205 OFFCURVE",
"196 -269 OFFCURVE",
"330 -269 CURVE SMOOTH"
);
},
{
closed = 1;
nodes = (
"236 92 OFFCURVE",
"154 157 OFFCURVE",
"154 276 CURVE SMOOTH",
"154 395 OFFCURVE",
"236 459 OFFCURVE",
"321 459 CURVE SMOOTH",
"406 459 OFFCURVE",
"488 395 OFFCURVE",
"488 276 CURVE SMOOTH",
"488 157 OFFCURVE",
"406 92 OFFCURVE",
"321 92 CURVE SMOOTH"
);
}
);
width = 678;
},
{
anchors = (
{
name = bottom;
position = "{341, -268}";
},
{
name = top;
position = "{341, 561}";
}
);
layerId = "86171893-955A-4CD1-BD1B-2F7A53CC85DC";
paths = (
{
closed = 1;
nodes = (
"541 -274 OFFCURVE",
"623 -127 OFFCURVE",
"623 23 CURVE SMOOTH",
"623 561 LINE",
"428 561 LINE",
"428 435 LINE",
"404 519 OFFCURVE",
"341 568 OFFCURVE",
"259 568 CURVE SMOOTH",
"111 568 OFFCURVE",
"24 436 OFFCURVE",
"24 280 CURVE SMOOTH",
"24 124 OFFCURVE",
"111 -7 OFFCURVE",
"259 -7 CURVE SMOOTH",
"341 -7 OFFCURVE",
"404 41 OFFCURVE",
"428 125 CURVE",
"428 23 LINE SMOOTH",
"428 -57 OFFCURVE",
"392 -114 OFFCURVE",
"312 -114 CURVE SMOOTH",
"255 -114 OFFCURVE",
"216 -83 OFFCURVE",
"198 -39 CURVE",
"30 -95 LINE",
"57 -216 OFFCURVE",
"186 -274 OFFCURVE",
"321 -274 CURVE SMOOTH"
);
},
{
closed = 1;
nodes = (
"268 164 OFFCURVE",
"224 208 OFFCURVE",
"224 280 CURVE SMOOTH",
"224 352 OFFCURVE",
"268 397 OFFCURVE",
"326 397 CURVE SMOOTH",
"384 397 OFFCURVE",
"428 352 OFFCURVE",
"428 280 CURVE SMOOTH",
"428 208 OFFCURVE",
"384 164 OFFCURVE",
"326 164 CURVE SMOOTH"
);
}
);
width = 679;
},
{
anchors = (
{
name = bottom;
position = "{338, -258}";
},
{
name = top;
position = "{338, 546}";
}
);
layerId = "6D7935D2-FE9A-430A-A298-15DA7AF44FAE";
paths = (
{
closed = 1;
nodes = (
"490 -265 OFFCURVE",
"595 -156 OFFCURVE",
"595 -11 CURVE SMOOTH",
"595 546 LINE",
"525 546 LINE",
"525 424 LINE",
"491 503 OFFCURVE",
"407 553 OFFCURVE",
"305 553 CURVE SMOOTH",
"155 553 OFFCURVE",
"48 440 OFFCURVE",
"48 274 CURVE SMOOTH",
"48 108 OFFCURVE",
"155 -7 OFFCURVE",
"305 -7 CURVE SMOOTH",
"403 -7 OFFCURVE",
"491 45 OFFCURVE",
"525 124 CURVE",
"525 -11 LINE SMOOTH",
"525 -128 OFFCURVE",
"446 -204 OFFCURVE",
"335 -204 CURVE SMOOTH",
"238 -204 OFFCURVE",
"168 -145 OFFCURVE",
"125 -57 CURVE",
"63 -88 LINE",
"106 -185 OFFCURVE",
"195 -265 OFFCURVE",
"335 -265 CURVE SMOOTH"
);
},
{
closed = 1;
nodes = (
"208 54 OFFCURVE",
"119 140 OFFCURVE",
"119 274 CURVE SMOOTH",
"119 408 OFFCURVE",
"208 492 OFFCURVE",
"322 492 CURVE SMOOTH",
"436 492 OFFCURVE",
"525 408 OFFCURVE",
"525 274 CURVE SMOOTH",
"525 140 OFFCURVE",
"436 54 OFFCURVE",
"322 54 CURVE SMOOTH"
);
}
);
width = 675;
}
);
unicode = 0067;
userData = {
com.schriftgestaltung.Glyphs.ColorIndex = 4;
com.typesupply.AccentFactory.yCoordinates = {
top = {
name = xHeight;
type = fontInfo;
};
};
};
},
{
color = 4;
glyphname = gcommaaccent;
lastChange = "2024-08-04 21:07:56 +0000";
layers = (
{
components = (
{
name = g;
}
);
layerId = "4D0F633C-81E1-4D6C-A640-637CE706A5C5";
paths = (
{
closed = 1;
nodes = (
"324 829 OFFCURVE",
"248 775 OFFCURVE",
"248 684 CURVE SMOOTH",
"248 640 OFFCURVE",
"280 596 OFFCURVE",
"327 596 CURVE SMOOTH",
"367 596 OFFCURVE",
"399 623 OFFCURVE",
"399 664 CURVE SMOOTH",
"399 706 OFFCURVE",
"369 723 OFFCURVE",
"337 723 CURVE",
"324 723 OFFCURVE",
"310 719 OFFCURVE",
"303 712 CURVE",
"305 735 OFFCURVE",
"348 775 OFFCURVE",
"402 770 CURVE",
"402 822 LINE"
);
}
);
width = 678;
},
{
components = (
{
alignment = -1;
name = g;
}
);
layerId = "86171893-955A-4CD1-BD1B-2F7A53CC85DC";
paths = (
{
closed = 1;
nodes = (
"340 887 OFFCURVE",
"241 834 OFFCURVE",
"241 713 CURVE SMOOTH",
"241 655 OFFCURVE",
"283 599 OFFCURVE",
"343 599 CURVE SMOOTH",
"396 599 OFFCURVE",
"437 634 OFFCURVE",
"437 687 CURVE SMOOTH",
"437 741 OFFCURVE",
"400 763 OFFCURVE",
"356 763 CURVE",
"347 763 OFFCURVE",
"339 762 OFFCURVE",
"331 759 CURVE",
"347 788 OFFCURVE",
"390 804 OFFCURVE",
"441 802 CURVE",
"441 879 LINE"
);
}
);
width = 679;
},
{
components = (
{
alignment = -1;
name = g;
}
);
layerId = "6D7935D2-FE9A-430A-A298-15DA7AF44FAE";
paths = (
{
closed = 1;
nodes = (
"329 774 OFFCURVE",
"276 730 OFFCURVE",
"276 662 CURVE SMOOTH",
"276 630 OFFCURVE",
"299 595 OFFCURVE",
"332 595 CURVE SMOOTH",
"362 595 OFFCURVE",
"385 616 OFFCURVE",
"385 644 CURVE SMOOTH",
"385 674 OFFCURVE",
"365 687 OFFCURVE",
"339 687 CURVE",
"331 687 OFFCURVE",
"322 685 OFFCURVE",
"315 680 CURVE",
"319 709 OFFCURVE",
"350 732 OFFCURVE",
"386 730 CURVE",
"386 770 LINE"
);
}
);
width = 675;
}
);
unicode = 0123;
userData = {
com.schriftgestaltung.Glyphs.ColorIndex = 8;
com.typesupply.AccentFactory.compileType = manual;
};
},
{
color = 4;
glyphname = h;
lastChange = "2024-08-04 18:04:22 +0000";
layers = (
{
background = {
paths = (
{
closed = 1;
nodes = (
"75 0 LINE",
"189 0 LINE",
"189 740 LINE",
"75 740 LINE"
);
},
{
closed = 1;
nodes = (
"466 0 LINE",
"579 0 LINE",
"579 325 LINE SMOOTH",
"579 479 OFFCURVE",
"483 560 OFFCURVE",
"360 560 CURVE SMOOTH",
"266 560 OFFCURVE",
"187 510 OFFCURVE",
"165 426 CURVE",
"189 308 LINE",
"189 409 OFFCURVE",
"244 461 OFFCURVE",
"328 461 CURVE SMOOTH",
"411 461 OFFCURVE",
"466 409 OFFCURVE",
"466 308 CURVE SMOOTH"
);
}
);
};
layerId = "4D0F633C-81E1-4D6C-A640-637CE706A5C5";
paths = (
{
closed = 1;
nodes = (
"189 0 LINE",
"189 288 LINE SMOOTH",
"189 388 OFFCURVE",
"248 459 OFFCURVE",
"328 459 CURVE SMOOTH",
"410 459 OFFCURVE",
"466 398 OFFCURVE",
"466 298 CURVE SMOOTH",
"466 0 LINE",
"579 0 LINE",
"579 325 LINE SMOOTH",
"579 473 OFFCURVE",
"494 558 OFFCURVE",
"368 558 CURVE SMOOTH",
"293 558 OFFCURVE",
"214 505 OFFCURVE",
"189 436 CURVE",
"189 740 LINE",
"75 740 LINE",
"75 0 LINE"
);
}
);
width = 649;
},
{
layerId = "86171893-955A-4CD1-BD1B-2F7A53CC85DC";
paths = (
{
closed = 1;
nodes = (
"252 0 LINE",
"252 291 LINE SMOOTH",
"252 355 OFFCURVE",
"286 404 OFFCURVE",
"346 404 CURVE",
"402 404 OFFCURVE",
"438 365 OFFCURVE",
"438 301 CURVE SMOOTH",
"438 0 LINE",
"634 0 LINE",
"634 329 LINE SMOOTH",
"634 475 OFFCURVE",
"553 568 OFFCURVE",
"425 568 CURVE SMOOTH",
"347 568 OFFCURVE",
"276 521 OFFCURVE",
"252 440 CURVE",
"252 740 LINE",
"56 740 LINE",
"56 0 LINE"
);
}
);
width = 686;
},
{
layerId = "6D7935D2-FE9A-430A-A298-15DA7AF44FAE";
paths = (
{
closed = 1;
nodes = (
"150 0 LINE",
"150 281 LINE SMOOTH",
"150 407 OFFCURVE",
"227 492 OFFCURVE",
"323 492 CURVE SMOOTH",
"421 492 OFFCURVE",
"489 422 OFFCURVE",
"489 301 CURVE SMOOTH",
"489 0 LINE",
"558 0 LINE",
"558 321 LINE SMOOTH",
"558 455 OFFCURVE",
"478 553 OFFCURVE",
"344 553 CURVE SMOOTH",
"244 553 OFFCURVE",
"174 492 OFFCURVE",
"150 427 CURVE",
"150 740 LINE",
"80 740 LINE",
"80 0 LINE"
);
}
);
width = 633;
}
);
unicode = 0068;
userData = {
com.schriftgestaltung.Glyphs.ColorIndex = 4;
com.typesupply.AccentFactory.yCoordinates = {
bottom = {
name = origin;
type = glyphMetric;
};
top = {
name = ascender;
type = fontInfo;
};
};
};
},
{
color = 4;
glyphname = i;
lastChange = "2024-07-31 14:32:22 +0000";
layers = (
{
anchors = (
{
name = ogonek;
position = "{192, 1}";
}
);
layerId = "4D0F633C-81E1-4D6C-A640-637CE706A5C5";
paths = (
{
closed = 1;
nodes = (
"192 0 LINE",
"192 551 LINE",
"78 551 LINE",
"78 0 LINE"
);
},
{
closed = 1;
nodes = (
"183 624 OFFCURVE",
"222 659 OFFCURVE",
"222 704 CURVE SMOOTH",
"222 749 OFFCURVE",
"183 785 OFFCURVE",
"136 785 CURVE SMOOTH",
"88 785 OFFCURVE",
"50 749 OFFCURVE",
"50 704 CURVE SMOOTH",
"50 659 OFFCURVE",
"88 624 OFFCURVE",
"136 624 CURVE SMOOTH"
);
}
);
width = 272;
},
{
anchors = (
{
name = ogonek;
position = "{245, -1}";
}
);
layerId = "86171893-955A-4CD1-BD1B-2F7A53CC85DC";
paths = (
{
closed = 1;
nodes = (
"245 0 LINE",
"245 561 LINE",
"49 561 LINE",
"49 0 LINE"
);
},
{
closed = 1;
nodes = (
"221 614 OFFCURVE",
"270 659 OFFCURVE",
"270 721 CURVE SMOOTH",
"270 784 OFFCURVE",
"221 830 OFFCURVE",
"148 830 CURVE SMOOTH",
"74 830 OFFCURVE",
"25 784 OFFCURVE",
"25 721 CURVE SMOOTH",
"25 659 OFFCURVE",
"74 614 OFFCURVE",
"148 614 CURVE SMOOTH"
);
}
);
width = 295;
},
{
anchors = (
{
name = ogonek;
position = "{155, 1}";
}
);
layerId = "6D7935D2-FE9A-430A-A298-15DA7AF44FAE";
paths = (
{
closed = 1;
nodes = (
"155 0 LINE",
"155 546 LINE",
"85 546 LINE",
"85 0 LINE"
);
},
{
closed = 1;
nodes = (
"151 649 OFFCURVE",
"176 672 OFFCURVE",
"176 703 CURVE SMOOTH",
"176 733 OFFCURVE",
"151 755 OFFCURVE",
"120 755 CURVE SMOOTH",
"86 755 OFFCURVE",
"64 733 OFFCURVE",
"64 703 CURVE SMOOTH",
"64 672 OFFCURVE",
"90 649 OFFCURVE",
"120 649 CURVE SMOOTH"
);
}
);
width = 239;
}
);
unicode = 0069;
userData = {
com.schriftgestaltung.Glyphs.ColorIndex = 4;
com.typemytype.robofont.guides = (
{
angle = 0;
isGlobal = 0;
magnetic = 5;
x = 82;
y = 540;
}
);
com.typesupply.AccentFactory.yCoordinates = {
bottom = {
name = origin;
type = glyphMetric;
};
};
};
},
{
color = 4;
glyphname = dotlessi;
lastChange = "2024-06-18 10:28:43 +0000";
layers = (
{
anchors = (
{
name = ogonek;
position = "{238, 10}";
},
{
name = top;
position = "{132, 551}";
}
);
layerId = "4D0F633C-81E1-4D6C-A640-637CE706A5C5";
paths = (
{
closed = 1;
nodes = (
"75 0 LINE",
"189 0 LINE",
"189 551 LINE",
"75 551 LINE"
);
}
);
width = 264;
},
{
anchors = (
{
name = ogonek;
position = "{312, 10}";
},
{
name = top;
position = "{174, 561}";
}
);
layerId = "86171893-955A-4CD1-BD1B-2F7A53CC85DC";
paths = (
{
closed = 1;
nodes = (
"75 0 LINE",
"272 0 LINE",
"272 561 LINE",
"75 561 LINE"
);
}
);
width = 347;
},
{
anchors = (
{
name = ogonek;
position = "{203, 10}";
},
{
name = top;
position = "{115, 546}";
}
);
layerId = "6D7935D2-FE9A-430A-A298-15DA7AF44FAE";
paths = (
{
closed = 1;
nodes = (
"80 0 LINE",
"150 0 LINE",
"150 546 LINE",
"80 546 LINE"
);
}
);
width = 229;
}
);
unicode = 0131;
userData = {
com.schriftgestaltung.Glyphs.ColorIndex = 4;
com.typesupply.AccentFactory.yCoordinates = {
bottom = {
name = origin;
type = glyphMetric;
};
top = {
name = xHeight;
type = fontInfo;
};
};
};
},
{
color = 4;
glyphname = j;
lastChange = "2024-08-04 21:10:23 +0000";
layers = (
{
layerId = "4D0F633C-81E1-4D6C-A640-637CE706A5C5";
paths = (
{
closed = 1;
nodes = (
"121 -269 OFFCURVE",
"199 -208 OFFCURVE",
"199 -93 CURVE SMOOTH",
"199 551 LINE",
"85 551 LINE",
"85 -76 LINE SMOOTH",
"85 -126 OFFCURVE",
"57 -155 OFFCURVE",
"20 -155 CURVE SMOOTH",
"9 -155 OFFCURVE",
"-4 -152 OFFCURVE",
"-17 -146 CURVE",
"-62 -233 LINE",
"-32 -257 OFFCURVE",
"4 -269 OFFCURVE",
"40 -269 CURVE SMOOTH"
);
},
{
closed = 1;
nodes = (
"190 624 OFFCURVE",
"229 659 OFFCURVE",
"229 704 CURVE SMOOTH",
"229 749 OFFCURVE",
"190 785 OFFCURVE",
"143 785 CURVE SMOOTH",
"95 785 OFFCURVE",
"57 749 OFFCURVE",
"57 704 CURVE SMOOTH",
"57 659 OFFCURVE",
"95 624 OFFCURVE",
"143 624 CURVE SMOOTH"
);
}
);
width = 288;
},
{
layerId = "86171893-955A-4CD1-BD1B-2F7A53CC85DC";
paths = (
{
closed = 1;
nodes = (
"155 -274 OFFCURVE",
"262 -193 OFFCURVE",
"262 -48 CURVE SMOOTH",
"262 561 LINE",
"66 561 LINE",
"66 -26 LINE SMOOTH",
"66 -72 OFFCURVE",
"40 -94 OFFCURVE",
"7 -94 CURVE SMOOTH",
"-8 -94 OFFCURVE",
"-25 -89 OFFCURVE",
"-41 -79 CURVE",
"-124 -211 LINE",
"-76 -254 OFFCURVE",
"-17 -274 OFFCURVE",
"40 -274 CURVE SMOOTH"
);
},
{
closed = 1;
nodes = (
"238 614 OFFCURVE",
"287 659 OFFCURVE",
"287 721 CURVE SMOOTH",
"287 784 OFFCURVE",
"238 830 OFFCURVE",
"165 830 CURVE SMOOTH",
"91 830 OFFCURVE",
"42 784 OFFCURVE",
"42 721 CURVE SMOOTH",
"42 659 OFFCURVE",
"91 614 OFFCURVE",
"165 614 CURVE SMOOTH"
);
}
);
width = 326;
},
{
layerId = "6D7935D2-FE9A-430A-A298-15DA7AF44FAE";
paths = (
{
closed = 1;
nodes = (
"102 -265 OFFCURVE",
"156 -218 OFFCURVE",
"156 -129 CURVE SMOOTH",
"156 546 LINE",
"86 546 LINE",
"86 -113 LINE SMOOTH",
"86 -167 OFFCURVE",
"64 -199 OFFCURVE",
"25 -199 CURVE SMOOTH",
"12 -199 OFFCURVE",
"-2 -196 OFFCURVE",
"-18 -189 CURVE",
"-40 -242 LINE",
"-14 -258 OFFCURVE",
"13 -265 OFFCURVE",
"38 -265 CURVE SMOOTH"
);
},
{
closed = 1;
nodes = (
"148 649 OFFCURVE",
"173 672 OFFCURVE",
"173 703 CURVE SMOOTH",
"173 733 OFFCURVE",
"148 755 OFFCURVE",
"117 755 CURVE SMOOTH",
"83 755 OFFCURVE",
"61 733 OFFCURVE",
"61 703 CURVE SMOOTH",
"61 672 OFFCURVE",
"87 649 OFFCURVE",
"117 649 CURVE SMOOTH"
);
}
);
width = 237;
}
);
unicode = 006A;
userData = {
com.schriftgestaltung.Glyphs.ColorIndex = 4;
com.typesupply.AccentFactory.yCoordinates = {
bottom = {
name = origin;
type = glyphMetric;
};
};
};
},
{
color = 4;
glyphname = k;
lastChange = "2024-08-04 21:10:52 +0000";
layers = (
{
anchors = (
{
name = bottom;
position = "{277, 0}";
}
);
layerId = "4D0F633C-81E1-4D6C-A640-637CE706A5C5";
paths = (
{
closed = 1;
nodes = (
"189 0 LINE",
"189 227 LINE",
"296 215 OFFCURVE",
"411 127 OFFCURVE",
"439 0 CURVE",
"559 0 LINE",
"539 130 OFFCURVE",
"419 247 OFFCURVE",
"318 277 CURVE",
"419 317 OFFCURVE",
"516 419 OFFCURVE",
"547 551 CURVE",
"427 551 LINE",
"396 415 OFFCURVE",
"295 338 OFFCURVE",
"189 320 CURVE",
"189 740 LINE",
"75 740 LINE",
"75 0 LINE"
);
}
);
width = 566;
},
{
anchors = (
{
name = bottom;
position = "{330, 0}";
}
);
layerId = "86171893-955A-4CD1-BD1B-2F7A53CC85DC";
paths = (
{
closed = 1;
nodes = (
"252 0 LINE",
"252 200 LINE",
"340 187 OFFCURVE",
"411 109 OFFCURVE",
"435 0 CURVE",
"646 0 LINE",
"619 127 OFFCURVE",
"516 252 OFFCURVE",
"404 279 CURVE",
"510 322 OFFCURVE",
"609 441 OFFCURVE",
"642 561 CURVE",
"433 561 LINE",
"415 466 OFFCURVE",
"338 372 OFFCURVE",
"252 350 CURVE",
"252 740 LINE",
"56 740 LINE",
"56 0 LINE"
);
}
);
width = 650;
},
{
anchors = (
{
name = bottom;
position = "{243, 0}";
}
);
layerId = "6D7935D2-FE9A-430A-A298-15DA7AF44FAE";
paths = (
{
closed = 1;
nodes = (
"150 0 LINE",
"150 239 LINE",
"285 229 OFFCURVE",
"418 110 OFFCURVE",
"442 0 CURVE",
"520 0 LINE",
"493 140 OFFCURVE",
"341 258 OFFCURVE",
"250 277 CURVE",
"346 306 OFFCURVE",
"465 403 OFFCURVE",
"494 546 CURVE",
"416 546 LINE",
"390 423 OFFCURVE",
"289 334 OFFCURVE",
"150 307 CURVE",
"150 740 LINE",
"80 740 LINE",
"80 0 LINE"
);
}
);
width = 530;
}
);
unicode = 006B;
userData = {
com.schriftgestaltung.Glyphs.ColorIndex = 4;
com.typemytype.robofont.guides = (
{
angle = 0;
isGlobal = 0;
magnetic = 5;
x = 86;
y = 740;
}
);
com.typesupply.AccentFactory.yCoordinates = {
bottom = {
name = origin;
type = glyphMetric;
};
top = {
name = ascender;
type = fontInfo;
};
};
};
},
{
color = 4;
glyphname = kcommaaccent;
lastChange = "2024-08-04 21:11:08 +0000";
layers = (
{
components = (
{
name = k;
}
);
layerId = "4D0F633C-81E1-4D6C-A640-637CE706A5C5";
paths = (
{
closed = 1;
nodes = (
"293 -278 OFFCURVE",
"369 -224 OFFCURVE",
"369 -133 CURVE SMOOTH",
"369 -89 OFFCURVE",
"337 -45 OFFCURVE",
"290 -45 CURVE SMOOTH",
"250 -45 OFFCURVE",
"218 -72 OFFCURVE",
"218 -113 CURVE SMOOTH",
"218 -155 OFFCURVE",
"248 -172 OFFCURVE",
"280 -172 CURVE",
"293 -172 OFFCURVE",
"307 -168 OFFCURVE",
"314 -161 CURVE",
"312 -184 OFFCURVE",
"269 -224 OFFCURVE",
"215 -219 CURVE",
"215 -271 LINE"
);
}
);
width = 566;
},
{
components = (
{
alignment = -1;
name = k;
}
);
layerId = "86171893-955A-4CD1-BD1B-2F7A53CC85DC";
paths = (
{
closed = 1;
nodes = (
"327 -326 OFFCURVE",
"426 -273 OFFCURVE",
"426 -152 CURVE SMOOTH",
"426 -94 OFFCURVE",
"384 -38 OFFCURVE",
"324 -38 CURVE SMOOTH",
"271 -38 OFFCURVE",
"230 -73 OFFCURVE",
"230 -126 CURVE SMOOTH",
"230 -180 OFFCURVE",
"267 -202 OFFCURVE",
"311 -202 CURVE",
"320 -202 OFFCURVE",
"328 -201 OFFCURVE",
"336 -198 CURVE",
"320 -227 OFFCURVE",
"277 -243 OFFCURVE",
"226 -241 CURVE",
"226 -318 LINE"
);
}
);
width = 650;
},
{
components = (
{
alignment = -1;
name = k;
}
);
layerId = "6D7935D2-FE9A-430A-A298-15DA7AF44FAE";
paths = (
{
closed = 1;
nodes = (
"265 -230 OFFCURVE",
"318 -186 OFFCURVE",
"318 -118 CURVE SMOOTH",
"318 -86 OFFCURVE",
"295 -51 OFFCURVE",
"262 -51 CURVE SMOOTH",
"232 -51 OFFCURVE",
"209 -72 OFFCURVE",
"209 -100 CURVE SMOOTH",
"209 -130 OFFCURVE",
"229 -143 OFFCURVE",
"255 -143 CURVE",
"263 -143 OFFCURVE",
"272 -141 OFFCURVE",
"279 -136 CURVE",
"275 -165 OFFCURVE",
"244 -188 OFFCURVE",
"208 -186 CURVE",
"208 -226 LINE"
);
}
);
width = 530;
}
);
unicode = 0137;
userData = {
com.schriftgestaltung.Glyphs.ColorIndex = 8;
com.typesupply.AccentFactory.compileType = manual;
};
},
{
color = 4;
glyphname = l;
lastChange = "2024-08-04 20:16:56 +0000";
layers = (
{
anchors = (
{
name = bottom;
position = "{132, 0}";
},
{
name = commaaccent;
position = "{132, 10}";
},
{
name = top;
position = "{132, 740}";
},
{
name = topright;
position = "{244, 551}";
}
);
layerId = "4D0F633C-81E1-4D6C-A640-637CE706A5C5";
paths = (
{
closed = 1;
nodes = (
"75 31 OFFCURVE",
"145 -7 OFFCURVE",
"209 -7 CURVE SMOOTH",
"235 -7 OFFCURVE",
"259 -1 OFFCURVE",
"278 10 CURVE",
"254 94 LINE",
"247 91 OFFCURVE",
"240 90 OFFCURVE",
"233 90 CURVE SMOOTH",
"209 90 OFFCURVE",
"189 107 OFFCURVE",
"189 136 CURVE SMOOTH",
"189 740 LINE",
"75 740 LINE",
"75 126 LINE"
);
}
);
width = 298;
},
{
anchors = (
{
name = bottom;
position = "{154, 0}";
},
{
name = commaaccent;
position = "{154, 10}";
},
{
name = top;
position = "{154, 740}";
},
{
name = topright;
position = "{306, 561}";
}
);
layerId = "86171893-955A-4CD1-BD1B-2F7A53CC85DC";
paths = (
{
closed = 1;
nodes = (
"56 43 OFFCURVE",
"155 -7 OFFCURVE",
"249 -7 CURVE SMOOTH",
"285 -7 OFFCURVE",
"321 0 OFFCURVE",
"350 12 CURVE",
"321 165 LINE",
"313 162 OFFCURVE",
"305 161 OFFCURVE",
"297 161 CURVE SMOOTH",
"273 161 OFFCURVE",
"252 174 OFFCURVE",
"252 203 CURVE SMOOTH",
"252 740 LINE",
"56 740 LINE",
"56 196 LINE"
);
}
);
width = 362;
},
{
anchors = (
{
name = bottom;
position = "{115, 0}";
},
{
name = commaaccent;
position = "{115, 10}";
},
{
name = top;
position = "{115, 740}";
},
{
name = topright;
position = "{205, 546}";
}
);
layerId = "6D7935D2-FE9A-430A-A298-15DA7AF44FAE";
paths = (
{
closed = 1;
nodes = (
"80 21 OFFCURVE",
"133 -7 OFFCURVE",
"181 -7 CURVE SMOOTH",
"200 -7 OFFCURVE",
"219 -2 OFFCURVE",
"232 6 CURVE",
"216 59 LINE",
"208 56 OFFCURVE",
"201 55 OFFCURVE",
"194 55 CURVE SMOOTH",
"170 55 OFFCURVE",
"150 70 OFFCURVE",
"150 102 CURVE SMOOTH",
"150 740 LINE",
"80 740 LINE",
"80 96 LINE"
);
}
);
width = 264;
}
);
unicode = 006C;
userData = {
com.schriftgestaltung.Glyphs.ColorIndex = 4;
com.typesupply.AccentFactory.yCoordinates = {
bottom = {
name = origin;
type = glyphMetric;
};
top = {
name = ascender;
type = fontInfo;
};
};
};
},
{
color = 4;
glyphname = lcaron;
lastChange = "2024-07-30 13:50:13 +0000";
layers = (
{
components = (
{
name = l;
}
);
layerId = "4D0F633C-81E1-4D6C-A640-637CE706A5C5";
paths = (
{
closed = 1;
nodes = (
"314 514 OFFCURVE",
"390 568 OFFCURVE",
"390 659 CURVE SMOOTH",
"390 703 OFFCURVE",
"358 747 OFFCURVE",
"311 747 CURVE SMOOTH",
"271 747 OFFCURVE",
"239 720 OFFCURVE",
"239 679 CURVE SMOOTH",
"239 637 OFFCURVE",
"269 620 OFFCURVE",
"301 620 CURVE",
"314 620 OFFCURVE",
"328 624 OFFCURVE",
"335 631 CURVE",
"333 608 OFFCURVE",
"290 568 OFFCURVE",
"236 573 CURVE",
"236 521 LINE"
);
}
);
width = 433;
},
{
components = (
{
alignment = -1;
name = l;
}
);
layerId = "86171893-955A-4CD1-BD1B-2F7A53CC85DC";
paths = (
{
closed = 1;
nodes = (
"405 460 OFFCURVE",
"504 513 OFFCURVE",
"504 634 CURVE SMOOTH",
"504 692 OFFCURVE",
"462 748 OFFCURVE",
"402 748 CURVE SMOOTH",
"349 748 OFFCURVE",
"308 713 OFFCURVE",
"308 660 CURVE SMOOTH",
"308 606 OFFCURVE",
"345 584 OFFCURVE",
"389 584 CURVE",
"398 584 OFFCURVE",
"406 585 OFFCURVE",
"414 588 CURVE",
"398 559 OFFCURVE",
"355 543 OFFCURVE",
"304 545 CURVE",
"304 468 LINE"
);
}
);
width = 522;
},
{
components = (
{
alignment = -1;
name = l;
}
);
layerId = "6D7935D2-FE9A-430A-A298-15DA7AF44FAE";
paths = (
{
closed = 1;
nodes = (
"253 565 OFFCURVE",
"306 609 OFFCURVE",
"306 677 CURVE SMOOTH",
"306 709 OFFCURVE",
"283 744 OFFCURVE",
"250 744 CURVE SMOOTH",
"220 744 OFFCURVE",
"197 723 OFFCURVE",
"197 695 CURVE SMOOTH",
"197 665 OFFCURVE",
"217 652 OFFCURVE",
"243 652 CURVE",
"251 652 OFFCURVE",
"260 654 OFFCURVE",
"267 659 CURVE",
"263 630 OFFCURVE",
"232 607 OFFCURVE",
"196 609 CURVE",
"196 569 LINE"
);
}
);
width = 314;
}
);
unicode = 013E;
userData = {
com.schriftgestaltung.Glyphs.ColorIndex = 8;
com.typesupply.AccentFactory.compileType = manual;
};
},
{
color = 4;
glyphname = lcommaaccent;
lastChange = "2024-08-04 19:17:52 +0000";
layers = (
{
components = (
{
name = l;
}
);
layerId = "4D0F633C-81E1-4D6C-A640-637CE706A5C5";
paths = (
{
closed = 1;
nodes = (
"163 -278 OFFCURVE",
"239 -224 OFFCURVE",
"239 -133 CURVE SMOOTH",
"239 -89 OFFCURVE",
"207 -45 OFFCURVE",
"160 -45 CURVE SMOOTH",
"120 -45 OFFCURVE",
"88 -72 OFFCURVE",
"88 -113 CURVE SMOOTH",
"88 -155 OFFCURVE",
"118 -172 OFFCURVE",
"150 -172 CURVE",
"163 -172 OFFCURVE",
"177 -168 OFFCURVE",
"184 -161 CURVE",
"182 -184 OFFCURVE",
"139 -224 OFFCURVE",
"85 -219 CURVE",
"85 -271 LINE"
);
}
);
width = 347;
},
{
components = (
{
alignment = -1;
name = l;
}
);
layerId = "86171893-955A-4CD1-BD1B-2F7A53CC85DC";
paths = (
{
closed = 1;
nodes = (
"193 -326 OFFCURVE",
"292 -273 OFFCURVE",
"292 -152 CURVE SMOOTH",
"292 -94 OFFCURVE",
"250 -38 OFFCURVE",
"190 -38 CURVE SMOOTH",
"137 -38 OFFCURVE",
"96 -73 OFFCURVE",
"96 -126 CURVE SMOOTH",
"96 -180 OFFCURVE",
"133 -202 OFFCURVE",
"177 -202 CURVE",
"186 -202 OFFCURVE",
"194 -201 OFFCURVE",
"202 -198 CURVE",
"186 -227 OFFCURVE",
"143 -243 OFFCURVE",
"92 -241 CURVE",
"92 -318 LINE"
);
}
);
width = 406;
},
{
components = (
{
alignment = -1;
name = l;
transform = "{1, 0, 0, 1, -11, 0}";
}
);
layerId = "6D7935D2-FE9A-430A-A298-15DA7AF44FAE";
paths = (
{
closed = 1;
nodes = (
"133 -230 OFFCURVE",
"186 -186 OFFCURVE",
"186 -118 CURVE SMOOTH",
"186 -86 OFFCURVE",
"163 -51 OFFCURVE",
"130 -51 CURVE SMOOTH",
"100 -51 OFFCURVE",
"77 -72 OFFCURVE",
"77 -100 CURVE SMOOTH",
"77 -130 OFFCURVE",
"97 -143 OFFCURVE",
"123 -143 CURVE",
"131 -143 OFFCURVE",
"140 -141 OFFCURVE",
"147 -136 CURVE",
"143 -165 OFFCURVE",
"112 -188 OFFCURVE",
"76 -186 CURVE",
"76 -226 LINE"
);
}
);
width = 290;
}
);
unicode = 013C;
userData = {
com.schriftgestaltung.Glyphs.ColorIndex = 8;
com.typesupply.AccentFactory.compileType = manual;
};
},
{
color = 4;
glyphname = ldot;
lastChange = "2024-08-04 18:08:03 +0000";
layers = (
{
layerId = "4D0F633C-81E1-4D6C-A640-637CE706A5C5";
paths = (
{
closed = 1;
nodes = (
"234 -7 OFFCURVE",
"259 0 OFFCURVE",
"277 10 CURVE",
"254 101 LINE",
"238 93 OFFCURVE",
"230 91 OFFCURVE",
"221 91 CURVE SMOOTH",
"202 91 OFFCURVE",
"189 102 OFFCURVE",
"189 117 CURVE SMOOTH",
"189 740 LINE",
"75 740 LINE",
"75 118 LINE",
"75 35 OFFCURVE",
"129 -7 OFFCURVE",
"196 -7 CURVE"
);
},
{
closed = 1;
nodes = (
"321 305 OFFCURVE",
"348 331 OFFCURVE",
"348 365 CURVE SMOOTH",
"348 398 OFFCURVE",
"321 425 OFFCURVE",
"288 425 CURVE SMOOTH",
"254 425 OFFCURVE",
"228 398 OFFCURVE",
"228 365 CURVE SMOOTH",
"228 331 OFFCURVE",
"254 305 OFFCURVE",
"288 305 CURVE SMOOTH"
);
}
);
width = 314;
},
{
layerId = "86171893-955A-4CD1-BD1B-2F7A53CC85DC";
paths = (
{
closed = 1;
nodes = (
"285 -7 OFFCURVE",
"321 0 OFFCURVE",
"350 12 CURVE",
"321 165 LINE",
"313 162 OFFCURVE",
"305 161 OFFCURVE",
"297 161 CURVE SMOOTH",
"273 161 OFFCURVE",
"252 174 OFFCURVE",
"252 203 CURVE SMOOTH",
"252 740 LINE",
"56 740 LINE",
"56 196 LINE SMOOTH",
"56 43 OFFCURVE",
"155 -7 OFFCURVE",
"249 -7 CURVE SMOOTH"
);
},
{
closed = 1;
nodes = (
"403 284 OFFCURVE",
"438 318 OFFCURVE",
"438 363 CURVE SMOOTH",
"438 409 OFFCURVE",
"403 443 OFFCURVE",
"357 443 CURVE SMOOTH",
"313 443 OFFCURVE",
"278 409 OFFCURVE",
"278 363 CURVE SMOOTH",
"278 318 OFFCURVE",
"313 284 OFFCURVE",
"357 284 CURVE SMOOTH"
);
}
);
width = 409;
},
{
layerId = "6D7935D2-FE9A-430A-A298-15DA7AF44FAE";
paths = (
{
closed = 1;
nodes = (
"200 -7 OFFCURVE",
"219 -2 OFFCURVE",
"232 6 CURVE",
"216 59 LINE",
"208 56 OFFCURVE",
"201 55 OFFCURVE",
"194 55 CURVE SMOOTH",
"170 55 OFFCURVE",
"150 70 OFFCURVE",
"150 102 CURVE SMOOTH",
"150 740 LINE",
"80 740 LINE",
"80 96 LINE",
"80 21 OFFCURVE",
"133 -7 OFFCURVE",
"181 -7 CURVE SMOOTH"
);
},
{
closed = 1;
nodes = (
"280 322 OFFCURVE",
"301 343 OFFCURVE",
"301 368 CURVE SMOOTH",
"301 393 OFFCURVE",
"280 414 OFFCURVE",
"255 414 CURVE SMOOTH",
"229 414 OFFCURVE",
"209 393 OFFCURVE",
"209 368 CURVE SMOOTH",
"209 343 OFFCURVE",
"229 322 OFFCURVE",
"255 322 CURVE SMOOTH"
);
}
);
width = 278;
}
);
unicode = 0140;
userData = {
com.typesupply.AccentFactory.compileType = manual;
};
},
{
color = 4;
glyphname = lslash;
lastChange = "2024-08-04 18:08:26 +0000";
layers = (
{
layerId = "4D0F633C-81E1-4D6C-A640-637CE706A5C5";
paths = (
{
closed = 1;
nodes = (
"234 -7 OFFCURVE",
"259 0 OFFCURVE",
"277 10 CURVE",
"254 101 LINE",
"238 93 OFFCURVE",
"230 91 OFFCURVE",
"221 91 CURVE SMOOTH",
"202 91 OFFCURVE",
"189 102 OFFCURVE",
"189 117 CURVE SMOOTH",
"189 740 LINE",
"75 740 LINE",
"75 118 LINE",
"75 35 OFFCURVE",
"129 -7 OFFCURVE",
"196 -7 CURVE"
);
},
{
closed = 1;
nodes = (
"256 358 LINE",
"256 445 LINE",
"9 361 LINE",
"9 273 LINE"
);
}
);
width = 285;
},
{
layerId = "86171893-955A-4CD1-BD1B-2F7A53CC85DC";
paths = (
{
closed = 1;
nodes = (
"304 -7 OFFCURVE",
"340 0 OFFCURVE",
"369 12 CURVE",
"340 165 LINE",
"332 162 OFFCURVE",
"324 161 OFFCURVE",
"316 161 CURVE SMOOTH",
"292 161 OFFCURVE",
"271 174 OFFCURVE",
"271 203 CURVE SMOOTH",
"271 740 LINE",
"75 740 LINE",
"75 196 LINE SMOOTH",
"75 43 OFFCURVE",
"174 -7 OFFCURVE",
"268 -7 CURVE SMOOTH"
);
},
{
closed = 1;
nodes = (
"337 343 LINE",
"337 513 LINE",
"10 419 LINE",
"10 249 LINE"
);
}
);
width = 380;
},
{
layerId = "6D7935D2-FE9A-430A-A298-15DA7AF44FAE";
paths = (
{
closed = 1;
nodes = (
"203 -7 OFFCURVE",
"222 -2 OFFCURVE",
"235 6 CURVE",
"219 59 LINE",
"211 56 OFFCURVE",
"204 55 OFFCURVE",
"197 55 CURVE SMOOTH",
"173 55 OFFCURVE",
"153 70 OFFCURVE",
"153 102 CURVE SMOOTH",
"153 740 LINE",
"83 740 LINE",
"83 96 LINE",
"83 21 OFFCURVE",
"136 -7 OFFCURVE",
"184 -7 CURVE SMOOTH"
);
},
{
closed = 1;
nodes = (
"230 439 LINE",
"230 494 LINE",
"9 398 LINE",
"9 343 LINE"
);
}
);
width = 248;
}
);
unicode = 0142;
userData = {
com.schriftgestaltung.Glyphs.ColorIndex = 4;
};
},
